<svg width="25" height="25" viewBox="0 0 25 25" fill="none" xmlns="http://www.w3.org/2000/svg">
<path d="M12.4883 2.08333C6.73828 2.08333 2.08203 6.75 2.08203 12.5C2.08203 18.25 6.73828 22.9167 12.4883 22.9167C18.2487 22.9167 22.9154 18.25 22.9154 12.5C22.9154 6.75 18.2487 2.08333 12.4883 2.08333ZM12.4987 20.8333C7.89453 20.8333 4.16536 17.1042 4.16536 12.5C4.16536 7.89583 7.89453 4.16667 12.4987 4.16667C17.1029 4.16667 20.832 7.89583 20.832 12.5C20.832 17.1042 17.1029 20.8333 12.4987 20.8333Z" fill="white"/>
<path d="M13.0195 7.29166H11.457V13.5417L16.9258 16.8229L17.707 15.5417L13.0195 12.7604V7.29166Z" fill="white"/>
</svg>
