<svg width="25" height="25" viewBox="0 0 25 25" fill="none" xmlns="http://www.w3.org/2000/svg">
<path d="M16.668 1.04167C14.168 1.04167 11.9596 2.30209 10.6471 4.21876C10.6576 4.20834 10.6576 4.19792 10.668 4.18751C10.2513 4.16667 9.8138 4.16667 9.3763 4.16667C4.77214 4.16667 1.04297 4.68751 1.04297 8.33334V18.75C1.04297 19.6667 1.44922 20.4896 2.08464 21.0625V22.9167C2.08464 23.4896 2.55339 23.9583 3.1263 23.9583H4.16797C4.74089 23.9583 5.20964 23.4896 5.20964 22.9167V21.875H13.543V22.9167C13.543 23.4896 14.0117 23.9583 14.5846 23.9583H15.6263C16.1992 23.9583 16.668 23.4896 16.668 22.9167V21.0625C17.3034 20.4896 17.7096 19.6667 17.7096 18.75V15.5417C21.2409 15.0313 23.9596 12.0104 23.9596 8.33334C23.9596 4.30209 20.6992 1.04167 16.668 1.04167ZM4.6888 19.7917C3.82422 19.7917 3.1263 19.0938 3.1263 18.2292C3.1263 17.3646 3.82422 16.6667 4.6888 16.6667C5.55339 16.6667 6.2513 17.3646 6.2513 18.2292C6.2513 19.0938 5.55339 19.7917 4.6888 19.7917ZM3.1263 13.5417V8.33334H9.3763C9.3763 10.375 10.2201 12.2188 11.5742 13.5417H3.1263ZM14.0638 19.7917C13.1992 19.7917 12.5013 19.0938 12.5013 18.2292C12.5013 17.3646 13.1992 16.6667 14.0638 16.6667C14.9284 16.6667 15.6263 17.3646 15.6263 18.2292C15.6263 19.0938 14.9284 19.7917 14.0638 19.7917ZM16.668 13.5417C13.793 13.5417 11.4596 11.2083 11.4596 8.33334C11.4596 5.45834 13.793 3.12501 16.668 3.12501C19.543 3.12501 21.8763 5.45834 21.8763 8.33334C21.8763 11.2083 19.543 13.5417 16.668 13.5417ZM17.1888 4.16667H15.6263V9.37501L19.3971 11.625L20.1784 10.3438L17.1888 8.59376V4.16667Z" fill="white"/>
</svg>
