<svg width="389" height="200" viewBox="0 0 389 200" fill="none" xmlns="http://www.w3.org/2000/svg">
<path fill-rule="evenodd" clip-rule="evenodd" d="M188.171 0.251176C182.277 0.760034 173.707 2.6917 170.009 4.34478C169.399 4.61733 168.798 4.84013 168.673 4.84013C167.204 4.84013 155.922 11.537 152.832 14.2433C143.928 22.0422 137.969 31.9279 136.679 41.0412C136.273 43.9106 136.567 43.7887 129.377 44.0627C125.839 44.1974 122.31 44.3669 121.537 44.4393C120.763 44.5115 117.599 44.6824 114.504 44.8192C111.41 44.956 108.324 45.1152 107.648 45.1728C106.971 45.2307 104.914 45.3725 103.076 45.4876C75.2332 47.2352 75.5606 47.2018 75.7143 48.2938C75.8423 49.2021 75.5986 49.1953 85.1432 48.5603C95.7195 47.8567 101.072 47.5184 107.823 47.1275C111.498 46.9147 116.878 46.5942 119.779 46.4158C122.68 46.2374 127.506 46.0445 130.503 45.9869L135.954 45.8828L136.136 49.7916C136.362 54.6559 137.262 54.1133 128.218 54.5675C123.963 54.781 117.396 55.1193 113.625 55.3194C109.854 55.5191 105.028 55.7582 102.901 55.851C100.773 55.9437 97.1338 56.1722 94.813 56.3584C92.4923 56.5446 88.8529 56.7976 86.7256 56.9206C84.5982 57.0435 82.0665 57.2081 81.0995 57.2866C80.1325 57.3648 77.1261 57.6007 74.4185 57.8104C66.2108 58.4464 61.9547 58.7893 57.7161 59.1557C55.4921 59.3483 51.378 59.6873 48.5738 59.9098C45.7695 60.1322 42.7114 60.4652 41.7782 60.6496C40.8446 60.834 39.1557 60.985 38.0249 60.985C36.894 60.985 35.2051 61.1382 34.2716 61.3251C33.3383 61.5124 30.5967 61.85 28.1792 62.0756C21.9406 62.658 18.2527 63.0365 14.8173 63.4465C13.1734 63.643 9.70568 64.041 7.11135 64.3313C1.93994 64.9098 0.593202 65.4876 1.98284 66.5317C2.37034 66.8227 3.00186 66.9648 3.38936 66.8479C3.77615 66.731 5.4376 66.4894 7.08147 66.311C8.72534 66.1322 11.4153 65.8217 13.0592 65.6209C15.9485 65.2677 23.421 64.4546 29.5858 63.8225C31.2296 63.6537 34.1569 63.3428 36.0909 63.1317C38.0249 62.9203 42.2972 62.5109 45.5849 62.222C48.8726 61.9335 52.4329 61.6154 53.4966 61.5156C62.9237 60.6304 69.5207 60.0718 76.8799 59.5349C91.8822 58.4404 112.479 57.1576 118.9 56.9174C120.93 56.8413 125.758 56.6622 129.628 56.519L136.664 56.2586L137.998 60.3205C139.222 64.0485 142.768 71.3068 143.877 72.3562C143.981 72.4539 144.416 72.9951 144.844 73.559C151.936 82.8904 163.485 90.4071 175.864 93.7474C200.21 100.317 228.173 92.8409 242.133 76.029C243.243 74.6929 244.451 73.2388 244.819 72.7975C245.186 72.3565 245.486 71.9059 245.486 71.7968C245.486 71.6874 245.854 71.089 246.305 70.4668C248.094 67.9932 250.612 62.2003 251.802 57.8232L252.227 56.26L259.318 56.54C263.218 56.6939 268.171 56.8637 270.325 56.917C272.479 56.9707 277.147 57.197 280.698 57.4202C284.249 57.6437 289.607 57.9774 292.605 58.1618C295.602 58.3462 300.191 58.6543 302.802 58.8466C305.413 59.0392 309.843 59.349 312.648 59.5352C321.852 60.1475 327.909 60.6563 330.094 61.001C331.276 61.1876 333.145 61.3404 334.246 61.3404C335.346 61.3404 337.306 61.4932 338.6 61.6797C339.895 61.8663 342.932 62.1985 345.349 62.4181C356.764 63.4554 368.115 64.6423 375.941 65.617C377.585 65.8217 380.196 66.1258 381.743 66.2925C383.29 66.4595 385.039 66.7065 385.63 66.8415C386.417 67.0213 386.833 66.9311 387.182 66.5057C388.108 65.3786 386.943 64.8974 381.889 64.3203C379.294 64.024 375.906 63.6327 374.359 63.4515C371.494 63.1153 369.301 62.8755 359.942 61.8741C348.418 60.6414 330.51 58.9539 325.658 58.6437C324.401 58.5633 321.632 58.3373 319.504 58.1412C314.152 57.6483 295.281 56.3549 283.286 55.6591C279.999 55.4683 273.195 55.1314 268.166 54.9104C263.138 54.6893 257.619 54.4065 255.901 54.2821L252.778 54.0558L252.845 50.1679C252.882 48.0298 252.981 46.1678 253.065 46.0302C253.271 45.6937 275.408 46.5864 284.517 47.2985C285.581 47.3816 288.192 47.5401 290.319 47.6503C295.933 47.9413 303.772 48.4992 308.492 48.9434C312.835 49.352 313.351 49.2706 313.351 48.1783C313.351 47.1556 316.146 47.4349 285.22 45.3668C282.416 45.1792 277.748 44.9244 274.847 44.8007C271.946 44.6771 268.782 44.5189 267.815 44.4489C266.848 44.3789 263.161 44.208 259.622 44.0687C252.434 43.7859 252.73 43.9081 252.318 41.0412C249.738 23.0407 231.376 6.03197 209.796 1.65089C208.636 1.41529 206.974 1.07381 206.104 0.891513C201.978 0.0276636 194.044 -0.255549 188.171 0.251176ZM200.278 2.00624C206.91 2.76348 212.594 3.86329 213.295 4.52494C213.478 4.69835 213.953 4.84546 214.349 4.85186C215.002 4.86216 216.177 5.24487 219.817 6.63357C232.227 11.3675 248.651 27.3884 248.651 34.7604C248.651 35.034 248.777 35.4096 248.931 35.5955C249.27 36.0048 249.829 37.7503 250.462 40.3749C251.1 43.0208 251.101 53.4396 250.463 55.8325C247.21 68.0486 240.918 76.8293 230.366 83.8783C227.218 85.9816 220.005 89.7682 219.147 89.7682C218.932 89.7682 218.084 90.0631 217.264 90.4238C215.319 91.2795 213.676 91.8089 211.536 92.2705C210.579 92.477 209.163 92.7954 208.389 92.9784C173.393 101.256 136.88 77.2944 137.977 46.7711C138.939 19.9804 168.936 -1.57318 200.278 2.00624ZM188.522 5.21574C166.231 7.29523 147.207 21.238 142.976 38.5981C142.666 39.8685 142.265 41.399 142.084 41.9992C139.815 49.5368 143.743 63.9326 150.166 71.6188C177.539 104.374 237.917 94.097 246.698 55.1886C247.314 52.4613 247.455 43.7834 246.913 41.9992C246.73 41.399 246.316 39.7886 245.993 38.4205C244.055 30.2347 236.751 20.5142 228.323 14.905C224.407 12.2989 217.505 8.74896 216.354 8.74896C216.126 8.74896 215.665 8.60042 215.329 8.41919C210.828 5.98826 197.419 4.386 188.522 5.21574ZM203.848 9.3964C204.605 9.59219 206.217 9.93332 207.429 10.1544C209.745 10.5765 212.591 11.3817 214.367 12.1169C214.947 12.3572 216.371 12.9314 217.532 13.3926C223.173 15.6367 229.356 19.802 233.383 24.0719C244.035 35.3666 246.53 49.6349 240.117 62.5841C238.257 66.3387 235.238 70.3651 231.773 73.7125C230.636 74.8102 225.529 78.7524 225.243 78.7524C225.123 78.7524 224.575 79.0761 224.025 79.4716C221.292 81.4385 213.531 84.6157 208.565 85.8007C207.695 86.0086 206.113 86.3867 205.049 86.6408C202.335 87.2893 187.421 87.2729 184.211 86.6177C180.236 85.8068 180.364 85.6867 187.995 83.0752C199.475 79.1461 200.126 78.8285 200.126 77.1533C200.126 75.9309 198.794 75.0202 194.925 73.5974C191.723 72.4198 190.264 71.3025 192.252 71.5509C197.808 72.2446 201.16 72.8867 204.697 73.9336C212.997 76.3911 214.677 76.7223 219.022 76.7603C221.388 76.7809 223.287 76.6569 223.241 76.4849C223.195 76.3126 221.655 76.1342 219.817 76.0887C215.96 75.9924 212.664 75.3365 207.492 73.6358C203.455 72.3082 201.674 71.9024 196.46 71.1196C192.122 70.4686 192.016 70.3648 193.493 68.2128C194.571 66.6408 194.677 66.252 194.722 63.6889L194.771 60.8848L202.811 60.9069C207.233 60.9193 212.703 61.0458 214.967 61.1883C223.983 61.7558 229.311 56.4984 225.035 51.2556C223.963 49.9419 223.941 49.8456 224.402 48.5983C225.013 46.9438 224.941 43.5723 224.237 40.823C223.933 39.6407 223.685 37.5865 223.685 36.2585C223.685 30.5428 221.862 24.1646 219.824 22.7479C216.635 20.5316 212.58 22.3716 210.147 27.1382C208.918 29.5464 208.694 29.5027 206.528 26.4275C205.53 25.0104 204.494 23.5712 204.227 23.2294C203.663 22.508 202.488 22.4437 200.255 23.0119C198.214 23.5311 197.81 23.1441 197.418 20.2977L197.125 18.1657L195.073 18.1763C192.446 18.1898 192.039 18.6923 192.039 21.9153V24.2851L190.214 24.5036C185.014 25.1259 180.585 29.7319 175.789 39.5053C173.961 43.229 173.927 43.271 172.88 43.051C170.159 42.48 169.359 42.4515 168.07 42.8819C164.544 44.0573 162.67 48.7017 162.915 55.6548C163.099 60.8678 164.18 62.9853 168.229 66.064C169.427 66.9748 169.534 67.2004 169.534 68.818V70.5794H171.272H173.01L173.118 69.0969C173.273 66.9794 173.893 67.0487 174.985 69.3051C175.959 71.3161 178.04 73.4883 180.02 74.5604C181.066 75.1268 181.138 75.2906 181.138 77.099C181.138 79.1458 181.398 79.4631 183.076 79.4631C184.289 79.4631 185.006 78.5385 185.006 76.9739C185.006 75.6442 185.08 75.5617 187.38 74.3109L189.753 73.0203L193.972 74.4776C201.252 76.9917 201.125 77.1867 189.658 81.1055C187.672 81.7842 184.745 82.8233 183.153 83.4142C177.584 85.4816 177.748 85.488 171.815 82.9917C159.428 77.7805 149.655 67.7345 146.775 57.2539C146.561 56.4721 146.174 55.1129 145.916 54.2334C145.296 52.1184 145.293 43.9287 145.911 41.7963C146.166 40.9168 146.532 39.6375 146.725 38.9535C147.096 37.6398 147.156 37.4884 148.581 34.2082C153.515 22.8594 167.485 12.8447 182.432 9.94079C188.27 8.80688 200.377 8.49879 203.848 9.3964ZM196.201 19.7967C197.023 22.0414 195.372 24.7325 193.885 23.5737C193.353 23.1594 193.304 20.695 193.809 19.7413C194.309 18.7982 195.849 18.8337 196.201 19.7967ZM219.221 23.6824C221.147 25.2136 222.049 28.0198 222.129 32.7349C222.169 35.0802 222.364 37.7187 222.561 38.5981C224.364 46.613 223.817 49.8005 220.454 50.879C220.104 50.9912 219.817 51.2151 219.817 51.3764C219.817 51.9876 221.005 52.0953 221.817 51.5577C222.922 50.8257 223.874 51.1647 224.548 52.5299C226.219 55.9146 223.848 59.5519 219.883 59.6855L218.235 59.7413L218.288 58.3199C218.494 52.7946 218.901 47.5995 219.151 47.2786C220.21 45.9204 218.658 42.8676 213.224 35.6221C210.022 31.3519 210.008 31.3043 211.067 28.4434C212.671 24.1096 216.757 21.7241 219.221 23.6824ZM202.031 23.8892C203.378 24.4112 202.136 25.8056 200.325 25.8056C199.032 25.8056 199.209 26.4499 200.539 26.5828C202.132 26.7416 202.277 27.5824 200.712 27.5824C199.107 27.5824 198.368 27.8869 198.368 28.5482C198.368 28.9707 198.637 29.0318 199.65 28.8399C200.548 28.6697 201.02 28.7376 201.227 29.0667C201.76 29.9163 201.552 30.0698 199.862 30.0751C197.731 30.0822 196.86 30.5801 197.761 31.2766C198.349 31.7318 198.342 31.7705 197.636 31.9571C196.264 32.3195 197.093 33.0984 198.733 32.9879C200.755 32.8515 201.403 33.1027 200.829 33.8013C200.592 34.0899 200.255 34.237 200.081 34.1282C199.621 33.8411 195.907 34.679 195.907 35.0699C195.907 35.2515 196.926 35.4 198.171 35.4C201.739 35.4 201.716 36.2809 198.141 36.5816C197.146 36.6654 196.14 36.8534 195.905 36.9998C195.095 37.5062 196.306 37.8309 198.25 37.6284C199.785 37.4681 200.126 37.5317 200.126 37.9773C200.126 38.6998 199.38 38.9535 197.255 38.9535C194.931 38.9535 195.127 39.7672 197.516 40.038C199.425 40.2544 199.077 40.5575 196.522 40.9033C194.028 41.2405 194.365 42.0194 196.913 41.8048C197.471 41.7579 197.69 41.8908 197.581 42.2099C197.483 42.4977 197.007 42.6441 196.372 42.5812C195.796 42.5244 194.862 42.6722 194.297 42.9096L193.269 43.341L194.5 43.546C196.323 43.8495 196.123 44.7513 194.21 44.8508C191.844 44.9738 191.868 46.0416 194.236 46.0551C195.229 46.0604 195.517 46.5334 194.8 46.9808C194.578 47.1194 193.562 47.205 192.54 47.1713C191.519 47.1379 190.584 47.2736 190.461 47.4737C190.335 47.6808 190.588 47.8397 191.051 47.8425C193.454 47.8589 192.749 49.2479 190.277 49.3659C188.855 49.4341 188.759 49.3666 187.32 47.3088C184.574 43.3797 182.878 43.1985 179.27 46.4478C177.002 48.491 176.769 48.4629 175.563 46C174.779 44.3978 174.739 44.5865 176.816 40.0195C180.988 30.8462 185.829 26.2161 192.078 25.4243C195.728 24.9617 200.925 24.0509 201.137 23.8367C201.342 23.6295 201.365 23.6306 202.031 23.8892ZM205.231 26.398C205.813 27.2963 205.814 27.3688 205.236 27.7956C204.488 28.3489 204.821 28.9999 205.861 29.0144C206.614 29.0251 206.615 29.0343 205.928 29.4224C205.541 29.6405 205.15 29.8843 205.059 29.9639C204.736 30.2457 205.943 30.7702 206.983 30.799C207.998 30.8274 208.007 30.8434 207.247 31.214C205.938 31.8519 206.272 32.5572 207.883 32.5572C208.798 32.5572 209.227 32.6923 209.08 32.9335C208.953 33.1407 208.509 33.2829 208.092 33.2495C206.639 33.134 206.104 33.2711 206.104 33.7594C206.104 34.0298 206.425 34.3357 206.817 34.4395C207.209 34.5433 207.486 34.8418 207.433 35.1029C207.366 35.4228 207.851 35.6409 208.917 35.771C210.411 35.9537 207.599 36.3662 203.291 36.5968C202.132 36.6587 202.137 35.9998 203.35 28.0266C203.776 25.2254 204.221 24.8402 205.231 26.398ZM200.829 31.4912C201.225 31.7495 201.049 31.8355 200.126 31.8355C199.203 31.8355 199.027 31.7495 199.423 31.4912C199.713 31.3018 200.029 31.1469 200.126 31.1469C200.223 31.1469 200.539 31.3018 200.829 31.4912ZM215.357 40.8496C218.219 45.1898 218.434 45.6944 217.881 46.7765C217.609 47.3066 217.275 50.067 217.071 53.4666C216.666 60.2342 216.931 59.7452 213.738 59.6137C210.333 59.473 210.323 59.4602 210.323 55.0621C210.323 49.9902 209.368 48.9484 205.668 49.9867C203.865 50.4927 203.642 51.1113 203.642 55.6076C203.642 60.1613 203.878 59.9193 199.561 59.8081C195.591 59.7058 195.295 59.2623 194.652 52.4567L194.434 50.1469L196.219 47.5934C197.2 46.1887 198.298 44.5097 198.659 43.8623C202.154 37.5868 201.958 37.8022 204.056 37.9546L205.576 38.0651L205.684 40.0195C205.815 42.3915 206.011 42.6267 207.434 42.125C208.566 41.7266 209.322 39.903 208.746 38.961C208.238 38.1309 209.198 37.7094 211.325 37.8292L213.443 37.9482L215.357 40.8496ZM171.455 44.251C172.103 44.5072 172.087 44.5619 171.194 45.1532C169.917 45.9993 170.312 46.4691 172.064 46.1859C173.202 46.0018 173.463 46.0565 173.334 46.4517C173.245 46.7249 172.67 46.9989 172.057 47.06C170.779 47.1876 170.476 48.1925 171.714 48.1925C172.316 48.1925 172.394 48.2874 172.066 48.6189C171.834 48.8535 171.644 49.2532 171.644 49.5073C171.644 50.0755 173.114 50.1189 173.66 49.5667C174.105 49.1164 175.16 49.3915 175.16 49.9582C175.16 50.1597 174.705 50.3246 174.148 50.3246C172.389 50.3246 171.481 53.3415 173.164 53.5938C174.162 53.7434 174.306 54.5103 173.362 54.6503C172.288 54.8095 172.141 55.5137 173.124 55.7945L173.93 56.0247L172.925 56.8609C172.243 57.4284 172.053 57.7805 172.333 57.9557C172.561 58.0978 172.657 58.4493 172.548 58.7371C172.439 59.0246 172.514 59.5704 172.715 59.9499C172.998 60.4833 172.958 60.688 172.538 60.8507C171.886 61.1037 171.822 61.9192 172.435 62.1762C172.74 62.3044 172.636 62.5731 172.092 63.0553C171.316 63.7443 171.315 63.7511 172.032 63.9405C172.993 64.1945 172.823 65.7424 171.82 65.875C170.709 66.0217 167.517 63.9515 166.356 62.33C161.497 55.5518 165.363 41.8439 171.455 44.251ZM201.033 44.3967C200.512 44.7819 200.44 45.1415 200.644 46.3575C201.085 48.9992 203.006 49.0187 203.392 46.3852C203.675 44.4589 202.402 43.3854 201.033 44.3967ZM206.575 44.1938C205.793 44.7112 205.849 48.0017 206.642 48.1058C207.822 48.2604 208.264 47.668 208.328 45.8451C208.391 44.0637 207.723 43.4348 206.575 44.1938ZM212.345 44.1671C210.9 44.5634 211.81 48.4924 213.358 48.5365C213.952 48.5536 214.609 46.6624 214.48 45.3032C214.364 44.0751 213.792 43.7702 212.345 44.1671ZM182.417 46.6016C181.736 47.1048 181.658 48.071 182.281 48.2828C182.624 48.3997 182.616 48.5607 182.241 49.0191C181.443 49.9966 182.689 50.1629 184.176 49.2767C185.041 48.7604 185.577 48.6275 185.816 48.8695C186.314 49.3726 185.67 50.0684 184.144 50.6732C182.544 51.3075 182.421 52.2861 183.981 51.9709C184.577 51.8505 185.515 51.428 186.066 51.0317C186.792 50.509 187.137 50.427 187.324 50.7322C187.613 51.2048 186.099 52.5626 184.571 53.2022C184.037 53.4261 183.599 53.8294 183.599 54.0988C183.599 54.9555 184.949 54.6293 186.717 53.3451C188.491 52.0576 188.874 51.8903 188.874 52.4023C188.874 53.0729 187.494 54.2459 186.46 54.4548C185.853 54.5774 185.358 54.8976 185.358 55.1662C185.358 55.8421 187.608 55.8066 188.171 55.1218C188.668 54.5163 189.434 54.4232 189.745 54.9306C189.972 55.302 187.482 56.7209 186.602 56.7209C186.305 56.7209 186.061 56.9607 186.061 57.2539C186.061 57.5957 186.408 57.7908 187.028 57.7983C187.907 57.8086 187.939 57.8523 187.38 58.2816C185.867 59.4418 186.965 59.8273 189.489 59.0224C190.872 58.5811 190.346 59.43 188.874 60.0142C187.303 60.6375 187.013 61.3404 188.326 61.3404C188.798 61.3404 189.282 61.5003 189.401 61.6957C189.521 61.8912 189.451 62.0511 189.246 62.0511C188.705 62.0511 188.79 62.6264 189.426 63.2696C189.929 63.777 189.913 63.8278 189.25 63.8278C188.85 63.8278 188.522 63.9771 188.522 64.1594C188.522 64.5911 189.819 65.004 190.277 64.7183C190.472 64.5964 190.632 64.6487 190.632 64.8349C190.632 65.3622 189.673 65.6063 188.518 65.3729C187.623 65.1916 187.467 65.2687 187.467 65.8945C187.467 66.2982 187.298 66.7342 187.092 66.8632C186.885 66.9922 186.8 67.3173 186.901 67.5856C187.003 67.8539 186.883 68.1975 186.635 68.3493C186.387 68.501 186.081 68.9064 185.956 69.2501C185.831 69.594 185.54 69.8339 185.31 69.7831C185.081 69.7326 184.776 70.0908 184.633 70.5794C184.49 71.068 184.357 71.3281 184.338 71.1579C184.319 70.9874 184.067 71.0453 183.779 71.2869C183.491 71.5286 183.335 71.8569 183.433 72.0164C183.705 72.4613 183.099 72.7026 182.558 72.3647C182.239 72.1653 181.875 72.3196 181.47 72.8241C180.382 74.1826 177.099 71.4966 175.26 67.7427C173.141 63.4192 174.971 52.9695 178.595 48.6943C179.806 47.2668 182.688 45.2527 182.844 45.7254C182.926 45.9734 182.734 46.3675 182.417 46.6016ZM193.007 51.6572C193.77 54.3482 194.232 58.5548 193.812 58.9798C193.315 59.4823 192.893 58.881 192.352 56.8985C192.138 56.1168 191.664 54.6961 191.298 53.742C190.518 51.7098 190.487 51.3242 191.054 50.751C191.864 49.9327 192.617 50.2823 193.007 51.6572ZM174.457 51.746C174.457 51.9414 174.299 52.1013 174.105 52.1013C173.912 52.1013 173.754 51.9414 173.754 51.746C173.754 51.5506 173.912 51.3907 174.105 51.3907C174.299 51.3907 174.457 51.5506 174.457 51.746ZM192.039 60.6172C192.039 61.1204 190.682 61.7689 190.226 61.4839C189.978 61.3294 190.143 61.0661 190.673 60.7693C191.686 60.2019 192.039 60.1624 192.039 60.6172ZM192.039 62.8979C192.039 62.9728 191.643 63.1107 191.16 63.2042C190.676 63.2976 190.28 63.2362 190.28 63.0677C190.28 62.8996 190.676 62.7618 191.16 62.7618C191.643 62.7618 192.039 62.8232 192.039 62.8979ZM191.943 66.8852C191.827 67.0032 191.523 67.016 191.27 66.9133C190.989 66.7999 191.072 66.7157 191.482 66.6987C191.853 66.6834 192.06 66.7672 191.943 66.8852ZM188.331 71.6209C188.443 71.8029 188.4 72.0349 188.237 72.1369C187.823 72.396 186.413 71.9841 186.413 71.6039C186.413 71.1853 188.074 71.1999 188.331 71.6209ZM330.216 87.5473C329.593 89.0621 328.629 91.3047 328.073 92.531C327.519 93.7573 327.064 94.8376 327.064 94.9314C327.064 95.0252 326.669 95.9306 326.185 96.9434C325.702 97.9561 325.306 98.9038 325.306 99.0488C325.306 99.1941 324.847 100.323 324.286 101.559C323.725 102.794 322.043 106.683 320.548 110.201C319.052 113.719 317.201 118.036 316.433 119.795C315.666 121.554 314.661 123.902 314.201 125.013C313.74 126.124 312.886 128.087 312.303 129.375C311.719 130.663 311.241 131.807 311.241 131.917C311.241 132.027 310.766 133.154 310.186 134.42C309.606 135.687 309.131 136.788 309.131 136.868C309.131 136.947 308.657 138.059 308.076 139.339C307.496 140.619 307.021 141.731 307.021 141.81C307.021 141.888 306.498 143.123 305.858 144.555C305.218 145.986 304.395 147.876 304.028 148.756C299.714 159.106 294.116 166.567 288.561 169.368C284.024 171.657 284.069 171.664 302.362 171.768C320.929 171.874 322.197 171.665 315.516 169.599C307.7 167.184 303.568 160.623 305.922 154.369C306.091 153.92 306.512 152.674 306.858 151.599C307.203 150.524 307.856 148.815 308.308 147.801C308.761 146.788 309.131 145.869 309.131 145.76C309.131 145.65 309.68 144.359 310.352 142.89L311.572 140.22L326.615 140.312L341.657 140.405L343.308 144.314C345.308 149.048 345.657 149.871 347.302 153.731C352.414 165.727 351.119 168.975 340.69 170.309C332.68 171.333 338.808 171.853 358.887 171.853C380.225 171.853 382.172 171.663 377.259 170.057C373.942 168.973 370.907 166.662 368.96 163.74C367.856 162.084 362.931 152.306 362.931 151.771C362.931 151.686 362.439 150.533 361.838 149.209C361.236 147.885 360.462 146.082 360.117 145.202C359.772 144.323 359.097 142.724 358.617 141.649C356.276 136.406 354.843 133.104 354.843 132.952C354.843 132.794 354.481 131.962 352.247 126.981C351.741 125.852 351.327 124.857 351.327 124.769C351.327 124.682 350.838 123.527 350.241 122.203C348.958 119.357 349.28 120.099 343.943 107.713C342.174 103.609 340.501 99.7314 340.225 99.096C339.385 97.1644 338.803 95.786 337.259 92.0779C334.118 84.5328 334.28 84.7933 332.728 84.7933H331.35L330.216 87.5473ZM20.6797 86.8053C19.9975 87.4943 20.507 88.2661 21.7796 88.4719C27.9858 89.4747 31.3548 93.8053 32.0166 101.632C32.9255 112.382 32.4083 159.12 31.3516 161.726C31.1931 162.117 30.8611 162.978 30.6143 163.639C29.6476 166.226 26.9528 168.34 22.8169 169.755C17.0368 171.733 18.0945 171.853 41.1895 171.853C62.1997 171.853 66.7878 171.497 60.9687 170.317C54.3524 168.974 50.6072 166.654 48.6898 162.708L47.6947 160.66V143.426V126.191L51.3337 126.09C63.21 125.758 68.0069 129.124 70.7208 139.694L71.6329 143.248H72.8499H74.0669L74.1583 126.855L74.2497 110.463L73.326 110.284C72.313 110.088 71.078 111.032 71.078 112.002C71.078 114.424 67.8733 119.406 65.1418 121.23C62.4149 123.051 50.4965 125.058 48.0484 124.109C47.1289 123.753 47.4285 97.8303 48.3814 95.2885C50.5158 89.5958 57.6479 87.3028 67.9134 89.0088C77.0965 90.535 83.7757 96.6168 87.285 106.647C88.3613 109.724 88.3142 109.668 89.8051 109.668H91.2173L90.9585 107.269C90.8161 105.95 90.578 103.511 90.4296 101.85C89.7605 94.3628 89.3037 89.824 89.0709 88.3468L88.8191 86.7477L54.8672 86.6571C36.1939 86.6074 20.8094 86.6738 20.6797 86.8053ZM328.386 109.514C329.229 111.455 330.215 113.783 330.578 114.687C331.22 116.283 331.87 117.78 333.61 121.67C334.071 122.702 334.449 123.675 334.449 123.832C334.449 123.99 334.972 125.225 335.613 126.577C341.623 139.261 342.536 138.094 326.619 138.069C310.966 138.044 312.098 138.433 314.138 133.773C315.022 131.753 317.285 126.422 319.167 121.927C321.049 117.432 323.042 112.751 323.596 111.524C324.15 110.298 324.603 109.239 324.603 109.171C324.603 105.381 326.674 105.569 328.386 109.514ZM104.307 119.723C99.5502 120.539 96.7516 121.601 93.2307 123.926C77.5266 134.293 77.6465 161.949 93.4318 170.29C95.3053 171.28 96.5585 171.754 100.615 173.007C106.242 174.746 117.197 172.864 123.116 169.142C129.437 165.167 132.134 162.223 130.904 160.642L130.249 159.801L128.179 161.753C125.778 164.017 121.918 166.667 119.826 167.487C119.027 167.801 118.211 168.181 118.014 168.332C117.149 168.994 112.942 169.425 110.731 169.077C102.288 167.748 96.7037 159.355 95.8848 146.763C95.5968 142.332 93.7701 142.736 114.536 142.629L132.437 142.537L132.334 140.761C131.511 126.619 118.971 117.206 104.307 119.723ZM167.559 119.794C164.569 120.748 162.277 122.942 160.038 126.997C158.772 129.29 158.47 128.764 158.358 124.078L158.259 119.891L156.073 120.093C154.871 120.204 152.621 120.447 151.074 120.633C149.527 120.819 146.204 121.158 143.69 121.387C138.193 121.887 134.67 123.526 139.093 123.526C144.194 123.526 145.02 127.125 144.841 148.578C144.684 167.335 144.519 168.103 140.278 169.873C135.618 171.819 135.826 171.853 152.137 171.853C165.36 171.853 166.776 171.798 166.583 171.291C166.466 170.982 166.37 170.662 166.37 170.581C166.37 170.499 165.972 170.432 165.486 170.432C165 170.432 164.327 170.291 163.991 170.118C163.655 169.946 162.93 169.59 162.379 169.329C158.601 167.535 158.281 165.971 158.285 149.265L158.287 135.786L160.57 131.522C166.795 119.892 174.604 118.325 171.32 129.364C169.368 135.925 171.051 139.872 175.8 139.872C179.925 139.872 181.841 137.401 181.841 132.083C181.841 128.902 181.7 128.277 180.325 125.373C178.043 120.549 172.621 118.18 167.559 119.794ZM219.993 119.727C214.619 120.606 211.483 122.321 207.028 126.816C203.865 130.009 203.75 129.929 203.75 124.535L203.749 120.15L201.85 120.19C200.805 120.212 198.526 120.404 196.786 120.616C192.434 121.149 186.12 121.794 184.753 121.846C182.732 121.924 183.023 123.168 185.182 123.677C190.108 124.841 190.281 125.619 190.278 146.69C190.276 167.747 190.283 167.708 186.176 169.69C185.242 170.141 184.251 170.623 183.972 170.763C182.026 171.735 183.408 171.853 196.756 171.853C204.218 171.853 210.442 171.853 210.587 171.853C211.574 171.853 210.617 170.636 209.268 170.177C204.116 168.423 203.549 166.054 203.713 146.96L203.818 134.681L206.218 131.773C213.516 122.932 220.005 120.863 224.321 125.999C226.551 128.653 226.936 132.41 226.776 150C226.615 167.903 226.434 168.619 221.708 170.142C217.115 171.621 218.745 171.853 233.71 171.853C247.435 171.853 248.823 171.738 246.872 170.763C246.593 170.623 245.622 170.151 244.713 169.714C240.543 167.705 240.478 167.406 240.294 149.372L240.141 134.53L242.173 132.021C250.743 121.435 259.023 120.35 262.256 129.389C263.195 132.014 263.232 164.198 262.298 166.193C261.561 167.768 259.626 169.721 258.802 169.721C258.464 169.721 258.089 169.881 257.969 170.077C257.85 170.272 257.366 170.432 256.894 170.432C256.27 170.432 256.035 170.626 256.035 171.143C256.035 171.841 256.27 171.853 269.954 171.853C283.649 171.853 285.045 171.738 283.09 170.764C282.811 170.625 281.706 170.091 280.634 169.578C278.67 168.638 277.833 167.657 277.029 165.353C276.771 164.614 276.554 158.836 276.413 148.934C276.148 130.277 275.815 128.624 271.432 124.195C267.334 120.053 257.618 118.019 253.139 120.364C252.803 120.539 252.372 120.683 252.182 120.683C251.802 120.683 247.987 122.45 247.42 122.888C245.265 124.553 240.692 129.084 240.102 130.138C239.685 130.884 239.262 130.468 238.126 128.194C234.892 121.72 227.868 118.439 219.993 119.727ZM109.809 121.548C115.727 123.363 118.154 127.329 118.873 136.36C119.275 141.418 120.5 140.949 107.132 140.847L95.8911 140.761L95.9836 138.984C96.4713 129.584 100.135 123.174 105.918 121.603C108.3 120.956 107.899 120.962 109.809 121.548ZM0.11217 198.949L0.224694 199.748L44.53 199.832C88.3779 199.916 299.565 200.392 299.126 199.235C298.93 198.718 85.3468 198.149 44.6925 198.149H0L0.11217 198.949ZM299.399 198.718C298.96 199.875 300.622 199.916 344.47 199.832L388.775 199.748L388.888 198.949L389 198.149H344.308C303.653 198.149 299.596 198.201 299.399 198.718Z" fill="black"/>
</svg>
