<svg width="361" height="113" viewBox="0 0 361 113" fill="none" xmlns="http://www.w3.org/2000/svg">
<path d="M4.47035e-08 43V42.1L3.6 41.2V2.8L4.47035e-08 1.9V0.999997H17.1V1.9L13.5 2.8V33.1L27.6 7.3V2.8L24 1.9V0.999997H41.1V1.9L37.5 2.8V41.2L41.1 42.1V43H24V42.1L27.6 41.2V10.9L13.5 36.7V41.2L17.1 42.1V43H4.47035e-08ZM60.6094 43.9C57.7294 43.9 55.1294 43.32 52.8094 42.16C50.5294 40.96 48.7494 39.38 47.4694 37.42C46.2294 35.46 45.6094 33.32 45.6094 31H47.1094C47.1094 33 47.6494 34.88 48.7294 36.64C49.8494 38.36 51.3494 39.76 53.2294 40.84C55.1094 41.88 57.1694 42.4 59.4094 42.4C62.4494 42.4 64.8094 41.52 66.4894 39.76C68.1694 38 69.0094 35.48 69.0094 32.2C69.0094 28.84 68.2294 26.26 66.6694 24.46C65.1094 22.62 63.0894 21.7 60.6094 21.7H56.1094V20.2H60.0094C62.2094 20.2 63.9494 19.42 65.2294 17.86C66.5494 16.26 67.2094 13.94 67.2094 10.9C67.2094 7.86 66.5694 5.56 65.2894 4C64.0094 2.4 62.3494 1.6 60.3094 1.6C58.5494 1.6 56.9694 2.1 55.5694 3.1C54.2094 4.1 53.0694 5.36 52.1494 6.88C51.1494 8.44 50.3694 10.18 49.8094 12.1H47.4094V0.699997H48.9094C48.9894 0.739997 49.3894 1.02 50.1094 1.54C50.8294 2.14 51.5294 2.96 52.2094 4C53.0894 3.2 53.9694 2.56 54.8494 2.08C57.0894 0.759998 59.3094 0.099998 61.5094 0.099998C64.8694 0.099998 67.7494 0.619998 70.1494 1.66C72.5494 2.66 74.3494 3.98 75.5494 5.62C76.7894 7.26 77.4094 9.02 77.4094 10.9C77.4094 14.98 75.2094 17.86 70.8094 19.54C68.8894 20.26 66.6894 20.68 64.2094 20.8V21.1C66.9294 21.22 69.4294 21.68 71.7094 22.48C76.7094 24.44 79.2094 27.68 79.2094 32.2C79.2094 34.4 78.5494 36.38 77.2294 38.14C75.9494 39.9 73.9094 41.3 71.1094 42.34C68.3494 43.38 64.8494 43.9 60.6094 43.9ZM100.84 42.1L104.44 41.2V2.8L100.84 1.9V0.999997H117.94V1.9L114.34 2.8V19.9H117.34C120.34 19.9 122.34 18 123.34 14.2L125.44 6.4C125.92 4.56 126.7 3.1 127.78 2.02C128.9 0.939998 130.22 0.399998 131.74 0.399998C133.5 0.399998 134.94 0.919998 136.06 1.96C137.18 2.96 137.74 4.24 137.74 5.8C137.74 7.32 137.28 8.56 136.36 9.52C135.44 10.44 134.3 10.9 132.94 10.9C132.38 10.9 131.82 10.86 131.26 10.78L130.54 10.6V2.2C129.86 2.36 129.22 2.82 128.62 3.58C128.02 4.3 127.56 5.24 127.24 6.4L125.14 14.2C124.54 16.4 123.74 18 122.74 19C122.3 19.48 121.8 19.88 121.24 20.2H122.74C127.62 20.2 130.62 21.9 131.74 25.3L137.14 41.2L140.14 42.1V43H132.94C130.82 43 129.18 42.56 128.02 41.68C126.86 40.8 126 39.54 125.44 37.9L119.74 21.4H114.34V41.2L117.94 42.1V43H100.84V42.1ZM139.237 42.1L144.038 40.3L160.538 0.399998H162.338L179.438 41.2L182.438 42.1V43H175.238C173.158 43 171.458 42.54 170.138 41.62C168.818 40.66 167.838 39.42 167.198 37.9L164.138 30.7H149.798L145.838 40.3L150.338 42.1V43H139.237V42.1ZM150.398 29.2H163.538L156.938 13.42L150.398 29.2ZM184.219 42.1L187.819 41.2V2.8L184.219 1.9V0.999997H201.319V1.9L197.719 2.8V19.9H200.719C203.719 19.9 205.719 18 206.719 14.2L208.819 6.4C209.299 4.56 210.079 3.1 211.159 2.02C212.279 0.939998 213.599 0.399998 215.119 0.399998C216.879 0.399998 218.319 0.919998 219.439 1.96C220.559 2.96 221.119 4.24 221.119 5.8C221.119 7.32 220.659 8.56 219.739 9.52C218.819 10.44 217.679 10.9 216.319 10.9C215.759 10.9 215.199 10.86 214.639 10.78L213.919 10.6V2.2C213.239 2.36 212.599 2.82 211.999 3.58C211.399 4.3 210.939 5.24 210.619 6.4L208.519 14.2C207.919 16.4 207.119 18 206.119 19C205.679 19.48 205.179 19.88 204.619 20.2H206.119C210.999 20.2 213.999 21.9 215.119 25.3L220.519 41.2L223.519 42.1V43H216.319C214.199 43 212.559 42.56 211.399 41.68C210.239 40.8 209.379 39.54 208.819 37.9L203.119 21.4H197.719V41.2L201.319 42.1V43H184.219V42.1ZM244.845 43.9C240.925 43.9 237.485 43.06 234.525 41.38C231.605 39.66 229.345 37.16 227.745 33.88C226.145 30.6 225.345 26.64 225.345 22C225.345 17.36 226.145 13.4 227.745 10.12C229.345 6.84 231.605 4.36 234.525 2.68C237.485 0.959998 240.925 0.099998 244.845 0.099998C248.765 0.099998 252.185 0.959998 255.105 2.68C258.065 4.36 260.345 6.84 261.945 10.12C263.545 13.4 264.345 17.36 264.345 22C264.345 26.64 263.545 30.6 261.945 33.88C260.345 37.16 258.065 39.66 255.105 41.38C252.185 43.06 248.765 43.9 244.845 43.9ZM244.845 42.7C246.405 42.7 247.845 42.04 249.165 40.72C250.525 39.4 251.645 37.2 252.525 34.12C253.405 31.04 253.845 27 253.845 22C253.845 17 253.405 12.96 252.525 9.88C251.645 6.8 250.525 4.6 249.165 3.28C247.845 1.96 246.405 1.3 244.845 1.3C243.285 1.3 241.825 1.96 240.465 3.28C239.145 4.6 238.045 6.8 237.165 9.88C236.285 12.96 235.845 17 235.845 22C235.845 27 236.285 31.04 237.165 34.12C238.045 37.2 239.145 39.4 240.465 40.72C241.825 42.04 243.285 42.7 244.845 42.7ZM270.059 42.1L273.659 41.2V2.8L270.059 1.9V0.999997H302.159V11.8H300.359C299.599 11.2 298.939 10.44 298.379 9.52C297.099 7.36 296.459 5.02 296.459 2.5H283.559V41.2L287.159 42.1V43H270.059V42.1ZM324.708 43.9C320.788 43.9 317.348 43.06 314.388 41.38C311.468 39.66 309.208 37.16 307.608 33.88C306.008 30.6 305.208 26.64 305.208 22C305.208 17.36 306.008 13.4 307.608 10.12C309.208 6.84 311.468 4.36 314.388 2.68C317.348 0.959998 320.788 0.099998 324.708 0.099998C328.628 0.099998 332.048 0.959998 334.968 2.68C337.928 4.36 340.208 6.84 341.808 10.12C343.408 13.4 344.208 17.36 344.208 22C344.208 26.64 343.408 30.6 341.808 33.88C340.208 37.16 337.928 39.66 334.968 41.38C332.048 43.06 328.628 43.9 324.708 43.9ZM324.708 42.7C326.268 42.7 327.708 42.04 329.028 40.72C330.388 39.4 331.508 37.2 332.388 34.12C333.268 31.04 333.708 27 333.708 22C333.708 17 333.268 12.96 332.388 9.88C331.508 6.8 330.388 4.6 329.028 3.28C327.708 1.96 326.268 1.3 324.708 1.3C323.148 1.3 321.688 1.96 320.328 3.28C319.008 4.6 317.908 6.8 317.028 9.88C316.148 12.96 315.708 17 315.708 22C315.708 27 316.148 31.04 317.028 34.12C317.908 37.2 319.008 39.4 320.328 40.72C321.688 42.04 323.148 42.7 324.708 42.7ZM4.47035e-08 111.1L3.6 110.2V71.8L4.47035e-08 70.9V70H16.8C23.44 70 28.2 71.1 31.08 73.3C33.96 75.46 35.4 78.66 35.4 82.9C35.4 87.14 33.96 90.36 31.08 92.56C28.2 94.72 23.44 95.8 16.8 95.8H13.5V110.2L17.1 111.1V112H4.47035e-08V111.1ZM16.8 94.3C19.32 94.3 21.34 93.34 22.86 91.42C24.42 89.5 25.2 86.66 25.2 82.9C25.2 79.18 24.42 76.36 22.86 74.44C21.34 72.48 19.32 71.5 16.8 71.5H13.5V94.3H16.8ZM40.4883 111.1L44.0883 110.2V71.8L40.4883 70.9V70H72.5883V80.8H70.7883C70.0283 80.2 69.3683 79.44 68.8083 78.52C67.5283 76.36 66.8883 74.02 66.8883 71.5H53.9883V90.4H60.8883C61.1683 88.88 61.6883 87.46 62.4483 86.14C62.7683 85.54 63.1483 84.96 63.5883 84.4H65.3883V97.9H63.5883C63.1483 97.34 62.7683 96.76 62.4483 96.16C61.6883 94.84 61.1683 93.42 60.8883 91.9H53.9883V110.5H68.0883C68.0883 107.98 68.7283 105.64 70.0083 103.48C70.5683 102.56 71.2283 101.8 71.9883 101.2H73.7883V112H40.4883V111.1ZM98.6742 112.9C92.2742 112.9 87.2742 111 83.6742 107.2C80.0742 103.4 78.2742 98 78.2742 91C78.2742 86.4 79.0542 82.46 80.6142 79.18C82.2142 75.86 84.4342 73.36 87.2742 71.68C90.1542 69.96 93.4742 69.1 97.2342 69.1C99.5142 69.1 101.814 69.76 104.134 71.08C105.014 71.56 105.894 72.2 106.774 73C107.454 71.96 108.154 71.14 108.874 70.54C109.594 70.02 109.994 69.74 110.074 69.7H111.574V81.1H109.174C108.654 79.18 107.874 77.44 106.834 75.88C105.874 74.36 104.674 73.1 103.234 72.1C101.834 71.1 100.214 70.6 98.3742 70.6C95.6142 70.6 93.3142 72.2 91.4742 75.4C89.6742 78.6 88.7742 83.8 88.7742 91C88.7742 98.32 89.7542 103.56 91.7142 106.72C93.7142 109.84 96.4342 111.4 99.8742 111.4C101.754 111.4 103.534 110.88 105.214 109.84C106.934 108.76 108.314 107.34 109.354 105.58C110.434 103.82 110.974 101.96 110.974 100H112.474C112.474 102.28 111.854 104.42 110.614 106.42C109.414 108.38 107.754 109.96 105.634 111.16C103.554 112.32 101.234 112.9 98.6742 112.9ZM125.098 111.1L128.698 110.2V71.5H121.798C121.798 73.94 121.138 76.28 119.818 78.52C119.258 79.44 118.618 80.2 117.898 80.8H116.098V70H151.198V80.8H149.398C148.638 80.2 147.978 79.44 147.418 78.52C146.138 76.36 145.498 74.02 145.498 71.5H138.598V110.2L142.198 111.1V112H125.098V111.1ZM173.712 112.9C169.792 112.9 166.352 112.06 163.392 110.38C160.472 108.66 158.212 106.16 156.612 102.88C155.012 99.6 154.212 95.64 154.212 91C154.212 86.36 155.012 82.4 156.612 79.12C158.212 75.84 160.472 73.36 163.392 71.68C166.352 69.96 169.792 69.1 173.712 69.1C177.632 69.1 181.052 69.96 183.972 71.68C186.932 73.36 189.212 75.84 190.812 79.12C192.412 82.4 193.212 86.36 193.212 91C193.212 95.64 192.412 99.6 190.812 102.88C189.212 106.16 186.932 108.66 183.972 110.38C181.052 112.06 177.632 112.9 173.712 112.9ZM173.712 111.7C175.272 111.7 176.712 111.04 178.032 109.72C179.392 108.4 180.512 106.2 181.392 103.12C182.272 100.04 182.712 96 182.712 91C182.712 86 182.272 81.96 181.392 78.88C180.512 75.8 179.392 73.6 178.032 72.28C176.712 70.96 175.272 70.3 173.712 70.3C172.152 70.3 170.692 70.96 169.332 72.28C168.012 73.6 166.912 75.8 166.032 78.88C165.152 81.96 164.712 86 164.712 91C164.712 96 165.152 100.04 166.032 103.12C166.912 106.2 168.012 108.4 169.332 109.72C170.692 111.04 172.152 111.7 173.712 111.7ZM198.926 111.1L202.526 110.2V71.8L198.926 70.9V70H215.726C222.366 70 227.126 71.1 230.006 73.3C232.886 75.46 234.326 78.66 234.326 82.9C234.326 87.14 232.886 90.36 230.006 92.56C227.126 94.72 222.366 95.8 215.726 95.8H212.426V110.2L216.026 111.1V112H198.926V111.1ZM215.726 94.3C218.246 94.3 220.266 93.34 221.786 91.42C223.346 89.5 224.126 86.66 224.126 82.9C224.126 79.18 223.346 76.36 221.786 74.44C220.266 72.48 218.246 71.5 215.726 71.5H212.426V94.3H215.726ZM230.995 111.1L235.795 109.3L252.295 69.4H254.095L271.195 110.2L274.195 111.1V112H266.995C264.915 112 263.215 111.54 261.895 110.62C260.575 109.66 259.595 108.42 258.955 106.9L255.895 99.7H241.555L237.595 109.3L242.095 111.1V112H230.995V111.1ZM242.155 98.2H255.295L248.695 82.42L242.155 98.2ZM275.977 112V111.1L279.577 110.2V71.8L275.977 70.9V70H293.077V70.9L289.477 71.8V90.4H302.377V71.8L298.777 70.9V70H315.877V70.9L312.277 71.8V110.2L315.877 111.1V112H298.777V111.1L302.377 110.2V91.9H289.477V110.2L293.077 111.1V112H275.977ZM317.655 111.1L322.455 109.3L338.955 69.4H340.755L357.855 110.2L360.855 111.1V112H353.655C351.575 112 349.875 111.54 348.555 110.62C347.235 109.66 346.255 108.42 345.615 106.9L342.555 99.7H328.215L324.255 109.3L328.755 111.1V112H317.655V111.1ZM328.815 98.2H341.955L335.355 82.42L328.815 98.2Z" fill="#C4C4C4" fill-opacity="0.4"/>
</svg>
