<svg width="397" height="49" viewBox="0 0 397 49" fill="none" xmlns="http://www.w3.org/2000/svg">
<path d="M0.818359 47.95L5.01836 46.9V2.1L0.818359 1.05V-3.33786e-06H19.7184C26.8117 -3.33786e-06 32.015 1.14333 35.3284 3.43C38.6884 5.67 40.3684 8.61 40.3684 12.25C40.3684 14.77 39.645 16.8 38.1984 18.34C36.7517 19.88 34.9084 21.0233 32.6684 21.77C30.2884 22.61 27.7217 23.0533 24.9684 23.1V23.45C28.375 23.59 31.3384 24.1033 33.8584 24.99C36.425 25.83 38.5484 27.1367 40.2284 28.91C41.955 30.6833 42.8184 32.9467 42.8184 35.7C42.8184 39.8533 41.115 43.12 37.7084 45.5C34.3017 47.8333 28.7717 49 21.1184 49H0.818359V47.95ZM19.7184 22.4C21.2584 22.4 22.6817 21.98 23.9884 21.14C25.3417 20.2533 26.415 19.04 27.2084 17.5C28.0484 15.9133 28.4684 14.1633 28.4684 12.25C28.4684 10.1967 28.0484 8.37667 27.2084 6.79C26.415 5.20333 25.3417 3.96667 23.9884 3.08C22.6817 2.19333 21.2584 1.75 19.7184 1.75H16.5684V22.4H19.7184ZM21.1184 47.25C24.0117 47.25 26.3684 46.2233 28.1884 44.17C30.0084 42.1167 30.9184 39.2933 30.9184 35.7C30.9184 32.1067 30.0084 29.2833 28.1884 27.23C26.3684 25.1767 24.0117 24.15 21.1184 24.15H16.5684V47.25H21.1184ZM48.3965 47.95L52.5965 46.9V2.1L48.3965 1.05V-3.33786e-06H68.3465V1.05L64.1465 2.1V19.6H68.6965C76.4432 19.6 81.9965 20.86 85.3565 23.38C88.7165 25.8533 90.3965 29.4933 90.3965 34.3C90.3965 39.1067 88.7165 42.77 85.3565 45.29C81.9965 47.7633 76.4432 49 68.6965 49H48.3965V47.95ZM92.4965 49V47.95L96.6965 46.9V2.1L92.4965 1.05V-3.33786e-06H112.446V1.05L108.246 2.1V46.9L112.446 47.95V49H92.4965ZM68.6965 47.25C71.6365 47.25 73.9932 46.1533 75.7665 43.96C77.5865 41.72 78.4965 38.5 78.4965 34.3C78.4965 30.1 77.5865 26.9033 75.7665 24.71C73.9932 22.47 71.6365 21.35 68.6965 21.35H64.1465V47.25H68.6965ZM119.422 47.95L123.622 46.9V2.1L119.422 1.05V-3.33786e-06H156.522V12.6H154.422C153.535 11.9 152.765 11.0133 152.112 9.94C150.619 7.42 149.872 4.69 149.872 1.75H135.172V20.3H139.022C146.722 20.3 152.252 21.5367 155.612 24.01C159.019 26.4833 160.722 30.03 160.722 34.65C160.722 39.27 159.019 42.8167 155.612 45.29C152.252 47.7633 146.722 49 139.022 49H119.422V47.95ZM139.022 47.25C141.962 47.25 144.319 46.1767 146.092 44.03C147.912 41.8367 148.822 38.71 148.822 34.65C148.822 30.59 147.912 27.4867 146.092 25.34C144.319 23.1467 141.962 22.05 139.022 22.05H135.172V47.25H139.022ZM166.316 47.95L170.516 46.9V2.1L166.316 1.05V-3.33786e-06H203.766V12.6H201.666C200.78 11.9 200.01 11.0133 199.356 9.94C197.863 7.42 197.116 4.69 197.116 1.75H182.066V23.8H190.116C190.443 22.0267 191.05 20.37 191.936 18.83C192.31 18.13 192.753 17.4533 193.266 16.8H195.366V32.55H193.266C192.753 31.8967 192.31 31.22 191.936 30.52C191.05 28.98 190.443 27.3233 190.116 25.55H182.066V47.25H198.516C198.516 44.31 199.263 41.58 200.756 39.06C201.41 37.9867 202.18 37.1 203.066 36.4H205.166V49H166.316V47.95ZM211.434 47.95L215.634 46.9V2.1L211.434 1.05V-3.33786e-06H231.034C238.78 -3.33786e-06 244.334 1.28333 247.694 3.85C251.054 6.37 252.734 10.1033 252.734 15.05C252.734 19.9967 251.054 23.7533 247.694 26.32C244.334 28.84 238.78 30.1 231.034 30.1H227.184V46.9L231.384 47.95V49H211.434V47.95ZM231.034 28.35C233.974 28.35 236.33 27.23 238.104 24.99C239.924 22.75 240.834 19.4367 240.834 15.05C240.834 10.71 239.924 7.42 238.104 5.18C236.33 2.89333 233.974 1.75 231.034 1.75H227.184V28.35H231.034ZM258.67 49V47.95L262.87 46.9V2.1L258.67 1.05V-3.33786e-06H278.62V1.05L274.42 2.1V37.45L290.87 7.35V2.1L286.67 1.05V-3.33786e-06H306.62V1.05L302.42 2.1V46.9L306.62 47.95V49H286.67V47.95L290.87 46.9V11.55L274.42 41.65V46.9L278.62 47.95V49H258.67ZM322.381 47.95L326.581 46.9V1.75H318.531C318.531 4.59667 317.761 7.32666 316.221 9.94C315.568 11.0133 314.821 11.9 313.981 12.6H311.881V-3.33786e-06H352.831V12.6H350.731C349.844 11.9 349.074 11.0133 348.421 9.94C346.928 7.42 346.181 4.69 346.181 1.75H338.131V46.9L342.331 47.95V49H322.381V47.95ZM358.064 47.95L362.264 46.9V2.1L358.064 1.05V-3.33786e-06H395.514V12.6H393.414C392.528 11.9 391.758 11.0133 391.104 9.94C389.611 7.42 388.864 4.69 388.864 1.75H373.814V23.8H381.864C382.191 22.0267 382.798 20.37 383.684 18.83C384.058 18.13 384.501 17.4533 385.014 16.8H387.114V32.55H385.014C384.501 31.8967 384.058 31.22 383.684 30.52C382.798 28.98 382.191 27.3233 381.864 25.55H373.814V47.25H390.264C390.264 44.31 391.011 41.58 392.504 39.06C393.158 37.9867 393.928 37.1 394.814 36.4H396.914V49H358.064V47.95Z" fill="#C4C4C4" fill-opacity="0.4"/>
</svg>
