<svg width="1213" height="74" viewBox="0 0 1213 74" fill="none" xmlns="http://www.w3.org/2000/svg">
<path d="M0.1875 72V70.5L6.1875 69V5L0.1875 3.49999V2H28.6875V3.49999L22.6875 5V55.5L46.1875 12.5V5L40.1875 3.49999V2H68.6875V3.49999L62.6875 5V69L68.6875 70.5V72H40.1875V70.5L46.1875 69V18.5L22.6875 61.5V69L28.6875 70.5V72H0.1875ZM101.203 73.5C96.4031 73.5 92.0698 72.5333 88.2031 70.6C84.4031 68.6 81.4365 65.9667 79.3031 62.7C77.2365 59.4333 76.2031 55.8667 76.2031 52H78.7031C78.7031 55.3333 79.6031 58.4667 81.4031 61.4C83.2698 64.2667 85.7698 66.6 88.9031 68.4C92.0365 70.1333 95.4698 71 99.2031 71C104.27 71 108.203 69.5333 111.003 66.6C113.803 63.6667 115.203 59.4667 115.203 54C115.203 48.4 113.903 44.1 111.303 41.1C108.703 38.0333 105.336 36.5 101.203 36.5H93.7031V34H100.203C103.87 34 106.77 32.7 108.903 30.1C111.103 27.4333 112.203 23.5667 112.203 18.5C112.203 13.4333 111.136 9.6 109.003 7C106.87 4.33333 104.103 2.99999 100.703 2.99999C97.7698 2.99999 95.1365 3.83333 92.8031 5.5C90.5365 7.16666 88.6365 9.26666 87.1031 11.8C85.4365 14.4 84.1365 17.3 83.2031 20.5H79.2031V1.5H81.7031C81.8365 1.56666 82.5031 2.03333 83.7031 2.9C84.9031 3.89999 86.0698 5.26666 87.2031 7C88.6698 5.66666 90.1365 4.6 91.6031 3.8C95.3365 1.6 99.0365 0.499997 102.703 0.499997C108.303 0.499997 113.103 1.36666 117.103 3.1C121.103 4.76666 124.103 6.96666 126.103 9.7C128.17 12.4333 129.203 15.3667 129.203 18.5C129.203 25.3 125.536 30.1 118.203 32.9C115.003 34.1 111.336 34.8 107.203 35V35.5C111.736 35.7 115.903 36.4667 119.703 37.8C128.036 41.0667 132.203 46.4667 132.203 54C132.203 57.6667 131.103 60.9667 128.903 63.9C126.77 66.8333 123.37 69.1667 118.703 70.9C114.103 72.6333 108.27 73.5 101.203 73.5ZM168.254 70.5L174.254 69V5L168.254 3.49999V2H196.754V3.49999L190.754 5V33.5H195.754C200.754 33.5 204.087 30.3333 205.754 24L209.254 11C210.054 7.93333 211.354 5.5 213.154 3.7C215.021 1.9 217.221 0.999996 219.754 0.999996C222.687 0.999996 225.087 1.86666 226.954 3.6C228.821 5.26666 229.754 7.4 229.754 10C229.754 12.5333 228.987 14.6 227.454 16.2C225.921 17.7333 224.021 18.5 221.754 18.5C220.821 18.5 219.887 18.4333 218.954 18.3L217.754 18V4C216.621 4.26666 215.554 5.03333 214.554 6.3C213.554 7.5 212.787 9.06666 212.254 11L208.754 24C207.754 27.6667 206.421 30.3333 204.754 32C204.021 32.8 203.187 33.4667 202.254 34H204.754C212.887 34 217.887 36.8333 219.754 42.5L228.754 69L233.754 70.5V72H221.754C218.221 72 215.487 71.2667 213.554 69.8C211.621 68.3333 210.187 66.2333 209.254 63.5L199.754 36H190.754V69L196.754 70.5V72H168.254V70.5ZM232.25 70.5L240.25 67.5L267.75 0.999996H270.75L299.25 69L304.25 70.5V72H292.25C288.783 72 285.95 71.2333 283.75 69.7C281.55 68.1 279.917 66.0333 278.85 63.5L273.75 51.5H249.85L243.25 67.5L250.75 70.5V72H232.25V70.5ZM250.85 49H272.75L261.75 22.7L250.85 49ZM307.219 70.5L313.219 69V5L307.219 3.49999V2H335.719V3.49999L329.719 5V33.5H334.719C339.719 33.5 343.052 30.3333 344.719 24L348.219 11C349.019 7.93333 350.319 5.5 352.119 3.7C353.985 1.9 356.185 0.999996 358.719 0.999996C361.652 0.999996 364.052 1.86666 365.919 3.6C367.785 5.26666 368.719 7.4 368.719 10C368.719 12.5333 367.952 14.6 366.419 16.2C364.885 17.7333 362.985 18.5 360.719 18.5C359.785 18.5 358.852 18.4333 357.919 18.3L356.719 18V4C355.585 4.26666 354.519 5.03333 353.519 6.3C352.519 7.5 351.752 9.06666 351.219 11L347.719 24C346.719 27.6667 345.385 30.3333 343.719 32C342.985 32.8 342.152 33.4667 341.219 34H343.719C351.852 34 356.852 36.8333 358.719 42.5L367.719 69L372.719 70.5V72H360.719C357.185 72 354.452 71.2667 352.519 69.8C350.585 68.3333 349.152 66.2333 348.219 63.5L338.719 36H329.719V69L335.719 70.5V72H307.219V70.5ZM408.262 73.5C401.728 73.5 395.995 72.1 391.062 69.3C386.195 66.4333 382.428 62.2667 379.762 56.8C377.095 51.3333 375.762 44.7333 375.762 37C375.762 29.2667 377.095 22.6667 379.762 17.2C382.428 11.7333 386.195 7.59999 391.062 4.79999C395.995 1.93333 401.728 0.499997 408.262 0.499997C414.795 0.499997 420.495 1.93333 425.362 4.79999C430.295 7.59999 434.095 11.7333 436.762 17.2C439.428 22.6667 440.762 29.2667 440.762 37C440.762 44.7333 439.428 51.3333 436.762 56.8C434.095 62.2667 430.295 66.4333 425.362 69.3C420.495 72.1 414.795 73.5 408.262 73.5ZM408.262 71.5C410.862 71.5 413.262 70.4 415.462 68.2C417.728 66 419.595 62.3333 421.062 57.2C422.528 52.0667 423.262 45.3333 423.262 37C423.262 28.6667 422.528 21.9333 421.062 16.8C419.595 11.6667 417.728 8 415.462 5.79999C413.262 3.59999 410.862 2.49999 408.262 2.49999C405.662 2.49999 403.228 3.59999 400.962 5.79999C398.762 8 396.928 11.6667 395.462 16.8C393.995 21.9333 393.262 28.6667 393.262 37C393.262 45.3333 393.995 52.0667 395.462 57.2C396.928 62.3333 398.762 66 400.962 68.2C403.228 70.4 405.662 71.5 408.262 71.5ZM450.285 70.5L456.285 69V5L450.285 3.49999V2H503.785V20H500.785C499.518 19 498.418 17.7333 497.485 16.2C495.352 12.6 494.285 8.7 494.285 4.5H472.785V69L478.785 70.5V72H450.285V70.5ZM541.367 73.5C534.834 73.5 529.101 72.1 524.167 69.3C519.301 66.4333 515.534 62.2667 512.867 56.8C510.201 51.3333 508.867 44.7333 508.867 37C508.867 29.2667 510.201 22.6667 512.867 17.2C515.534 11.7333 519.301 7.59999 524.167 4.79999C529.101 1.93333 534.834 0.499997 541.367 0.499997C547.901 0.499997 553.601 1.93333 558.467 4.79999C563.401 7.59999 567.201 11.7333 569.867 17.2C572.534 22.6667 573.867 29.2667 573.867 37C573.867 44.7333 572.534 51.3333 569.867 56.8C567.201 62.2667 563.401 66.4333 558.467 69.3C553.601 72.1 547.901 73.5 541.367 73.5ZM541.367 71.5C543.967 71.5 546.367 70.4 548.567 68.2C550.834 66 552.701 62.3333 554.167 57.2C555.634 52.0667 556.367 45.3333 556.367 37C556.367 28.6667 555.634 21.9333 554.167 16.8C552.701 11.6667 550.834 8 548.567 5.79999C546.367 3.59999 543.967 2.49999 541.367 2.49999C538.767 2.49999 536.334 3.59999 534.067 5.79999C531.867 8 530.034 11.6667 528.567 16.8C527.101 21.9333 526.367 28.6667 526.367 37C526.367 45.3333 527.101 52.0667 528.567 57.2C530.034 62.3333 531.867 66 534.067 68.2C536.334 70.4 538.767 71.5 541.367 71.5ZM611.418 70.5L617.418 69V5L611.418 3.49999V2H639.418C650.485 2 658.418 3.83333 663.218 7.5C668.018 11.1 670.418 16.4333 670.418 23.5C670.418 30.5667 668.018 35.9333 663.218 39.6C658.418 43.2 650.485 45 639.418 45H633.918V69L639.918 70.5V72H611.418V70.5ZM639.418 42.5C643.618 42.5 646.985 40.9 649.518 37.7C652.118 34.5 653.418 29.7667 653.418 23.5C653.418 17.3 652.118 12.6 649.518 9.4C646.985 6.13333 643.618 4.5 639.418 4.5H633.918V42.5H639.418ZM678.898 70.5L684.898 69V5L678.898 3.49999V2H732.398V20H729.398C728.132 19 727.032 17.7333 726.098 16.2C723.965 12.6 722.898 8.7 722.898 4.5H701.398V36H712.898C713.365 33.4667 714.232 31.1 715.498 28.9C716.032 27.9 716.665 26.9333 717.398 26H720.398V48.5H717.398C716.665 47.5667 716.032 46.6 715.498 45.6C714.232 43.4 713.365 41.0333 712.898 38.5H701.398V69.5H724.898C724.898 65.3 725.965 61.4 728.098 57.8C729.032 56.2667 730.132 55 731.398 54H734.398V72H678.898V70.5ZM775.875 73.5C765.208 73.5 756.875 70.3333 750.875 64C744.875 57.6667 741.875 48.6667 741.875 37C741.875 29.3333 743.175 22.7667 745.775 17.3C748.442 11.7667 752.142 7.59999 756.875 4.79999C761.675 1.93333 767.208 0.499997 773.475 0.499997C777.275 0.499997 781.108 1.6 784.975 3.8C786.442 4.6 787.908 5.66666 789.375 7C790.508 5.26666 791.675 3.89999 792.875 2.9C794.075 2.03333 794.742 1.56666 794.875 1.5H797.375V20.5H793.375C792.508 17.3 791.208 14.4 789.475 11.8C787.875 9.26666 785.875 7.16666 783.475 5.5C781.142 3.83333 778.442 2.99999 775.375 2.99999C770.775 2.99999 766.942 5.66666 763.875 11C760.875 16.3333 759.375 25 759.375 37C759.375 49.2 761.008 57.9333 764.275 63.2C767.608 68.4 772.142 71 777.875 71C781.008 71 783.975 70.1333 786.775 68.4C789.642 66.6 791.942 64.2333 793.675 61.3C795.475 58.3667 796.375 55.2667 796.375 52H798.875C798.875 55.8 797.842 59.3667 795.775 62.7C793.775 65.9667 791.008 68.6 787.475 70.6C784.008 72.5333 780.142 73.5 775.875 73.5ZM819.914 70.5L825.914 69V4.5H814.414C814.414 8.56666 813.314 12.4667 811.114 16.2C810.181 17.7333 809.114 19 807.914 20H804.914V2H863.414V20H860.414C859.147 19 858.047 17.7333 857.114 16.2C854.981 12.6 853.914 8.7 853.914 4.5H842.414V69L848.414 70.5V72H819.914V70.5ZM900.938 73.5C894.404 73.5 888.671 72.1 883.738 69.3C878.871 66.4333 875.104 62.2667 872.438 56.8C869.771 51.3333 868.438 44.7333 868.438 37C868.438 29.2667 869.771 22.6667 872.438 17.2C875.104 11.7333 878.871 7.59999 883.738 4.79999C888.671 1.93333 894.404 0.499997 900.938 0.499997C907.471 0.499997 913.171 1.93333 918.038 4.79999C922.971 7.59999 926.771 11.7333 929.438 17.2C932.104 22.6667 933.438 29.2667 933.438 37C933.438 44.7333 932.104 51.3333 929.438 56.8C926.771 62.2667 922.971 66.4333 918.038 69.3C913.171 72.1 907.471 73.5 900.938 73.5ZM900.938 71.5C903.538 71.5 905.938 70.4 908.138 68.2C910.404 66 912.271 62.3333 913.738 57.2C915.204 52.0667 915.938 45.3333 915.938 37C915.938 28.6667 915.204 21.9333 913.738 16.8C912.271 11.6667 910.404 8 908.138 5.79999C905.938 3.59999 903.538 2.49999 900.938 2.49999C898.338 2.49999 895.904 3.59999 893.638 5.79999C891.438 8 889.604 11.6667 888.138 16.8C886.671 21.9333 885.938 28.6667 885.938 37C885.938 45.3333 886.671 52.0667 888.138 57.2C889.604 62.3333 891.438 66 893.638 68.2C895.904 70.4 898.338 71.5 900.938 71.5ZM942.961 70.5L948.961 69V5L942.961 3.49999V2H970.961C982.028 2 989.961 3.83333 994.761 7.5C999.561 11.1 1001.96 16.4333 1001.96 23.5C1001.96 30.5667 999.561 35.9333 994.761 39.6C989.961 43.2 982.028 45 970.961 45H965.461V69L971.461 70.5V72H942.961V70.5ZM970.961 42.5C975.161 42.5 978.528 40.9 981.061 37.7C983.661 34.5 984.961 29.7667 984.961 23.5C984.961 17.3 983.661 12.6 981.061 9.4C978.528 6.13333 975.161 4.5 970.961 4.5H965.461V42.5H970.961ZM996.41 70.5L1004.41 67.5L1031.91 0.999996H1034.91L1063.41 69L1068.41 70.5V72H1056.41C1052.94 72 1050.11 71.2333 1047.91 69.7C1045.71 68.1 1044.08 66.0333 1043.01 63.5L1037.91 51.5H1014.01L1007.41 67.5L1014.91 70.5V72H996.41V70.5ZM1015.01 49H1036.91L1025.91 22.7L1015.01 49ZM1071.38 72V70.5L1077.38 69V5L1071.38 3.49999V2H1099.88V3.49999L1093.88 5V36H1115.38V5L1109.38 3.49999V2H1137.88V3.49999L1131.88 5V69L1137.88 70.5V72H1109.38V70.5L1115.38 69V38.5H1093.88V69L1099.88 70.5V72H1071.38ZM1140.84 70.5L1148.84 67.5L1176.34 0.999996H1179.34L1207.84 69L1212.84 70.5V72H1200.84C1197.38 72 1194.54 71.2333 1192.34 69.7C1190.14 68.1 1188.51 66.0333 1187.44 63.5L1182.34 51.5H1158.44L1151.84 67.5L1159.34 70.5V72H1140.84V70.5ZM1159.44 49H1181.34L1170.34 22.7L1159.44 49Z" fill="#C4C4C4" fill-opacity="0.4"/>
</svg>
