<svg width="33" height="31" viewBox="0 0 33 31" fill="none" xmlns="http://www.w3.org/2000/svg">
<path d="M22.0871 0C18.5532 0 15.4315 1.705 13.5762 4.29773C13.5909 4.28364 13.5909 4.26955 13.6056 4.25545C13.0167 4.22727 12.3982 4.22727 11.7798 4.22727C5.27145 4.22727 0 4.93182 0 9.86364V23.9545C0 25.1945 0.574264 26.3077 1.47247 27.0827V29.5909C1.47247 30.3659 2.13508 31 2.94494 31H4.41742C5.22728 31 5.88989 30.3659 5.88989 29.5909V28.1818H17.6697V29.5909C17.6697 30.3659 18.3323 31 19.1421 31H20.6146C21.4245 31 22.0871 30.3659 22.0871 29.5909V27.0827C22.9853 26.3077 23.5596 25.1945 23.5596 23.9545V19.6145C28.5512 18.9241 32.3944 14.8377 32.3944 9.86364C32.3944 4.41045 27.7856 0 22.0871 0ZM5.15365 25.3636C3.9315 25.3636 2.94494 24.4195 2.94494 23.25C2.94494 22.0805 3.9315 21.1364 5.15365 21.1364C6.3758 21.1364 7.36236 22.0805 7.36236 23.25C7.36236 24.4195 6.3758 25.3636 5.15365 25.3636ZM2.94494 16.9091V9.86364H11.7798C11.7798 12.6255 12.9725 15.1195 14.8867 16.9091H2.94494ZM18.4059 25.3636C17.1838 25.3636 16.1972 24.4195 16.1972 23.25C16.1972 22.0805 17.1838 21.1364 18.4059 21.1364C19.6281 21.1364 20.6146 22.0805 20.6146 23.25C20.6146 24.4195 19.6281 25.3636 18.4059 25.3636ZM22.0871 16.9091C18.0231 16.9091 14.7247 13.7527 14.7247 9.86364C14.7247 5.97455 18.0231 2.81818 22.0871 2.81818C26.1511 2.81818 29.4494 5.97455 29.4494 9.86364C29.4494 13.7527 26.1511 16.9091 22.0871 16.9091ZM22.8233 4.22727H20.6146V11.2727L25.945 14.3164L27.0493 12.5832L22.8233 10.2159V4.22727Z" fill="#D1BB9D"/>
</svg>
