<svg width="25" height="25" viewBox="0 0 25 25" fill="none" xmlns="http://www.w3.org/2000/svg">
<path d="M13.7917 8.625H11.2083V11.2083H13.7917V8.625ZM18.9583 8.625H16.375V11.2083H18.9583V8.625ZM22.8333 17.0208C21.2188 17.0208 19.6688 16.7625 18.2221 16.2846C17.77 16.1425 17.2662 16.2458 16.9046 16.5946L14.0629 19.4363C10.4075 17.5763 7.41083 14.5925 5.55083 10.9371L8.3925 8.0825C8.75417 7.73375 8.8575 7.23 8.71542 6.77792C8.2375 5.33125 7.97917 3.78125 7.97917 2.16667C7.97917 1.45625 7.39792 0.875 6.6875 0.875H2.16667C1.45625 0.875 0.875 1.45625 0.875 2.16667C0.875 14.2954 10.7046 24.125 22.8333 24.125C23.5437 24.125 24.125 23.5437 24.125 22.8333V18.3125C24.125 17.6021 23.5437 17.0208 22.8333 17.0208ZM21.5417 8.625V11.2083H24.125V8.625H21.5417Z" fill="#D1BB9D"/>
</svg>
