<svg width="31" height="31" viewBox="0 0 31 31" fill="none" xmlns="http://www.w3.org/2000/svg">
<path d="M15.4858 2.58333C8.35578 2.58333 2.58203 8.37 2.58203 15.5C2.58203 22.63 8.35578 28.4167 15.4858 28.4167C22.6287 28.4167 28.4154 22.63 28.4154 15.5C28.4154 8.37 22.6287 2.58333 15.4858 2.58333ZM15.4987 25.8333C9.78953 25.8333 5.16536 21.2092 5.16536 15.5C5.16536 9.79083 9.78953 5.16667 15.4987 5.16667C21.2079 5.16667 25.832 9.79083 25.832 15.5C25.832 21.2092 21.2079 25.8333 15.4987 25.8333Z" fill="#D1BB9D"/>
<path d="M16.1445 9.04166H14.207V16.7917L20.9883 20.8604L21.957 19.2717L16.1445 15.8229V9.04166Z" fill="#D1BB9D"/>
</svg>
