<svg width="20" height="22" viewBox="0 0 20 22" fill="none" xmlns="http://www.w3.org/2000/svg">
<path d="M18.8889 14.9421C17.5 14.9421 16.1667 14.7031 14.9222 14.2608C14.5333 14.1293 14.1 14.2249 13.7889 14.5477L11.3444 17.1775C8.2 15.4562 5.62222 12.6948 4.02222 9.29999L6.46667 6.65822C6.77778 6.34742 6.86667 5.88123 6.74444 5.46285C6.33333 4.12403 6.11111 2.68959 6.11111 1.19537C6.11111 0.537917 5.61111 0 5 0H1.11111C0.5 0 0 0.537917 0 1.19537C0 12.4199 8.45556 21.5167 18.8889 21.5167C19.5 21.5167 20 20.9788 20 20.3213V16.1375C20 15.4801 19.5 14.9421 18.8889 14.9421ZM17.7778 10.7583H20C20 4.81735 15.5222 0 10 0V2.39074C14.3 2.39074 17.7778 6.13226 17.7778 10.7583ZM13.3333 10.7583H15.5556C15.5556 7.45912 13.0667 4.78149 10 4.78149V7.17223C11.8444 7.17223 13.3333 8.77403 13.3333 10.7583Z" fill="#D1BB9D"/>
</svg>
