<svg width="21" height="20" viewBox="0 0 21 20" fill="none" xmlns="http://www.w3.org/2000/svg">
<path d="M13.5804 0.975616H6.81212C5.31623 0.975616 3.88161 1.56985 2.82386 2.62761C1.76611 3.68536 1.17188 5.11997 1.17188 6.61586L1.17188 13.3841C1.17188 14.88 1.76611 16.3147 2.82386 17.3724C3.88161 18.4302 5.31623 19.0244 6.81212 19.0244H13.5804C15.0763 19.0244 16.5109 18.4302 17.5687 17.3724C18.6264 16.3147 19.2206 14.88 19.2206 13.3841V6.61586C19.2206 5.11997 18.6264 3.68536 17.5687 2.62761C16.5109 1.56985 15.0763 0.975616 13.5804 0.975616ZM17.5286 13.3841C17.5286 15.5613 15.7575 17.3323 13.5804 17.3323H12.6353H10.1963H6.81212C4.63498 17.3323 2.86395 15.5613 2.86395 13.3841V6.61586C2.86395 4.43873 4.63498 2.66769 6.81212 2.66769H13.5804C15.7575 2.66769 17.5286 4.43873 17.5286 6.61586V13.3841Z" fill="black"/>
<path d="M10.1963 11.9512V17.3323H12.6353V11.9512H14.8304L15.3182 9.2683H12.6353V7.56098C12.6353 7.56098 12.6353 6.58537 13.6109 6.58537H15.3182V4.39025C15.3182 4.39025 14.5865 4.14635 12.8792 4.14635C11.1719 4.14635 9.95236 5.85366 9.95236 7.07318V9.2683H8.00114V11.9512H10.1963Z" fill="black"/>
</svg>
