<svg width="20" height="20" viewBox="0 0 20 20" fill="none" xmlns="http://www.w3.org/2000/svg">
<g clip-path="url(#clip0_1335_2621)">
<path d="M15.1698 9.25253C15.0047 9.15829 13.5892 8.2906 13.0581 7.964L13.0565 7.96289L6.62295 4.03885C6.51335 3.96817 6.39045 3.92364 6.26285 3.90838C6.13525 3.89312 6.00604 3.90749 5.88425 3.9505C5.8705 3.95572 5.85759 3.96096 5.84423 3.96742C5.81321 3.97811 5.78288 3.99093 5.75345 4.00582C5.63044 4.08349 5.52953 4.19476 5.46132 4.32792C5.39311 4.46107 5.36014 4.61119 5.36587 4.76247V15.2922C5.36197 15.4331 5.39356 15.5726 5.45743 15.6964C5.52129 15.8202 5.61513 15.9239 5.72936 15.9968C5.7557 16.0104 5.78285 16.0222 5.81062 16.0322C5.82581 16.0396 5.84029 16.0461 5.85596 16.0519C5.93114 16.0807 6.01032 16.0961 6.09028 16.0976C6.24383 16.0958 6.39427 16.0516 6.52657 15.9692C6.73061 15.8441 13.0565 11.9856 13.0565 11.9856L15.1672 10.6981C15.2977 10.6291 15.4078 10.5236 15.4857 10.3932C15.5636 10.2628 15.6063 10.1124 15.6091 9.95826C15.6027 9.80976 15.5585 9.66584 15.4812 9.54164C15.4039 9.41745 15.2963 9.31757 15.1698 9.25253ZM6.41583 14.3473V5.61911L10.5842 9.97794L6.41583 14.3473ZM9.05018 13.1484L11.3304 10.7582L11.9339 11.3893C11.27 11.7943 10.1483 12.4786 9.05018 13.1484V13.1484ZM11.3295 9.19669L9.02074 6.78242L11.9363 8.56071L11.3295 9.19669ZM12.8765 10.8143L12.0757 9.97699L12.8778 9.13628C13.2559 9.36827 13.8452 9.72936 14.2511 9.97614L12.8765 10.8143Z" fill="black"/>
<path d="M12.8968 0.975616H6.12852C4.63264 0.975616 3.19802 1.56985 2.14027 2.62761C1.08252 3.68536 0.488281 5.11997 0.488281 6.61586L0.488281 13.3842C0.488281 14.88 1.08252 16.3147 2.14027 17.3724C3.19802 18.4302 4.63264 19.0244 6.12852 19.0244H12.8968C14.3927 19.0244 15.8273 18.4302 16.8851 17.3724C17.9428 16.3147 18.5371 14.88 18.5371 13.3842V6.61586C18.5371 5.11997 17.9428 3.68536 16.8851 2.62761C15.8273 1.56985 14.3927 0.975616 12.8968 0.975616V0.975616ZM16.845 13.3842C16.845 15.5613 15.0739 17.3323 12.8968 17.3323H6.12852C3.95139 17.3323 2.18035 15.5613 2.18035 13.3842V6.61586C2.18035 4.43873 3.95139 2.66769 6.12852 2.66769H12.8968C15.0739 2.66769 16.845 4.43873 16.845 6.61586V13.3842Z" fill="black"/>
</g>
<defs>
<clipPath id="clip0_1335_2621">
<rect width="19.5122" height="19.5122" fill="white" transform="translate(0 0.487823)"/>
</clipPath>
</defs>
</svg>
