<svg width="19" height="20" viewBox="0 0 19 20" fill="none" xmlns="http://www.w3.org/2000/svg">
<g clip-path="url(#clip0_1335_2617)">
<path d="M12.6761 0.975616H5.90782C4.41194 0.975616 2.97732 1.56985 1.91957 2.62761C0.861816 3.68536 0.267578 5.11997 0.267578 6.61586L0.267578 13.3842C0.267578 14.88 0.861816 16.3147 1.91957 17.3724C2.97732 18.4302 4.41194 19.0244 5.90782 19.0244H12.6761C14.172 19.0244 15.6066 18.4302 16.6644 17.3724C17.7221 16.3147 18.3164 14.88 18.3164 13.3842V6.61586C18.3164 5.11997 17.7221 3.68536 16.6644 2.62761C15.6066 1.56985 14.172 0.975616 12.6761 0.975616V0.975616ZM16.6243 13.3842C16.6243 15.5613 14.8532 17.3323 12.6761 17.3323H5.90782C3.73069 17.3323 1.95965 15.5613 1.95965 13.3842V6.61586C1.95965 4.43873 3.73069 2.66769 5.90782 2.66769H12.6761C14.8532 2.66769 16.6243 4.43873 16.6243 6.61586V13.3842Z" fill="black"/>
<path d="M9.29149 5.48782C8.09478 5.48782 6.94709 5.96321 6.10089 6.80941C5.25469 7.65562 4.7793 8.80331 4.7793 10C4.7793 11.1967 5.25469 12.3444 6.10089 13.1906C6.94709 14.0368 8.09478 14.5122 9.29149 14.5122C10.4882 14.5122 11.6359 14.0368 12.4821 13.1906C13.3283 12.3444 13.8037 11.1967 13.8037 10C13.8037 8.80331 13.3283 7.65562 12.4821 6.80941C11.6359 5.96321 10.4882 5.48782 9.29149 5.48782ZM9.29149 12.8201C8.54382 12.8192 7.82704 12.5218 7.29835 11.9932C6.76967 11.4645 6.47227 10.7477 6.47137 10C6.47137 8.44444 7.73704 7.1799 9.29149 7.1799C10.8459 7.1799 12.1116 8.44444 12.1116 10C12.1116 11.5545 10.8459 12.8201 9.29149 12.8201Z" fill="black"/>
<path d="M14.1423 5.75066C14.4743 5.75066 14.7435 5.48147 14.7435 5.14941C14.7435 4.81735 14.4743 4.54816 14.1423 4.54816C13.8102 4.54816 13.541 4.81735 13.541 5.14941C13.541 5.48147 13.8102 5.75066 14.1423 5.75066Z" fill="black"/>
</g>
<defs>
<clipPath id="clip0_1335_2617">
<rect width="18.0488" height="18.0488" fill="white" transform="translate(0.267578 0.975616)"/>
</clipPath>
</defs>
</svg>
