<svg width="56" height="56" viewBox="0 0 56 56" fill="none" xmlns="http://www.w3.org/2000/svg">
<path d="M37.2101 19.9772L33.7913 36.1007C33.5333 37.2386 32.8607 37.5217 31.9048 36.9858L26.6955 33.1471L24.1821 35.5645C23.9039 35.8427 23.6712 36.0754 23.1351 36.0754L23.5094 30.77L33.1641 22.0458C33.584 21.6715 33.0731 21.4641 32.5117 21.8384L20.576 29.3539L15.4376 27.7456C14.3199 27.3966 14.2998 26.6279 15.6702 26.0918L35.7687 18.3487C36.6992 17.9998 37.5135 18.5561 37.2101 19.9772Z" fill="black"/>
<path d="M47.166 28.2705C47.166 17.7771 38.6594 9.27051 28.166 9.27051C17.6726 9.27051 9.16602 17.7771 9.16602 28.2705C9.16602 38.7639 17.6726 47.2705 28.166 47.2705C38.6594 47.2705 47.166 38.7639 47.166 28.2705Z" stroke="black"/>
</svg>
