<svg width="26" height="22" viewBox="0 0 26 22" fill="none" xmlns="http://www.w3.org/2000/svg">
<path fill-rule="evenodd" clip-rule="evenodd" d="M12.3744 0.139184C11.6794 0.511681 0.629463 6.90056 0.456363 7.02998C-0.11966 7.46062 -0.141069 8.43304 0.414033 8.95207C0.585486 9.11235 12.1766 15.8243 12.5554 15.9826C13.1417 16.2277 12.6389 16.4783 19.5266 12.5077C26.2934 8.60684 25.9912 8.81656 25.9912 8.02031C25.9912 7.19344 26.5188 7.55893 19.4039 3.45659L13.457 0.0276596L13.0606 0.00580574C12.7262 -0.0127004 12.6187 0.00824041 12.3744 0.139184ZM17.5726 5.37563C21.9408 7.86684 22.0947 7.96065 21.9564 8.04752C21.2517 8.49057 13.0694 13.1682 12.9996 13.168C12.9209 13.1678 4.07834 8.14997 3.95983 8.03833C3.91677 7.99772 12.8466 2.80906 12.9768 2.79908C13.0145 2.79616 15.0826 3.95559 17.5726 5.37563ZM0.619094 12.9143C-0.129724 13.3649 -0.217738 14.4898 0.456363 14.9941C0.562004 15.073 3.32446 16.6817 6.59524 18.5688L12.5421 22H12.9996H13.457L19.4039 18.5692C25.954 14.7905 25.6827 14.9577 25.863 14.586C26.3909 13.4976 25.2801 12.3313 24.1919 12.8312C24.0577 12.8929 21.4961 14.3579 18.4994 16.0867C12.0361 19.8157 13.9653 19.8157 7.50075 16.0866C0.808357 12.226 1.349 12.4752 0.619094 12.9143Z" fill="#737373"/>
</svg>
