<svg width="21" height="20" viewBox="0 0 21 20" fill="none" xmlns="http://www.w3.org/2000/svg">
<path d="M13.511 11.2744C13.2676 11.0112 12.9942 10.7774 12.6965 10.5777C13.8979 9.64874 14.7399 8.33178 15.0788 6.85141C15.1038 6.74443 15.1074 6.63356 15.0894 6.52517C15.0714 6.41679 15.0322 6.31304 14.9739 6.21988C14.9157 6.12672 14.8396 6.046 14.75 5.98236C14.6605 5.91873 14.5592 5.87343 14.4521 5.84907C14.3449 5.82472 14.234 5.82178 14.1258 5.84045C14.0175 5.85911 13.914 5.899 13.8212 5.95782C13.7284 6.01664 13.6481 6.09322 13.5851 6.18317C13.522 6.27312 13.4773 6.37466 13.4536 6.48194C13.2958 7.17441 12.9888 7.82412 12.5541 8.38576C12.1193 8.9474 11.5673 9.40746 10.9365 9.73384V6.66834C10.9314 6.60702 10.9192 6.5465 10.9001 6.48798C10.8946 6.4398 10.885 6.39218 10.8714 6.34563C10.8358 6.26984 10.7889 6.1999 10.7324 6.1382C10.7175 6.1205 10.7099 6.09716 10.6937 6.08078C10.6326 6.02443 10.5635 5.9775 10.4886 5.94157C10.4673 5.93023 10.4515 5.91105 10.4292 5.90157C10.3653 5.8803 10.2992 5.86669 10.2321 5.86103C10.1907 5.84892 10.1484 5.84022 10.1056 5.83503L9.56038 5.83334H9.55794C9.36299 5.83241 9.17395 5.90019 9.02399 6.02476C8.87404 6.14934 8.77276 6.32276 8.73794 6.51458C8.70312 6.70639 8.73699 6.90434 8.83359 7.07368C8.93019 7.24301 9.08335 7.3729 9.26619 7.44055V11.5161C7.94563 10.1453 7.07121 8.40667 6.75806 6.52918C6.73978 6.42129 6.70044 6.31806 6.64227 6.22538C6.5841 6.1327 6.50824 6.05239 6.41903 5.98903C6.32982 5.92566 6.22901 5.88049 6.12234 5.85609C6.01567 5.83169 5.90524 5.82853 5.79736 5.84681C5.68947 5.86509 5.58624 5.90443 5.49357 5.9626C5.40089 6.02077 5.32057 6.09663 5.25721 6.18584C5.19384 6.27505 5.14867 6.37586 5.12427 6.48253C5.09987 6.5892 5.09672 6.69962 5.11499 6.80751C5.60198 9.70964 7.22031 12.3001 9.61491 14.0105C9.64906 14.0309 9.68466 14.0489 9.72142 14.0642C9.75028 14.0811 9.78019 14.0962 9.81098 14.1093C9.90402 14.1465 10.003 14.1665 10.1032 14.1683C10.2258 14.1668 10.3465 14.1378 10.4564 14.0835C10.4647 14.0795 10.4742 14.0814 10.4824 14.0772C10.5561 14.0388 10.6235 13.9896 10.6825 13.9311C10.6944 13.9196 10.7023 13.9054 10.7135 13.8932C10.7673 13.8341 10.8122 13.7675 10.8468 13.6955C10.8583 13.6716 10.8689 13.6488 10.8782 13.6237C10.9149 13.5317 10.9346 13.4339 10.9365 13.335L10.9369 11.5633C11.4533 11.7149 11.9185 12.0045 12.2825 12.4007L13.6558 13.8981C13.7297 13.9791 13.8188 14.0446 13.9181 14.091C14.0173 14.1375 14.1248 14.1639 14.2342 14.1687C14.3437 14.1736 14.453 14.1568 14.556 14.1193C14.659 14.0819 14.7535 14.0244 14.8343 13.9504C14.915 13.8763 14.9804 13.7871 15.0266 13.6877C15.0728 13.5884 15.0989 13.4809 15.1035 13.3714C15.1082 13.2619 15.0911 13.1526 15.0534 13.0497C15.0157 12.9469 14.9581 12.8524 14.8839 12.7718L13.511 11.2744ZM12.9519 0.833344H7.83919C2.70817 0.833344 1.22461 2.31528 1.22461 7.43898V12.5521C1.22461 17.6831 2.70613 19.1667 7.83065 19.1667H12.9434C18.0744 19.1667 19.5579 17.6847 19.5579 12.561V7.44793C19.5579 2.3169 18.0764 0.833344 12.9519 0.833344ZM17.8913 12.561C17.8913 16.7611 17.1515 17.5 12.9434 17.5H7.83065C3.6298 17.5 2.89128 16.7603 2.89128 12.5521V7.43898C2.89128 3.23894 3.63103 2.50001 7.83919 2.50001H12.9519C17.1527 2.50001 17.8913 3.23976 17.8913 7.44793V12.561Z" fill="black"/>
</svg>
