<svg width="38" height="38" viewBox="0 0 38 38" fill="none" xmlns="http://www.w3.org/2000/svg">
<path d="M19 0C8.52302 0 0 8.52304 0 19C0 22.5739 0.993389 26.0437 2.87665 29.0566C2.12667 31.6864 0.770724 36.6598 0.756474 36.7119C0.686539 36.9688 0.761461 37.2435 0.953416 37.4291C1.14539 37.6139 1.42301 37.6796 1.67629 37.6025L9.20738 35.2853C12.1576 37.0623 15.536 38 19 38C29.4769 38 38 29.477 38 19C38 8.52304 29.4769 0 19 0ZM19 36.5385C15.6979 36.5385 12.4809 35.6157 9.69627 33.8701C9.57847 33.7966 9.44364 33.7588 9.30801 33.7588C9.23595 33.7588 9.16317 33.7695 9.09324 33.7909L2.51697 35.8149C3.00015 34.0514 3.86796 30.8971 4.37174 29.143C4.43027 28.9396 4.39746 28.7205 4.28258 28.5428C2.43712 25.7033 1.46154 22.4033 1.46154 19C1.46154 9.32944 9.32942 1.46154 19 1.46154C28.6705 1.46154 36.5385 9.32944 36.5385 19C36.5385 28.6706 28.6705 36.5385 19 36.5385Z" fill="black"/>
<path d="M31.4115 23.4766C30.0626 22.7273 28.9137 21.9765 28.0751 21.4284C27.435 21.0103 26.9725 20.7084 26.6336 20.5385C25.6859 20.0654 24.9673 20.4001 24.694 20.6756C24.6597 20.7098 24.629 20.7469 24.6026 20.7869C23.6185 22.2634 22.3325 23.6764 21.9564 23.752C21.5217 23.6843 19.4865 22.5274 17.4633 20.8425C15.398 19.1212 14.0992 17.4734 13.9079 16.3516C15.2332 14.9878 15.7106 14.13 15.7106 13.1538C15.7106 12.1475 13.3634 7.9463 12.9388 7.52172C12.5128 7.09634 11.5536 7.02999 10.0864 7.32185C9.94512 7.35043 9.81519 7.41963 9.71319 7.52172C9.53545 7.69937 5.38066 11.9356 7.35527 17.0702C9.52259 22.7051 15.0862 29.2549 22.1791 30.319C22.9847 30.4396 23.7405 30.4995 24.4484 30.4995C28.6211 30.4995 31.0839 28.4 31.7775 24.2352C31.8282 23.9305 31.6819 23.6265 31.4115 23.4766ZM22.396 28.8731C14.8956 27.7485 10.1706 20.3173 8.71976 16.545C7.28037 12.8034 9.93511 9.46783 10.6016 8.71346C11.144 8.62146 11.7142 8.58287 11.9525 8.61999C12.45 9.31225 14.1734 12.5678 14.2491 13.1538C14.2491 13.5377 14.1242 14.0715 12.6363 15.5602C12.4992 15.6972 12.4222 15.8827 12.4222 16.0768C12.4222 19.9034 20.4927 25.2114 21.9221 25.2114C23.1653 25.2114 24.7859 23.1219 25.7087 21.761C25.7622 21.7631 25.8521 21.7817 25.9799 21.8459C26.2432 21.9779 26.6992 22.2755 27.2759 22.6523C28.0374 23.1497 29.0486 23.8106 30.2424 24.4949C29.7001 27.104 28.185 29.7431 22.396 28.8731Z" fill="black"/>
</svg>
