<svg width="37" height="37" viewBox="0 0 37 37" fill="none" xmlns="http://www.w3.org/2000/svg">
<g opacity="0.4">
<path d="M37 15.3365C37 13.5058 35.51 12.0165 33.68 12.0165H28.4104L22.9246 1.61114C22.3226 0.469156 20.9999 -0.0175318 19.9718 0.524622C18.9437 1.06678 18.5985 2.43296 19.2005 3.57495L23.6503 12.0165H13.3482L17.798 3.57495C18.4007 2.43296 18.0548 1.06678 17.0267 0.524622C15.9985 -0.0175318 14.6758 0.469156 14.0739 1.61114L8.58878 12.0165H3.32068C1.48996 12.0165 0 13.5057 0 15.3365C0 16.6606 0.785498 17.7976 1.90977 18.3299L3.97321 34.6117C3.99956 35.7658 4.94659 36.6972 6.10707 36.6972H30.8916C32.0521 36.6972 32.9999 35.7658 33.0262 34.6117L35.0897 18.3306C36.2145 17.7976 37 16.6613 37 15.3365ZM31.6095 34.4729L31.6038 34.5625C31.6038 34.9553 31.2857 35.2741 30.8923 35.2741H6.10707C5.71426 35.2741 5.39552 34.9553 5.39552 34.5625L3.38545 18.6564H33.6146L31.6095 34.4729ZM34.425 17.0804L34.2307 17.1394C34.1332 17.1687 34.0457 17.1892 33.961 17.2049C33.8692 17.2191 33.776 17.2333 33.6799 17.2333H18.5003H3.32068C3.22392 17.2333 3.13136 17.2184 3.03892 17.2049C2.955 17.1899 2.86676 17.1685 2.77 17.1394L2.5757 17.0804C1.89903 16.7901 1.42309 16.1184 1.42309 15.3365C1.42309 14.2906 2.27401 13.4396 3.32068 13.4396H7.88299C7.54222 14.4819 7.91576 15.604 8.8236 16.0829C9.85177 16.6251 11.1744 16.1384 11.7764 14.9964L12.5968 13.4396H24.3995L25.2206 14.9964C25.8226 16.1384 27.1453 16.6251 28.1734 16.0829C29.0806 15.6041 29.4549 14.482 29.114 13.4396H33.6778C34.723 13.4396 35.5747 14.2905 35.5747 15.3365C35.5769 16.1184 35.1016 16.7894 34.425 17.0804ZM8.2273 32.354V21.3253C8.2273 20.9318 8.54538 20.6138 8.93884 20.6138C9.33231 20.6138 9.65039 20.9318 9.65039 21.3253V32.354C9.65039 32.7474 9.33231 33.0655 8.93884 33.0655C8.54538 33.0655 8.2273 32.7474 8.2273 32.354ZM27.3496 32.354V21.3253C27.3496 20.9318 27.6677 20.6138 28.0612 20.6138C28.4546 20.6138 28.7727 20.9318 28.7727 21.3253V32.354C28.7727 32.7474 28.4546 33.0655 28.0612 33.0655C27.6677 33.0655 27.3496 32.7474 27.3496 32.354ZM20.9751 32.354V21.3253C20.9751 20.9318 21.2931 20.6138 21.6866 20.6138C22.0801 20.6138 22.3982 20.9318 22.3982 21.3253V32.354C22.3982 32.7474 22.0801 33.0655 21.6866 33.0655C21.293 33.0655 20.9751 32.7474 20.9751 32.354ZM14.6018 32.354V21.3253C14.6018 20.9318 14.9199 20.6138 15.3134 20.6138C15.7069 20.6138 16.0249 20.9318 16.0249 21.3253V32.354C16.0249 32.7474 15.7069 33.0655 15.3134 33.0655C14.9199 33.0655 14.6018 32.7474 14.6018 32.354Z" fill="#4A4A4A"/>
<path fill-rule="evenodd" clip-rule="evenodd" d="M31.6088 34.473L31.6031 34.5626C31.6031 34.9554 31.2851 35.2742 30.8916 35.2742H6.10639C5.71358 35.2742 5.39484 34.9554 5.39484 34.5626L3.38477 18.6565H33.6139L31.6088 34.473ZM8.22662 21.3254V32.3541C8.22662 32.7475 8.5447 33.0656 8.93816 33.0656C9.33163 33.0656 9.64971 32.7475 9.64971 32.3541V21.3254C9.64971 20.9319 9.33163 20.6139 8.93816 20.6139C8.5447 20.6139 8.22662 20.9319 8.22662 21.3254ZM27.3489 21.3254V32.3541C27.3489 32.7475 27.667 33.0656 28.0605 33.0656C28.4539 33.0656 28.772 32.7475 28.772 32.3541V21.3254C28.772 20.9319 28.4539 20.6139 28.0605 20.6139C27.667 20.6139 27.3489 20.9319 27.3489 21.3254ZM20.9744 21.3254V32.3541C20.9744 32.7475 21.2923 33.0656 21.6859 33.0656C22.0794 33.0656 22.3975 32.7475 22.3975 32.3541V21.3254C22.3975 20.9319 22.0794 20.6139 21.6859 20.6139C21.2925 20.6139 20.9744 20.9319 20.9744 21.3254ZM14.6012 21.3254V32.3541C14.6012 32.7475 14.9192 33.0656 15.3127 33.0656C15.7062 33.0656 16.0243 32.7475 16.0243 32.3541V21.3254C16.0243 20.9319 15.7062 20.6139 15.3127 20.6139C14.9192 20.6139 14.6012 20.9319 14.6012 21.3254Z" fill="#9D9992"/>
<path d="M34.4257 17.0803L34.2314 17.1393C34.134 17.1685 34.0464 17.1891 33.9617 17.2047C33.8699 17.219 33.7767 17.2332 33.6806 17.2332H18.501H3.32142C3.22466 17.2332 3.13211 17.2183 3.03966 17.2047C2.95574 17.1898 2.86751 17.1684 2.77074 17.1393L2.57645 17.0803C1.89978 16.79 1.42383 16.1183 1.42383 15.3364C1.42383 14.2905 2.27476 13.4395 3.32142 13.4395H7.88373C7.54296 14.4818 7.9165 15.6039 8.82434 16.0828C9.85251 16.625 11.1752 16.1383 11.7771 14.9963L12.5975 13.4395H24.4002L25.2214 14.9963C25.8233 16.1383 27.1461 16.625 28.1742 16.0828C29.0813 15.604 29.4556 14.4819 29.1148 13.4395H33.6785C34.7237 13.4395 35.5754 14.2904 35.5754 15.3364C35.5777 16.1183 35.1024 16.7893 34.4257 17.0803Z" fill="#F0EBE5"/>
</g>
</svg>
