<svg width="40" height="40" viewBox="0 0 40 40" fill="none" xmlns="http://www.w3.org/2000/svg">
<g opacity="0.4">
<path d="M27.245 35.1609C26.0229 35.1518 24.8061 34.9984 23.62 34.7038C19.5239 33.7156 15.3059 31.2085 11.745 27.6445C8.18407 24.0804 5.67392 19.8616 4.68564 15.7695C3.64501 11.4648 4.3872 7.78195 6.77314 5.39601L7.45439 4.71476C8.07248 4.09791 8.91005 3.75146 9.78329 3.75146C10.6565 3.75146 11.4941 4.09791 12.1122 4.71476L16.027 8.62883C16.6443 9.24672 16.991 10.0844 16.991 10.9577C16.991 11.8311 16.6443 12.6688 16.027 13.2866L13.7145 15.5984C14.8231 17.5437 16.3309 19.4905 18.113 21.2726C19.895 23.0546 21.8434 24.5632 23.788 25.6718L26.0997 23.3593C26.4055 23.0534 26.7686 22.8107 27.1682 22.6452C27.5678 22.4796 27.9961 22.3944 28.4286 22.3944C28.8611 22.3944 29.2894 22.4796 29.689 22.6452C30.0886 22.8107 30.4517 23.0534 30.7575 23.3593L34.6716 27.2734C35.2889 27.891 35.6358 28.7286 35.6358 29.6019C35.6358 30.4752 35.2889 31.3127 34.6716 31.9304L33.9895 32.6116C32.3075 34.2968 29.9794 35.1609 27.245 35.1609ZM9.78329 6.09367C9.65855 6.09305 9.53495 6.11733 9.41971 6.16509C9.30448 6.21285 9.19993 6.28312 9.1122 6.37179L8.43017 7.05305C6.64345 8.83976 6.12157 11.7405 6.96064 15.2163C7.84892 18.8984 10.1356 22.7241 13.3989 25.9866C16.6622 29.2491 20.4872 31.5335 24.17 32.4249C27.6466 33.264 30.5458 32.7421 32.3325 30.9554L33.0138 30.2741C33.1917 30.096 33.2917 29.8545 33.2917 29.6027C33.2917 29.3508 33.1917 29.1093 33.0138 28.9312L29.1005 25.0171C28.9223 24.8391 28.6808 24.7391 28.429 24.7391C28.1772 24.7391 27.9356 24.8391 27.7575 25.0171L24.827 27.9476C24.6512 28.1235 24.4239 28.2389 24.1782 28.2771C23.9324 28.3153 23.6808 28.2743 23.4599 28.1601C21.0575 26.9179 18.6356 25.1093 16.4559 22.9296C14.2763 20.7499 12.4716 18.3296 11.2263 15.9273C11.1119 15.7064 11.0708 15.4549 11.1088 15.2091C11.1469 14.9633 11.2622 14.736 11.438 14.5601L14.3692 11.6296C14.5472 11.4515 14.6472 11.2099 14.6472 10.9581C14.6472 10.7063 14.5472 10.4648 14.3692 10.2866L10.4552 6.37179C10.3672 6.28327 10.2625 6.21311 10.1471 6.16536C10.0318 6.11762 9.90812 6.09325 9.78329 6.09367Z" fill="#4A4A4A"/>
<path d="M9.78381 6.09376C9.65907 6.09314 9.53547 6.11742 9.42023 6.16518C9.305 6.21294 9.20045 6.28321 9.11272 6.37189L8.43069 7.05314C6.64397 8.83986 6.12209 11.7406 6.96116 15.2164C7.84944 18.8985 10.1362 22.7242 13.3994 25.9867C16.6627 29.2492 20.4877 31.5336 24.1705 32.425C27.6471 33.2641 30.5463 32.7422 32.333 30.9555L33.0143 30.2742C33.1923 30.0961 33.2923 29.8546 33.2923 29.6028C33.2923 29.3509 33.1923 29.1094 33.0143 28.9313L29.101 25.0172C28.9229 24.8392 28.6813 24.7392 28.4295 24.7392C28.1777 24.7392 27.9362 24.8392 27.758 25.0172L24.8276 27.9477C24.6517 28.1236 24.4245 28.239 24.1787 28.2772C23.9329 28.3154 23.6813 28.2744 23.4604 28.1602C21.058 26.918 18.6362 25.1094 16.4565 22.9297C14.2768 20.75 12.4721 18.3297 11.2268 15.9274C11.1124 15.7065 11.0713 15.455 11.1094 15.2092C11.1474 14.9634 11.2627 14.7361 11.4385 14.5602L14.3697 11.6297C14.5477 11.4516 14.6477 11.21 14.6477 10.9582C14.6477 10.7064 14.5477 10.4649 14.3697 10.2867L10.4557 6.37189C10.3677 6.28337 10.263 6.2132 10.1476 6.16546C10.0323 6.11771 9.90864 6.09334 9.78381 6.09376Z" fill="#F0EBE5"/>
<path d="M28.4961 21.0726C28.1853 21.0726 27.8872 20.9491 27.6675 20.7293C27.4477 20.5096 27.3242 20.2115 27.3242 19.9007C27.3219 17.8448 26.5043 15.8738 25.0507 14.4201C23.5971 12.9663 21.6261 12.1485 19.5703 12.146C19.2595 12.146 18.9614 12.0225 18.7417 11.8028C18.5219 11.583 18.3984 11.2849 18.3984 10.9741C18.3984 10.6633 18.5219 10.3652 18.7417 10.1455C18.9614 9.92571 19.2595 9.80225 19.5703 9.80225C25.1383 9.80225 29.668 14.3335 29.668 19.9007C29.668 20.2115 29.5445 20.5096 29.3247 20.7293C29.105 20.9491 28.8069 21.0726 28.4961 21.0726Z" fill="#4A4A4A"/>
<path d="M33.4492 21.0726C33.1384 21.0726 32.8403 20.9491 32.6206 20.7293C32.4008 20.5095 32.2773 20.2115 32.2773 19.9007C32.2773 12.8936 26.5742 7.19287 19.5703 7.19287C19.2595 7.19287 18.9614 7.06941 18.7417 6.84964C18.5219 6.62987 18.3984 6.3318 18.3984 6.021C18.3984 5.7102 18.5219 5.41212 18.7417 5.19236C18.9614 4.97259 19.2595 4.84912 19.5703 4.84912C27.8695 4.84912 34.6211 11.6015 34.6211 19.9007C34.6211 20.2115 34.4976 20.5095 34.2779 20.7293C34.0581 20.9491 33.76 21.0726 33.4492 21.0726Z" fill="#4A4A4A"/>
</g>
</svg>
