<svg width="56" height="26" viewBox="0 0 56 26" fill="none" xmlns="http://www.w3.org/2000/svg">
<path d="M51.35 5.07227C51.1258 4.75195 50.7574 4.55977 50.373 4.55977H42.9258V1.38867C42.9258 0.732031 42.3812 0.1875 41.7246 0.1875H14.7383C14.0816 0.1875 13.5371 0.732031 13.5371 1.38867V20.7996C13.5371 21.4562 14.0816 22.0008 14.7383 22.0008H18.1336C18.7582 24.1789 20.7762 25.7965 23.1465 25.7965C25.5168 25.7965 27.5348 24.1949 28.1594 22.0008H41.4684C42.093 24.1789 44.1109 25.7965 46.4812 25.7965C48.8516 25.7965 50.8695 24.1949 51.4941 22.0008H53.9766C54.6332 22.0008 55.1777 21.4562 55.1777 20.7996V10.918C55.1777 10.6617 55.0976 10.4215 54.9535 10.2293L51.35 5.07227ZM52.7914 11.2703H47.4102V6.97812H49.7644L52.7914 11.2703ZM15.9395 2.60586H40.5234V19.6144H28.2715C27.807 17.1961 25.693 15.3703 23.1465 15.3703C20.6 15.3703 18.4699 17.1961 18.0215 19.6144H15.9395V2.60586ZM23.1465 23.3941C21.593 23.3941 20.3277 22.1289 20.3277 20.5754C20.3277 19.0219 21.593 17.7566 23.1465 17.7566C24.7 17.7566 25.9652 19.0219 25.9652 20.5754C25.9652 22.1289 24.7 23.3941 23.1465 23.3941ZM46.4973 23.3941C44.9437 23.3941 43.6785 22.1289 43.6785 20.5754C43.6785 19.0219 44.9437 17.7566 46.4973 17.7566C48.0508 17.7566 49.316 19.0219 49.316 20.5754C49.316 22.1289 48.0508 23.3941 46.4973 23.3941ZM51.6223 19.6144C51.1578 17.1961 49.0437 15.3703 46.4973 15.3703C45.1199 15.3703 43.8547 15.9148 42.9258 16.7957V6.97812H44.9918V12.4715C44.9918 13.1281 45.5363 13.6727 46.193 13.6727H52.8074V19.6144H51.6223Z" fill="#ACA499"/>
<path d="M1.99023 2.60596H10.5586C11.2152 2.60596 11.7598 2.06143 11.7598 1.40479C11.7598 0.748145 11.2152 0.203613 10.5586 0.203613H1.99023C1.33359 0.203613 0.789062 0.748145 0.789062 1.40479C0.789062 2.06143 1.33359 2.60596 1.99023 2.60596Z" fill="#ACA499"/>
<path d="M10.5594 4.57568H3.96094C3.3043 4.57568 2.75977 5.12021 2.75977 5.77686C2.75977 6.4335 3.3043 6.97803 3.96094 6.97803H10.5594C11.216 6.97803 11.7605 6.4335 11.7605 5.77686C11.7605 5.12021 11.232 4.57568 10.5594 4.57568Z" fill="#ACA499"/>
<path d="M10.5586 8.948H6.39453C5.73789 8.948 5.19336 9.49253 5.19336 10.1492C5.19336 10.8058 5.73789 11.3503 6.39453 11.3503H10.5586C11.2152 11.3503 11.7598 10.8058 11.7598 10.1492C11.7598 9.49253 11.2313 8.948 10.5586 8.948Z" fill="#ACA499"/>
<path d="M10.5586 13.3203H9.11719C8.46055 13.3203 7.91602 13.8648 7.91602 14.5215C7.91602 15.1781 8.46055 15.7227 9.11719 15.7227H10.5586C11.2152 15.7227 11.7598 15.1781 11.7598 14.5215C11.7598 13.8648 11.2313 13.3203 10.5586 13.3203Z" fill="#ACA499"/>
</svg>
