<svg width="107" height="40" viewBox="0 0 107 40" fill="none" xmlns="http://www.w3.org/2000/svg">
<path fill-rule="evenodd" clip-rule="evenodd" d="M4.48359 0.253869C4.34635 0.299589 3.93391 0.402458 3.56738 0.482717C2.77892 0.65516 2.63171 1.03136 1.58525 5.54694C-0.0231019 12.4877 0.509607 15.33 3.66469 16.6425C5.27205 17.3111 8.76322 17.0114 10.5672 16.0501C11.3963 15.6083 11.4118 15.4336 10.0876 21.5027C9.41694 24.5766 8.86427 27.2912 8.85928 27.535C8.8508 27.9375 9.09482 27.9718 11.5178 27.9077L14.1856 27.8371L17.1196 14.1709C18.7335 6.6544 20.0594 0.420846 20.0659 0.318225C20.0726 0.215603 18.8577 0.131866 17.3659 0.131866H14.654L14.0911 2.803C13.7814 4.272 13.1716 7.15136 12.7357 9.2013L11.9435 12.9285L10.8429 13.4875C9.14123 14.352 7.27588 14.1776 6.42529 13.0743C5.87736 12.3634 6.0892 9.88113 7.10346 5.13149C7.65239 2.56098 8.10151 0.384319 8.10151 0.294867C8.10151 0.132115 4.95666 0.0968314 4.48359 0.253869ZM39.7896 0.656403C37.6744 0.895438 32.0662 1.95147 30.1833 2.46557C29.0628 2.77144 29.5329 2.79306 34.7993 2.67976C46.7687 2.42184 51.8819 3.38717 54.7051 6.43723L55.7546 7.57129L56.8974 6.46531C60.4766 3.00104 68.092 1.69529 79.3158 2.62136C80.9506 2.75604 82.3289 2.82611 82.3783 2.77691C82.5564 2.59975 75.0299 1.11609 71.9766 0.726474C65.9651 -0.0403281 58.7674 0.568194 56.6104 2.02576C55.8067 2.56894 55.6523 2.59875 55.2925 2.28095C53.5324 0.724982 46.0865 -0.0552372 39.7896 0.656403ZM29.7427 9.3474C22.1448 11.13 18.6761 26.3149 25.4948 27.944C27.5535 28.436 30.2547 27.4448 31.632 25.6923L32.2438 24.914L32.5402 25.8083C33.4255 28.4802 36.1684 28.7997 39.7431 26.6477C41.0254 25.8756 41.0638 25.8207 40.9061 24.9796C40.6968 23.863 40.7232 23.8776 39.7858 24.3604C37.2004 25.6918 37.0272 24.51 38.6692 16.7453C40.4301 8.42009 40.582 9.32554 37.4239 9.32554C34.829 9.32554 34.8075 9.33051 34.6491 9.95916C34.4927 10.5799 34.4824 10.5826 34.1381 10.0931C33.5196 9.21372 31.6585 8.89791 29.7427 9.3474ZM80.6898 9.8138C80.0833 10.2188 78.3664 11.8456 76.875 13.4286C75.3835 15.0117 74.1277 16.2717 74.0845 16.2285C74.0411 16.1853 74.335 14.6484 74.7377 12.8132C75.1404 10.9779 75.4698 9.44232 75.4698 9.40083C75.4698 9.35933 74.2347 9.32554 72.7252 9.32554C71.2156 9.32554 69.9803 9.40952 69.9798 9.5119C69.9793 9.61427 69.1372 13.5964 68.1084 18.3607C67.0797 23.1247 66.2378 27.2341 66.2378 27.4922C66.2378 28.182 71.3723 28.2153 71.5669 27.5265C71.6345 27.2872 71.9926 25.5822 72.3629 23.7372C73.1164 19.9815 73.8669 18.7677 75.4356 18.7677C76.653 18.7677 76.7875 19.1814 76.5904 22.3237C76.2772 27.3113 78.7741 29.4274 82.7266 27.5245C85.3076 26.2822 85.5481 26.016 85.2127 24.7759C84.9121 23.6632 84.6945 23.5198 84.2027 24.11C83.8384 24.547 82.8843 24.5952 82.167 24.2131C81.6886 23.9581 81.6702 23.7927 81.8311 21.1692C82.0786 17.1317 81.5963 16.3453 78.697 16.0573L77.2164 15.9102L78.9849 14.1087C80.9708 12.0859 80.9982 12.0727 81.4516 12.9165C82.5005 14.8681 85.3719 14.0387 85.6357 11.7079C85.9124 9.26416 83.1166 8.19347 80.6898 9.8138ZM95.2177 9.46767C91.0541 10.5831 87.6959 16.2305 87.6959 22.1174C87.6959 27.9204 92.6337 30.1268 96.8123 26.1915L98.1295 24.9508L98.2927 25.691C98.8813 28.3599 102.107 28.8266 105.384 26.717C106.721 25.8565 106.822 25.7266 106.716 25.007C106.569 24.0076 106.319 23.8699 105.557 24.3674C103.043 26.0076 102.826 24.4302 104.49 16.6203C105.273 12.9498 105.912 9.80311 105.911 9.62769C105.909 8.91729 100.592 9.34616 100.417 10.071L100.266 10.6922L99.9662 10.144C99.4147 9.13496 97.4853 8.86014 95.2177 9.46767ZM47.6791 9.76037C47.0192 11.9954 45.0293 22.4755 45.0293 23.7164C45.0293 28.4861 49.8798 29.7454 53.4394 25.8997L54.4664 24.7903L54.6188 25.6001C55.1443 28.3892 58.6312 28.8802 61.914 26.627C63.7357 25.3769 64.2108 22.8532 62.4166 23.9574C59.2927 25.8801 59.0696 24.7781 60.8733 16.3271C61.6281 12.7908 62.2457 9.76485 62.2457 9.60309C62.2457 9.39014 61.5041 9.32827 59.5674 9.37921L56.8891 9.44978L55.5979 15.5375C54.1829 22.2086 53.6759 23.5491 52.3273 24.1897C50.2209 25.1901 50.1206 23.7802 51.7527 16.0978C52.4463 12.833 53.0137 9.97357 53.0137 9.74373C53.0137 9.09893 47.8698 9.11508 47.6791 9.76037ZM33.6882 12.1659C34.6681 13.655 31.9436 23.1896 30.2821 24.0866C27.8249 25.4132 26.8022 22.7354 27.9248 17.9149C29.0074 13.2656 32.2703 10.0111 33.6882 12.1659ZM99.5295 12.1209C100.217 13.1673 98.0357 22.3207 96.8073 23.5422C93.4155 26.915 91.9665 21.2038 94.6795 15.1538C96.0518 12.0931 98.5035 10.5602 99.5295 12.1209ZM8.60054 35.5399C8.60054 37.6935 8.66591 38.1489 8.9748 38.1489C9.25052 38.1489 9.34907 37.8627 9.34907 37.0626C9.34907 35.9879 9.3598 35.9745 10.3429 35.818C11.1558 35.6885 11.3696 35.5355 11.5176 34.9786C11.8946 33.5571 11.3314 32.9309 9.67568 32.9309H8.60054V35.5399ZM13.5908 35.5524V38.1738L15.0255 38.0992C16.7476 38.0098 17.1236 37.3339 15.5245 37.2022C14.0397 37.0797 14.097 35.6642 15.5869 35.6642C16.3077 35.6642 16.5849 35.5606 16.5849 35.2915C16.5849 35.0224 16.3077 34.9187 15.5869 34.9187C14.6886 34.9187 14.5888 34.8566 14.5888 34.2975C14.5888 33.7385 14.6886 33.6763 15.5869 33.6763C16.3077 33.6763 16.5849 33.5727 16.5849 33.3036C16.5849 33.0137 16.2523 32.9309 15.0879 32.9309H13.5908V35.5524ZM19.9628 33.49C18.0992 35.1128 19.1584 38.1489 21.5884 38.1489C22.8547 38.1489 23.3218 37.941 23.3218 37.3769C23.3218 36.826 23.2893 36.8188 22.4787 37.1866C21.5415 37.6117 20.6213 37.2641 20.1657 36.3127C19.4022 34.7185 20.881 33.2127 22.5822 33.852C23.2319 34.0963 23.3218 34.0756 23.3218 33.6813C23.3218 32.7473 20.9699 32.6131 19.9628 33.49ZM26.0664 33.3036C26.0664 33.5521 26.3159 33.6763 26.8149 33.6763H27.5635V35.9126C27.5635 37.7347 27.6328 38.1489 27.9377 38.1489C28.2426 38.1489 28.312 37.7347 28.312 35.9126V33.6763H29.0605C29.5596 33.6763 29.8091 33.5521 29.8091 33.3036C29.8091 33.0055 29.4348 32.9309 27.9377 32.9309C26.4407 32.9309 26.0664 33.0055 26.0664 33.3036ZM32.2458 33.656C30.3919 35.3054 31.628 38.1489 34.1987 38.1489C35.8218 38.1489 36.7954 37.1707 36.7954 35.5399C36.7954 33.1125 34.1074 31.9996 32.2458 33.656ZM39.54 35.5581C39.54 38.3897 40.3018 39.5407 40.4889 36.9918C40.5591 36.0332 40.6237 35.9519 41.4358 35.8003C42.245 35.649 42.7837 34.9923 42.7837 34.1572C42.7837 33.5315 41.7447 32.9309 40.6628 32.9309H39.54V35.5581ZM45.4053 35.2477C44.7868 36.5656 44.2808 37.7576 44.2808 37.8965C44.2808 38.4029 45.0478 38.132 45.3242 37.5277C45.5613 37.0094 45.7811 36.9066 46.6511 36.9066C47.5212 36.9066 47.741 37.0094 47.978 37.5277C48.3431 38.3259 49.133 38.3934 48.8818 37.605C48.6819 36.9779 46.8545 33.1749 46.6599 32.9811C46.5883 32.9098 46.0236 33.9295 45.4053 35.2477ZM51.5166 35.5399C51.5166 37.9832 51.5483 38.1489 52.0157 38.1489C52.4481 38.1489 52.5147 37.9832 52.5147 36.9066V35.6642H53.7622H55.0098V36.9066C55.0098 37.8453 55.1014 38.1489 55.3841 38.1489C55.693 38.1489 55.7583 37.6935 55.7583 35.5399C55.7583 33.3864 55.693 32.9309 55.3841 32.9309C55.1226 32.9309 55.0098 33.1933 55.0098 33.8006V34.6703H53.7622H52.5147V33.8006C52.5147 33.0966 52.4196 32.9309 52.0157 32.9309C51.5483 32.9309 51.5166 33.0966 51.5166 35.5399ZM61.3012 35.4748C61.3823 38.3788 62.2457 39.7042 62.2457 36.9247V35.6642H63.4932H64.7408V36.9247C64.7408 37.9914 64.8079 38.1725 65.1774 38.1022C65.9025 37.9638 65.9716 32.9309 65.2485 32.9309C64.8346 32.9309 64.7408 33.0917 64.7408 33.8006V34.6703H63.4932H62.2457V33.8006C62.2457 33.0917 62.1518 32.9309 61.7379 32.9309C61.2556 32.9309 61.2336 33.0589 61.3012 35.4748ZM69.8987 33.7057C69.6978 34.1678 69.1781 35.3128 68.7442 36.2501C68.3101 37.1873 68.0129 38.0118 68.0837 38.0821C68.3343 38.3316 69.0316 37.891 69.1601 37.4023C69.3712 36.5984 71.3004 36.6944 71.6817 37.5277C71.8461 37.8873 72.175 38.1489 72.4622 38.1489C72.914 38.1489 72.8579 37.9333 71.8299 35.7263C70.4409 32.7441 70.3558 32.6549 69.8987 33.7057ZM78.2144 35.5399V38.1489H79.2816C81.1185 38.1489 82.2258 36.6079 81.0733 35.6555C80.8064 35.4348 80.7679 35.2582 80.9486 35.0783C81.9032 34.1276 80.9451 32.9309 79.229 32.9309H78.2144V35.5399ZM84.8929 33.656C82.4993 35.7857 85.2966 39.2688 88.1999 37.7737C89.1293 37.2949 89.4425 36.7003 89.4425 35.413C89.4425 33.1116 86.6966 32.0511 84.8929 33.656ZM92.9356 34.2605C92.9356 35.6686 92.5387 37.155 92.1627 37.155C92.0389 37.155 91.9376 37.6023 91.9376 38.1489C91.9376 38.8668 92.0416 39.1429 92.3119 39.1429C92.5197 39.1429 92.6861 38.922 92.6861 38.6459C92.6861 38.1962 92.8526 38.1489 94.4327 38.1489C96.0336 38.1489 96.1793 38.1919 96.1793 38.664C96.1793 39.0206 96.3138 39.1538 96.616 39.0969C97.205 38.9858 97.3725 37.4624 96.8191 37.2509C96.5079 37.1322 96.4288 36.6787 96.4288 35.0164V32.9309H94.6822H92.9356V34.2605ZM99.6725 35.5399V38.1489H101.188C103.007 38.1489 103.359 37.3471 101.604 37.2022C100.121 37.0797 100.18 35.6642 101.669 35.6642C102.389 35.6642 102.667 35.5606 102.667 35.2915C102.667 35.0224 102.389 34.9187 101.669 34.9187C100.77 34.9187 100.671 34.8566 100.671 34.2975C100.671 33.7385 100.77 33.6763 101.669 33.6763C102.389 33.6763 102.667 33.5727 102.667 33.3036C102.667 33.0137 102.334 32.9309 101.17 32.9309H99.6725V35.5399ZM10.6191 34.0759C10.902 34.4156 10.8806 34.5276 10.4771 34.8213C9.77649 35.3315 9.59859 35.2507 9.59859 34.4218C9.59859 33.5911 10.0794 33.4284 10.6191 34.0759ZM35.0391 33.9196C35.749 34.2978 36.0481 35.4366 35.6716 36.3279C35.1499 37.5638 33.9018 37.7747 32.9167 36.7935C31.4441 35.3272 33.2052 32.9423 35.0391 33.9196ZM41.3909 33.8272C42.1919 34.1333 41.7105 35.1672 40.7671 35.1672C40.6411 35.1672 40.5381 34.8318 40.5381 34.4218C40.5381 33.6632 40.688 33.5586 41.3909 33.8272ZM80.233 34.0759C80.5159 34.4156 80.4945 34.5276 80.091 34.8213C79.333 35.3732 78.963 35.2423 78.963 34.4218C78.963 33.5717 79.6556 33.3831 80.233 34.0759ZM87.9454 34.1733C89.0253 35.2487 88.2373 37.4035 86.7642 37.4035C85.9822 37.4035 84.9513 36.3438 84.9513 35.5399C84.9513 34.064 86.9291 33.1613 87.9454 34.1733ZM95.4308 35.4157V37.155H94.406C93.531 37.155 93.4065 37.0914 93.5532 36.7202C93.648 36.4809 93.788 35.6982 93.8643 34.9809C93.9963 33.7434 94.0402 33.6763 94.7172 33.6763H95.4308V35.4157ZM47.0005 35.3536C47.2662 35.8622 47.236 35.9126 46.6654 35.9126C46.0865 35.9126 46.06 35.8647 46.3228 35.2905C46.4792 34.9481 46.6302 34.6966 46.6579 34.7314C46.6856 34.7662 46.8398 35.046 47.0005 35.3536ZM70.5674 35.8724C70.0516 35.9877 69.9753 35.862 70.1524 35.1878L70.3044 34.6091L70.624 35.1988C70.8945 35.6972 70.8855 35.8013 70.5674 35.8724ZM80.46 36.5073C80.46 37.0825 80.0503 37.4035 79.3168 37.4035C79.09 37.4035 78.963 37.1359 78.963 36.6581C78.963 35.9954 79.0461 35.9126 79.7115 35.9126C80.3348 35.9126 80.46 36.0123 80.46 36.5073Z" fill="black"/>
</svg>
