<svg width="115" height="60" viewBox="0 0 115 60" fill="none" xmlns="http://www.w3.org/2000/svg">
<path fill-rule="evenodd" clip-rule="evenodd" d="M55.9179 0.91929C54.1948 1.06747 51.689 1.62999 50.6077 2.11138C50.4295 2.19075 50.2538 2.25564 50.2172 2.25564C49.7876 2.25564 46.4889 4.20583 45.5856 4.99393C42.9822 7.26501 41.24 10.1438 40.8627 12.7977C40.7439 13.6333 40.8301 13.5978 38.7279 13.6776C37.6932 13.7168 36.6617 13.7662 36.4355 13.7873C36.2093 13.8083 35.284 13.8581 34.3793 13.8979C33.4746 13.9377 32.5724 13.9841 32.3745 14.0009C32.1766 14.0177 31.5751 14.059 31.038 14.0925C22.8972 14.6015 22.9929 14.5917 23.0378 14.9097C23.0752 15.1742 23.004 15.1723 25.7947 14.9873C28.887 14.7824 30.452 14.6839 32.4259 14.5701C33.5003 14.5081 35.0732 14.4148 35.9214 14.3628C36.7696 14.3109 38.1807 14.2547 39.0571 14.2379L40.6507 14.2076L40.7039 15.3459C40.7701 16.7624 41.0331 16.6044 38.3889 16.7367C37.1449 16.7989 35.2249 16.8974 34.1223 16.9556C33.0196 17.0138 31.6086 17.0834 30.9866 17.1104C30.3646 17.1374 29.3005 17.204 28.6219 17.2582C27.9434 17.3124 26.8793 17.3861 26.2573 17.4219C25.6353 17.4577 24.8951 17.5056 24.6123 17.5285C24.3296 17.5513 23.4506 17.62 22.659 17.681C20.2592 17.8663 19.0148 17.9661 17.7755 18.0728C17.1252 18.1289 15.9223 18.2276 15.1024 18.2924C14.2825 18.3572 13.3884 18.4541 13.1155 18.5078C12.8426 18.5615 12.3488 18.6055 12.0181 18.6055C11.6875 18.6055 11.1937 18.6501 10.9207 18.7046C10.6479 18.7591 9.84628 18.8574 9.13947 18.9231C7.31542 19.0927 6.23715 19.2029 5.23269 19.3223C4.75206 19.3796 3.73815 19.4955 2.97962 19.58C1.46759 19.7485 1.07383 19.9167 1.48014 20.2207C1.59343 20.3055 1.77808 20.3469 1.89138 20.3128C2.00447 20.2788 2.49024 20.2084 2.97088 20.1565C3.45151 20.1044 4.23801 20.014 4.71865 19.9555C5.56343 19.8527 7.74825 19.6159 9.55071 19.4318C10.0313 19.3827 10.8872 19.2921 11.4527 19.2306C12.0181 19.1691 13.2673 19.0499 14.2286 18.9657C15.1898 18.8817 16.2308 18.7891 16.5418 18.76C19.2981 18.5022 21.2269 18.3396 23.3786 18.1832C27.765 17.8645 33.7871 17.4909 35.6644 17.421C36.2581 17.3988 37.6697 17.3467 38.8011 17.305L40.8584 17.2291L41.2483 18.412C41.6062 19.4976 42.6429 21.6113 42.9674 21.9169C42.9976 21.9453 43.1249 22.1029 43.2501 22.2672C45.3236 24.9846 48.7004 27.1735 52.3196 28.1462C59.4381 30.0593 67.6139 27.8822 71.6956 22.9865C72.02 22.5974 72.3734 22.1739 72.4807 22.0454C72.588 21.917 72.6759 21.7858 72.6759 21.754C72.6759 21.7221 72.7836 21.5479 72.9152 21.3667C73.4383 20.6464 74.1747 18.9594 74.5225 17.6848L74.6467 17.2295L76.72 17.3111C77.8602 17.3559 79.3085 17.4054 79.9383 17.4209C80.5682 17.4365 81.933 17.5024 82.9712 17.5674C84.0095 17.6325 85.576 17.7297 86.4525 17.7834C87.3289 17.8371 88.6706 17.9268 89.4339 17.9828C90.1973 18.0389 91.4927 18.1291 92.3126 18.1833C95.0038 18.3616 96.7747 18.5098 97.4135 18.6102C97.7594 18.6645 98.3056 18.709 98.6275 18.709C98.9493 18.709 99.5223 18.7535 99.9007 18.8078C100.279 18.8622 101.167 18.9589 101.874 19.0229C105.211 19.3249 108.53 19.6705 110.818 19.9544C111.299 20.014 112.062 20.1026 112.515 20.1511C112.967 20.1997 113.479 20.2717 113.651 20.311C113.881 20.3633 114.003 20.3371 114.105 20.2132C114.376 19.885 114.035 19.7448 112.557 19.5768C111.799 19.4905 110.808 19.3766 110.356 19.3238C109.518 19.2259 108.877 19.156 106.141 18.8644C102.771 18.5055 97.5353 18.014 96.1166 17.9237C95.749 17.9003 94.9394 17.8345 94.3174 17.7774C92.7524 17.6338 87.235 17.2572 83.728 17.0546C82.7667 16.999 80.7774 16.9009 79.3072 16.8365C77.837 16.7722 76.2232 16.6898 75.7211 16.6536L74.8079 16.5877L74.8274 15.4555C74.8382 14.8328 74.8672 14.2906 74.8918 14.2506C74.9519 14.1526 81.4245 14.4125 84.0878 14.6199C84.3988 14.6441 85.1622 14.6902 85.7842 14.7223C87.4256 14.8071 89.7177 14.9695 91.0977 15.0989C92.3675 15.2179 92.5182 15.1942 92.5182 14.8761C92.5182 14.5783 93.3354 14.6596 84.2934 14.0574C83.4735 14.0027 82.1087 13.9285 81.2606 13.8925C80.4124 13.8565 79.4871 13.8105 79.2044 13.7901C78.9216 13.7697 77.8437 13.7199 76.8089 13.6793C74.7073 13.597 74.7937 13.6326 74.6735 12.7977C73.9191 7.55579 68.5505 2.60271 62.2407 1.3269C61.9015 1.25829 61.4157 1.15885 61.1612 1.10576C59.955 0.854202 57.6352 0.771728 55.9179 0.91929ZM59.4579 1.43038C61.3969 1.6509 63.0588 1.97117 63.2637 2.16385C63.3174 2.21435 63.4562 2.25719 63.5721 2.25905C63.763 2.26205 64.1063 2.3735 65.1708 2.7779C68.7993 4.15646 73.6012 8.82187 73.6012 10.9687C73.6012 11.0484 73.638 11.1577 73.6831 11.2119C73.7823 11.3311 73.9457 11.8394 74.1307 12.6037C74.3172 13.3742 74.3175 16.4082 74.1311 17.1051C73.18 20.6625 71.3403 23.2195 68.2551 25.2722C67.3347 25.8847 65.2257 26.9874 64.9749 26.9874C64.9118 26.9874 64.6641 27.0733 64.4243 27.1783C63.8557 27.4275 63.3754 27.5817 62.7495 27.7161C62.4696 27.7763 62.0557 27.869 61.8295 27.9223C51.5974 30.3327 40.9215 23.355 41.2421 14.4663C41.5236 6.66462 50.2941 0.388022 59.4579 1.43038ZM56.0208 2.36501C49.5032 2.97058 43.941 7.03084 42.7038 12.0863C42.6132 12.4562 42.4959 12.9019 42.4431 13.0767C41.7796 15.2717 42.9281 19.4639 44.8061 21.7022C52.8095 31.2407 70.4628 28.248 73.0302 16.9175C73.2102 16.1233 73.2516 13.5962 73.093 13.0767C73.0397 12.9019 72.9187 12.4329 72.824 12.0345C72.2575 9.65075 70.1219 6.82005 67.6578 5.18661C66.5128 4.42769 64.4948 3.39392 64.1581 3.39392C64.0916 3.39392 63.9567 3.35066 63.8586 3.29789C62.5424 2.58998 58.6218 2.12339 56.0208 2.36501ZM60.5016 3.58246C60.7231 3.63948 61.1942 3.73882 61.5486 3.80318C62.2257 3.92612 63.058 4.1606 63.5773 4.3747C63.7469 4.44466 64.1633 4.61188 64.5026 4.7462C66.152 5.39968 67.9597 6.61267 69.1371 7.85609C72.2515 11.1452 72.981 15.3003 71.1059 19.0712C70.5623 20.1646 69.6796 21.3371 68.6664 22.3119C68.3341 22.6315 66.8409 23.7795 66.7573 23.7795C66.7221 23.7795 66.5618 23.8738 66.401 23.989C65.602 24.5617 63.3328 25.487 61.8809 25.8321C61.6265 25.8926 61.1638 26.0027 60.8528 26.0767C60.0594 26.2655 55.6987 26.2608 54.7601 26.07C53.598 25.8338 53.6355 25.7988 55.8665 25.0384C59.2232 23.8942 59.4135 23.8017 59.4135 23.3139C59.4135 22.9579 59.024 22.6927 57.8928 22.2783C56.9565 21.9354 56.53 21.6101 57.1114 21.6824C58.7358 21.8844 59.7158 22.0714 60.75 22.3762C63.1768 23.0919 63.6679 23.1884 64.9382 23.1994C65.6301 23.2054 66.1852 23.1693 66.1719 23.1192C66.1585 23.069 65.708 23.0171 65.1708 23.0038C64.0429 22.9758 63.0793 22.7848 61.567 22.2895C60.3867 21.9029 59.8661 21.7847 58.3415 21.5568C57.0733 21.3672 57.0424 21.337 57.4741 20.7103C57.7894 20.2525 57.8203 20.1393 57.8335 19.3929L57.8479 18.5763L60.1985 18.5828C61.4914 18.5864 63.0908 18.6232 63.7527 18.6647C66.3887 18.83 67.9467 17.299 66.6963 15.7722C66.3831 15.3897 66.3764 15.3616 66.5112 14.9984C66.6899 14.5166 66.669 13.5348 66.4629 12.7342C66.3742 12.3899 66.3017 11.7917 66.3017 11.4049C66.3017 9.74047 65.7688 7.8831 65.1727 7.47052C64.2404 6.82512 63.0547 7.36094 62.3433 8.74902C61.984 9.45031 61.9186 9.43758 61.2852 8.54206C60.9933 8.12938 60.6906 7.71029 60.6124 7.61074C60.4475 7.40068 60.1041 7.38195 59.4511 7.54741C58.8545 7.6986 58.7362 7.5859 58.6216 6.75703L58.5359 6.13615L57.9361 6.13925C57.1681 6.14318 57.0488 6.2895 57.0488 7.22807V7.91818L56.5154 7.98182C54.995 8.16301 53.7 9.50433 52.2977 12.3504C51.7633 13.4348 51.7533 13.447 51.4471 13.383C50.6518 13.2167 50.4177 13.2084 50.0408 13.3337C49.01 13.676 48.4621 15.0285 48.5337 17.0533C48.5875 18.5714 48.9035 19.188 50.0874 20.0846C50.4378 20.3498 50.469 20.4155 50.469 20.8865V21.3995H50.9772H51.4853L51.517 20.9678C51.5621 20.3511 51.7433 20.3713 52.0628 21.0284C52.3475 21.614 52.9559 22.2466 53.5348 22.5588C53.8407 22.7237 53.8617 22.7714 53.8617 23.298C53.8617 23.8941 53.9377 23.9865 54.4282 23.9865C54.783 23.9865 54.9927 23.7172 54.9927 23.2616C54.9927 22.8744 55.0141 22.8504 55.6866 22.4861L56.3806 22.1103L57.6142 22.5347C59.7427 23.2668 59.7056 23.3236 56.3529 24.4648C55.7723 24.6624 54.9164 24.965 54.4509 25.1371C52.8226 25.7391 52.8707 25.741 51.1358 25.0141C47.5142 23.4965 44.6566 20.571 43.8148 17.519C43.7519 17.2913 43.6388 16.8955 43.5636 16.6394C43.3823 16.0235 43.3813 13.6386 43.562 13.0176C43.6366 12.7615 43.7437 12.3889 43.8002 12.1897C43.9085 11.8072 43.9259 11.7631 44.3428 10.8079C45.7854 7.50302 49.8698 4.58663 54.2402 3.74099C55.9469 3.41079 59.4868 3.32107 60.5016 3.58246ZM58.2659 6.61112C58.5061 7.2648 58.0236 8.04846 57.5886 7.71101C57.433 7.59035 57.4189 6.87272 57.5665 6.59498C57.7126 6.32034 58.1628 6.33069 58.2659 6.61112ZM64.9965 7.74268C65.5596 8.18857 65.8232 9.00576 65.8468 10.3788C65.8584 11.0618 65.9154 11.8301 65.9731 12.0863C66.5 14.4203 66.3402 15.3485 65.357 15.6625C65.2546 15.6952 65.1708 15.7604 65.1708 15.8074C65.1708 15.9854 65.518 16.0168 65.7554 15.8602C66.0786 15.647 66.3568 15.7457 66.5539 16.1433C67.0425 17.129 66.3492 18.1882 65.1902 18.2271L64.7082 18.2433L64.7237 17.8294C64.7841 16.2204 64.9028 14.7075 64.976 14.6141C65.2857 14.2186 64.8319 13.3296 63.2431 11.2196C62.3069 9.97609 62.3026 9.96223 62.6124 9.12911C63.0815 7.86706 64.2762 7.1724 64.9965 7.74268ZM59.9705 7.8029C60.3642 7.95491 60.0011 8.36097 59.4717 8.36097C59.0935 8.36097 59.1452 8.54858 59.5341 8.58728C59.9999 8.63354 60.0424 8.87837 59.5846 8.87837C59.1155 8.87837 58.8994 8.96705 58.8994 9.15963C58.8994 9.28267 58.978 9.30047 59.2743 9.24459C59.5368 9.19502 59.6749 9.21479 59.7354 9.31061C59.8912 9.55803 59.8305 9.60274 59.3364 9.60429C58.7133 9.60636 58.4587 9.75133 58.7219 9.95415C58.8939 10.0867 58.8917 10.098 58.6854 10.1523C58.2843 10.2579 58.5266 10.4847 59.006 10.4525C59.5975 10.4128 59.7868 10.4859 59.619 10.6894C59.5497 10.7734 59.4513 10.8162 59.4003 10.7846C59.2659 10.701 58.1798 10.945 58.1798 11.0588C58.1798 11.1117 58.4777 11.1549 58.8419 11.1549C59.885 11.1549 59.8783 11.4115 58.833 11.499C58.5421 11.5234 58.2479 11.5782 58.1794 11.6208C57.9424 11.7683 58.2965 11.8628 58.865 11.8039C59.3138 11.7572 59.4135 11.7757 59.4135 11.9055C59.4135 12.1159 59.1954 12.1897 58.574 12.1897C57.8945 12.1897 57.9517 12.4267 58.6504 12.5056C59.2086 12.5686 59.1067 12.6569 58.3597 12.7575C57.6304 12.8557 57.7291 13.0826 58.474 13.0201C58.6373 13.0064 58.7013 13.0451 58.6694 13.138C58.6406 13.2219 58.5016 13.2645 58.3158 13.2462C58.1474 13.2296 57.8744 13.2727 57.7092 13.3418L57.4087 13.4674L57.7685 13.5271C58.3016 13.6155 58.243 13.8781 57.6836 13.9071C56.992 13.9429 56.9989 14.2539 57.6914 14.2578C57.9816 14.2593 58.0657 14.3971 57.8563 14.5274C57.7914 14.5677 57.4941 14.5927 57.1956 14.5828C56.897 14.5731 56.6234 14.6126 56.5876 14.6709C56.5506 14.7312 56.6246 14.7775 56.76 14.7783C57.4628 14.7831 57.2564 15.1876 56.5338 15.2219C56.1181 15.2418 56.0898 15.2221 55.6692 14.6229C54.8663 13.4787 54.3704 13.4259 53.3156 14.3721C52.6524 14.9672 52.5843 14.959 52.2318 14.2418C52.0024 13.7752 51.9909 13.8301 52.5981 12.5002C53.8177 9.82884 55.2333 8.48049 57.0603 8.24994C58.1275 8.11521 59.647 7.84999 59.709 7.78759C59.769 7.72726 59.7756 7.72757 59.9705 7.8029ZM60.906 8.53347C61.0763 8.79507 61.0764 8.81618 60.9075 8.94046C60.6887 9.10158 60.7863 9.29116 61.0902 9.2954C61.3104 9.2985 61.3108 9.3012 61.1098 9.4142C60.9967 9.47773 60.8824 9.54872 60.8558 9.5719C60.7613 9.65396 61.1144 9.80669 61.4183 9.81508C61.715 9.82336 61.7179 9.82801 61.4954 9.93594C61.1128 10.1217 61.2105 10.3271 61.6814 10.3271C61.9489 10.3271 62.0745 10.3664 62.0314 10.4367C61.9944 10.497 61.8644 10.5384 61.7425 10.5287C61.3178 10.495 61.1612 10.535 61.1612 10.6772C61.1612 10.7559 61.2551 10.845 61.3698 10.8752C61.4845 10.9054 61.5655 10.9924 61.5498 11.0684C61.5304 11.1616 61.6721 11.2251 61.9837 11.263C62.4207 11.3162 61.5985 11.4363 60.3388 11.5035C60 11.5215 60.0013 11.3296 60.356 9.00772C60.4806 8.19199 60.6107 8.07982 60.906 8.53347ZM59.6191 10.0167C59.7348 10.0919 59.6833 10.1169 59.4135 10.1169C59.1436 10.1169 59.0922 10.0919 59.2079 10.0167C59.2927 9.9615 59.3852 9.91638 59.4135 9.91638C59.4417 9.91638 59.5343 9.9615 59.6191 10.0167ZM63.8666 12.7419C64.7037 14.0058 64.7665 14.1528 64.6045 14.4679C64.5253 14.6223 64.4276 15.4261 64.368 16.4161C64.2493 18.3869 64.3269 18.2445 63.3932 18.2062C62.3977 18.1652 62.395 18.1615 62.395 16.8807C62.395 15.4037 62.1156 15.1003 61.034 15.4027C60.5068 15.5501 60.4416 15.7302 60.4416 17.0396C60.4416 18.3657 60.5103 18.2952 59.2483 18.2628C58.0875 18.233 58.0009 18.1038 57.813 16.122L57.7493 15.4494L58.271 14.7058C58.558 14.2967 58.8791 13.8078 58.9846 13.6192C60.0064 11.7918 59.949 11.8545 60.5625 11.8989L61.007 11.931L61.0386 12.5002C61.0769 13.1909 61.1341 13.2594 61.5503 13.1133C61.8811 12.9973 62.1021 12.4662 61.9336 12.1919C61.7852 11.9502 62.066 11.8275 62.6878 11.8623L63.3071 11.897L63.8666 12.7419ZM51.0307 13.7324C51.2201 13.807 51.2155 13.823 50.9544 13.9952C50.5808 14.2415 50.6963 14.3784 51.2085 14.2959C51.5414 14.2423 51.6176 14.2582 51.58 14.3733C51.554 14.4529 51.3859 14.5326 51.2065 14.5504C50.833 14.5876 50.7442 14.8802 51.1064 14.8802C51.2823 14.8802 51.3052 14.9079 51.2092 15.0044C51.1414 15.0727 51.0859 15.1891 51.0859 15.2631C51.0859 15.4286 51.5155 15.4412 51.6753 15.2804C51.8055 15.1493 52.114 15.2294 52.114 15.3944C52.114 15.4531 51.9808 15.5011 51.8181 15.5011C51.3037 15.5011 51.0381 16.3797 51.5302 16.4531C51.8222 16.4967 51.8642 16.72 51.5882 16.7608C51.274 16.8071 51.2312 17.0122 51.5186 17.094L51.7541 17.161L51.4603 17.4045C51.261 17.5698 51.2053 17.6723 51.2874 17.7234C51.3539 17.7647 51.3822 17.8671 51.3503 17.9509C51.3183 18.0346 51.3403 18.1936 51.3991 18.3041C51.4817 18.4594 51.47 18.519 51.3473 18.5664C51.1565 18.6401 51.138 18.8776 51.3172 18.9524C51.4064 18.9897 51.3758 19.068 51.217 19.2084C50.99 19.409 50.9897 19.411 51.1994 19.4662C51.4804 19.5402 51.4307 19.9909 51.1373 20.0295C50.8125 20.0722 49.8793 19.4694 49.5396 18.9972C48.119 17.0233 49.2495 13.0315 51.0307 13.7324ZM59.6787 13.7749C59.5263 13.887 59.5054 13.9917 59.5648 14.3459C59.6939 15.1151 60.2555 15.1208 60.3685 14.3539C60.4511 13.793 60.0789 13.4803 59.6787 13.7749ZM61.2991 13.7158C61.0704 13.8664 61.0867 14.8247 61.3185 14.855C61.6636 14.9 61.7928 14.7275 61.8116 14.1966C61.8299 13.6779 61.6347 13.4947 61.2991 13.7158ZM62.9861 13.708C62.5635 13.8234 62.8295 14.9676 63.2821 14.9804C63.4561 14.9854 63.648 14.4346 63.6104 14.0388C63.5765 13.6812 63.4091 13.5924 62.9861 13.708ZM54.2358 14.4169C54.0366 14.5635 54.0137 14.8448 54.1959 14.9065C54.2962 14.9406 54.2938 14.9874 54.1843 15.1209C53.9508 15.4056 54.3152 15.454 54.7499 15.1959C55.003 15.0456 55.1596 15.0069 55.2296 15.0774C55.3752 15.2239 55.1866 15.4265 54.7406 15.6026C54.2728 15.7873 54.2368 16.0723 54.6929 15.9805C54.8672 15.9455 55.1416 15.8224 55.3025 15.707C55.5148 15.5548 55.6157 15.5309 55.6703 15.6198C55.7548 15.7574 55.3122 16.1528 54.8654 16.3391C54.7092 16.4043 54.5814 16.5217 54.5814 16.6002C54.5814 16.8497 54.9759 16.7547 55.493 16.3807C56.0115 16.0058 56.1236 15.957 56.1236 16.1062C56.1236 16.3014 55.7201 16.643 55.4177 16.7039C55.2404 16.7396 55.0955 16.8328 55.0955 16.911C55.0955 17.1079 55.7535 17.0975 55.9179 16.8981C56.0633 16.7218 56.2874 16.6947 56.3781 16.8424C56.4446 16.9506 55.7165 17.3638 55.4594 17.3638C55.3723 17.3638 55.3011 17.4336 55.3011 17.519C55.3011 17.6185 55.4025 17.6753 55.5838 17.6775C55.8408 17.6805 55.8502 17.6932 55.6866 17.8182C55.2444 18.1561 55.5655 18.2684 56.3035 18.034C56.7078 17.9055 56.5539 18.1527 56.1236 18.3228C55.6643 18.5043 55.5794 18.709 55.9633 18.709C56.1013 18.709 56.2428 18.7556 56.2778 18.8125C56.3127 18.8694 56.2923 18.916 56.2324 18.916C56.0742 18.916 56.0991 19.0835 56.2851 19.2708C56.432 19.4186 56.4274 19.4334 56.2337 19.4334C56.1166 19.4334 56.0208 19.4768 56.0208 19.5299C56.0208 19.6556 56.4 19.7759 56.5339 19.6927C56.5909 19.6572 56.6376 19.6724 56.6376 19.7266C56.6376 19.8802 56.3573 19.9513 56.0196 19.8833C55.7578 19.8305 55.7123 19.853 55.7123 20.0352C55.7123 20.1528 55.6629 20.2797 55.6025 20.3173C55.5421 20.3549 55.5171 20.4495 55.5468 20.5277C55.5766 20.6058 55.5415 20.7059 55.469 20.75C55.3964 20.7942 55.307 20.9123 55.2704 21.0124C55.2339 21.1125 55.1489 21.1824 55.0817 21.1676C55.0144 21.1529 54.9253 21.2572 54.8835 21.3995C54.8417 21.5418 54.803 21.6175 54.7973 21.568C54.7917 21.5183 54.7182 21.5352 54.6339 21.6055C54.5497 21.6759 54.5042 21.7715 54.5328 21.818C54.6124 21.9475 54.4351 22.0178 54.277 21.9194C54.1837 21.8613 54.0771 21.9062 53.9589 22.0532C53.6406 22.4488 52.6807 21.6666 52.143 20.5734C51.5236 19.3144 52.0587 16.2713 53.1183 15.0263C53.4722 14.6107 54.315 14.0241 54.3606 14.1618C54.3845 14.234 54.3283 14.3488 54.2358 14.4169ZM57.332 15.8892C57.5551 16.6728 57.6903 17.8978 57.5673 18.0216C57.4219 18.1679 57.2986 17.9928 57.1404 17.4155C57.0779 17.1878 56.9394 16.7741 56.8322 16.4963C56.6043 15.9045 56.5951 15.7922 56.761 15.6253C56.9977 15.387 57.2181 15.4888 57.332 15.8892ZM51.9084 15.915C51.9084 15.9719 51.8621 16.0185 51.8055 16.0185C51.749 16.0185 51.7027 15.9719 51.7027 15.915C51.7027 15.8581 51.749 15.8116 51.8055 15.8116C51.8621 15.8116 51.9084 15.8581 51.9084 15.915ZM57.0488 18.4984C57.0488 18.6449 56.6522 18.8338 56.5188 18.7508C56.4465 18.7058 56.4946 18.6291 56.6494 18.5427C56.9457 18.3775 57.0488 18.366 57.0488 18.4984ZM57.0488 19.1626C57.0488 19.1844 56.9332 19.2245 56.7918 19.2518C56.6505 19.279 56.5348 19.2611 56.5348 19.212C56.5348 19.1631 56.6505 19.1229 56.7918 19.1229C56.9332 19.1229 57.0488 19.1408 57.0488 19.1626ZM57.021 20.3237C56.9869 20.3581 56.8981 20.3618 56.824 20.3319C56.742 20.2989 56.7663 20.2743 56.8861 20.2694C56.9945 20.2649 57.0551 20.2894 57.021 20.3237ZM55.9649 21.7028C55.9975 21.7558 55.9851 21.8233 55.9375 21.853C55.8162 21.9285 55.4039 21.8085 55.4039 21.6978C55.4039 21.5759 55.8897 21.5802 55.9649 21.7028ZM97.4494 26.3407C97.2671 26.7818 96.9852 27.4349 96.8229 27.792C96.6607 28.1491 96.5278 28.4637 96.5278 28.491C96.5278 28.5183 96.4122 28.782 96.2708 29.0769C96.1294 29.3718 96.0138 29.6478 96.0138 29.69C96.0138 29.7323 95.8796 30.0612 95.7155 30.4209C95.5515 30.7806 95.0596 31.9131 94.6225 32.9375C94.1852 33.962 93.6439 35.2193 93.4195 35.7315C93.195 36.2437 92.9013 36.9275 92.7667 37.251C92.6321 37.5746 92.3824 38.1461 92.2118 38.5212C92.041 38.8963 91.9014 39.2296 91.9014 39.2615C91.9014 39.2936 91.7626 39.6216 91.5929 39.9906C91.4233 40.3595 91.2845 40.6801 91.2845 40.7032C91.2845 40.7263 91.1457 41.0501 90.9761 41.4229C90.8064 41.7958 90.6677 42.1195 90.6677 42.1423C90.6677 42.1652 90.5146 42.5249 90.3275 42.9417C90.1405 43.3585 89.8997 43.909 89.7924 44.1652C88.5312 47.1792 86.8943 49.3518 85.2701 50.1676C83.9437 50.834 83.9569 50.8363 89.3054 50.8665C94.7339 50.8973 95.1046 50.8364 93.1514 50.235C90.8662 49.5315 89.6579 47.621 90.3463 45.7998C90.3957 45.6691 90.5188 45.306 90.6198 44.993C90.7208 44.68 90.9116 44.1823 91.0439 43.8872C91.1763 43.5921 91.2845 43.3245 91.2845 43.2926C91.2845 43.2607 91.4451 42.8848 91.6414 42.457L91.9982 41.6794L96.3963 41.7064L100.794 41.7334L101.277 42.8717C101.862 44.2501 101.964 44.4899 102.445 45.6139C103.94 49.1072 103.561 50.0532 100.512 50.4415C98.1698 50.7399 99.9616 50.8914 105.832 50.8914C112.071 50.8914 112.64 50.836 111.204 50.3683C110.234 50.0525 109.346 49.3796 108.777 48.5287C108.455 48.0464 107.014 45.1989 107.014 45.0433C107.014 45.0185 106.871 44.6827 106.695 44.2971C106.519 43.9115 106.293 43.3865 106.192 43.1303C106.091 42.8742 105.893 42.4086 105.753 42.0955C105.069 40.5687 104.65 39.6072 104.65 39.563C104.65 39.517 104.544 39.2747 103.891 37.8242C103.743 37.4953 103.622 37.2055 103.622 37.18C103.622 37.1546 103.479 36.8182 103.304 36.4326C102.929 35.6038 103.023 35.8199 101.463 32.2132C100.946 31.018 100.456 29.8888 100.376 29.7038C100.13 29.1413 99.96 28.7399 99.5087 27.66C98.5902 25.4628 98.6376 25.5387 98.1838 25.5387H97.7808L97.4494 26.3407ZM6.94674 26.1246C6.74729 26.3253 6.89626 26.55 7.26833 26.6099C9.08292 26.9019 10.0679 28.1631 10.2614 30.4422C10.5272 33.5729 10.376 47.1833 10.067 47.9422C10.0207 48.056 9.9236 48.3066 9.85143 48.4992C9.5688 49.2527 8.78087 49.8682 7.57162 50.2803C5.88163 50.8562 6.19088 50.8914 12.9434 50.8914C19.0864 50.8914 20.4279 50.7876 18.7265 50.4438C16.792 50.053 15.697 49.3771 15.1364 48.2282L14.8454 47.6317V42.6129V37.5942L15.9094 37.5646C19.3818 37.4679 20.7843 38.4483 21.5778 41.5264L21.8445 42.5612H22.2003H22.5562L22.5829 37.7875L22.6096 33.0138L22.3395 32.9619C22.0433 32.9048 21.6823 33.1797 21.6823 33.4622C21.6823 34.1674 20.7453 35.6181 19.9466 36.1493C19.1493 36.6796 15.6646 37.2643 14.9488 36.9879C14.68 36.884 14.7676 29.3352 15.0462 28.595C15.6703 26.9372 17.7555 26.2695 20.757 26.7663C23.442 27.2107 25.3948 28.9818 26.4209 31.9027C26.7356 32.7988 26.7218 32.7823 27.1577 32.7823H27.5706L27.4949 32.0838C27.4533 31.6997 27.3837 30.9895 27.3403 30.5058C27.1447 28.3254 27.0111 27.0037 26.943 26.5735L26.8694 26.1078L16.9425 26.0815C11.4828 26.067 6.98468 26.0863 6.94674 26.1246ZM96.9143 32.7375C97.1606 33.3028 97.4491 33.9807 97.5553 34.244C97.7428 34.7087 97.9328 35.1447 98.4416 36.2776C98.5765 36.578 98.6868 36.8613 98.6868 36.9072C98.6868 36.9532 98.84 37.3128 99.0272 37.7064C100.784 41.4003 101.052 41.0604 96.3978 41.053C91.8211 41.0457 92.1519 41.1591 92.7483 39.8021C93.007 39.2138 93.6687 37.6614 94.2189 36.3524C94.7691 35.0434 95.3518 33.6801 95.5137 33.323C95.6756 32.9659 95.8082 32.6574 95.8082 32.6377C95.8082 31.534 96.4137 31.5888 96.9143 32.7375ZM31.3978 35.7106C30.007 35.9483 29.1887 36.2575 28.1593 36.9345C23.5677 39.9535 23.6028 48.0072 28.2181 50.4361C28.7659 50.7243 29.1323 50.8624 30.3183 51.2274C31.9637 51.7338 35.1667 51.1858 36.8973 50.1018C38.7453 48.9442 39.534 48.0868 39.1742 47.6265L38.9828 47.3816L38.3774 47.9502C37.6755 48.6094 36.5468 49.3811 35.9353 49.6198C35.7015 49.7112 35.4631 49.8218 35.4054 49.8658C35.1525 50.0588 33.9225 50.1841 33.276 50.0828C30.8076 49.696 29.1747 47.2517 28.9353 43.5849C28.8511 42.2943 28.317 42.4122 34.3886 42.381L39.6226 42.3542L39.5924 41.8368C39.3518 37.7187 35.6853 34.9777 31.3978 35.7106ZM49.8914 35.7312C49.0171 36.0089 48.3471 36.648 47.6924 37.8288C47.3223 38.4964 47.234 38.3434 47.2014 36.9789L47.1724 35.7596L46.5331 35.8183C46.1816 35.8507 45.5239 35.9214 45.0715 35.9755C44.6191 36.0297 43.6476 36.1285 42.9125 36.1951C41.3054 36.3406 40.2753 36.8181 41.5685 36.8181C43.0601 36.8181 43.3015 37.866 43.2491 44.1134C43.2031 49.5756 43.155 49.7992 41.9151 50.3148C40.5526 50.8812 40.6133 50.8914 45.3824 50.8914C49.2486 50.8914 49.6625 50.8753 49.6061 50.7277C49.5718 50.6376 49.5437 50.5445 49.5437 50.5207C49.5437 50.4969 49.4275 50.4775 49.2853 50.4775C49.1432 50.4775 48.9465 50.4364 48.8483 50.3861C48.7501 50.3358 48.5381 50.2323 48.377 50.1561C47.2722 49.6337 47.1789 49.1785 47.1798 44.3135L47.1806 40.3881L47.848 39.1464C49.6681 35.7599 51.9512 35.3035 50.991 38.5181C50.4203 40.4286 50.9124 41.5781 52.301 41.5781C53.507 41.5781 54.0674 40.8585 54.0674 39.3098C54.0674 38.3836 54.026 38.2016 53.6241 37.3558C52.9567 35.9512 51.3714 35.2612 49.8914 35.7312ZM65.2222 35.7117C63.651 35.9677 62.7339 36.4671 61.4315 37.7762C60.5067 38.7058 60.4731 38.6827 60.4729 37.1119L60.4727 35.835L59.9174 35.8465C59.612 35.8528 58.9457 35.9088 58.4368 35.9706C57.1645 36.1257 55.3184 36.3136 54.9187 36.3288C54.3278 36.3515 54.4129 36.7136 55.0441 36.862C56.4845 37.2009 56.5349 37.4274 56.5342 43.5634C56.5336 49.6957 56.5356 49.6841 55.3347 50.2614C55.0617 50.3926 54.7718 50.5331 54.6904 50.5737C54.1214 50.857 54.5255 50.8914 58.4282 50.8914C60.61 50.8914 62.4296 50.8914 62.4721 50.8914C62.7607 50.8914 62.4807 50.5368 62.0865 50.4031C60.5801 49.8924 60.4143 49.2025 60.4622 43.6421L60.493 40.0663L61.1947 39.2195C63.3285 36.645 65.2256 36.0425 66.4876 37.5382C67.1396 38.311 67.2521 39.4052 67.2055 44.5273C67.1582 49.7409 67.1055 49.9495 65.7235 50.3929C64.3807 50.8237 64.8572 50.8914 69.2328 50.8914C73.2456 50.8914 73.6516 50.8578 73.081 50.5737C72.9996 50.5331 72.7156 50.3957 72.4499 50.2682C71.2308 49.6833 71.2117 49.5963 71.1577 44.3445L71.1132 40.0225L71.7073 39.2918C74.213 36.209 76.6337 35.8931 77.5792 38.5255C77.8537 39.2897 77.8643 48.6621 77.5914 49.2431C77.376 49.7016 76.81 50.2705 76.5693 50.2705C76.4702 50.2705 76.3606 50.3171 76.3257 50.374C76.2907 50.4309 76.1493 50.4775 76.0112 50.4775C75.8288 50.4775 75.7602 50.534 75.7602 50.6844C75.7602 50.8879 75.8288 50.8914 79.8298 50.8914C83.834 50.8914 84.2422 50.8576 83.6704 50.574C83.589 50.5335 83.266 50.3782 82.9525 50.2288C82.3782 49.955 82.1336 49.6695 81.8984 48.9983C81.823 48.7833 81.7597 47.1005 81.7185 44.2169C81.6408 38.7839 81.5435 38.3027 80.2619 37.0127C79.0637 35.8067 76.2229 35.2142 74.9135 35.8971C74.8153 35.9483 74.6893 35.9902 74.6335 35.9902C74.5226 35.9902 73.407 36.5046 73.2414 36.6321C72.6112 37.1172 71.2741 38.4366 71.1018 38.7435C70.9798 38.9607 70.8561 38.8396 70.524 38.1775C69.5784 36.292 67.5246 35.3367 65.2222 35.7117ZM33.0066 36.2419C34.7368 36.7705 35.4464 37.9256 35.6565 40.5552C35.7741 42.0282 36.1323 41.8918 32.2237 41.862L28.9371 41.8368L28.9642 41.3194C29.1068 38.5822 30.1781 36.7156 31.8688 36.258C32.5653 36.0696 32.4479 36.0712 33.0066 36.2419ZM0.933187 58.7817L0.966087 59.0146L13.9201 59.0391C26.7404 59.0633 88.4876 59.2021 88.3592 58.8653C88.3017 58.7146 25.8542 58.5489 13.9676 58.5489H0.900391L0.933187 58.7817ZM88.4391 58.7146C88.3106 59.0514 88.7966 59.0633 101.617 59.0391L114.571 59.0146L114.604 58.7817L114.637 58.5489H101.569C89.6828 58.5489 88.4965 58.5639 88.4391 58.7146Z" fill="black"/>
</svg>
