<svg width="179" height="94" viewBox="0 0 179 94" fill="none" xmlns="http://www.w3.org/2000/svg">
<path fill-rule="evenodd" clip-rule="evenodd" d="M86.7078 0.975568C84.0178 1.21071 80.1058 2.10335 78.4178 2.86725C78.1397 2.9932 77.8654 3.09616 77.8083 3.09616C77.1375 3.09616 71.9879 6.19084 70.5776 7.44145C66.5134 11.0453 63.7936 15.6136 63.2046 19.8249C63.0192 21.1509 63.1537 21.0946 59.872 21.2212C58.2567 21.2834 56.6463 21.3617 56.2932 21.3952C55.9401 21.4286 54.4956 21.5076 53.0832 21.5708C51.6708 21.634 50.2624 21.7076 49.9534 21.7342C49.6445 21.7609 48.7056 21.8265 47.867 21.8797C35.1581 22.6872 35.3076 22.6718 35.3777 23.1764C35.4361 23.5961 35.3249 23.593 39.6815 23.2996C44.509 22.9744 46.9523 22.8181 50.0337 22.6375C51.7109 22.5391 54.1666 22.391 55.4907 22.3086C56.8148 22.2261 59.0176 22.137 60.3859 22.1104L62.8736 22.0623L62.9568 23.8686C63.0601 26.1164 63.4707 25.8657 59.3427 26.0755C57.4006 26.1742 54.4033 26.3305 52.6819 26.423C50.9606 26.5153 48.7577 26.6258 47.7867 26.6686C46.8157 26.7115 45.1545 26.8171 44.0952 26.9031C43.0359 26.9892 41.3748 27.1061 40.4037 27.1629C39.4327 27.2197 38.2771 27.2958 37.8358 27.332C37.3944 27.3682 36.0221 27.4772 34.7863 27.5741C31.0399 27.868 29.0972 28.0265 27.1625 28.1958C26.1474 28.2848 24.2696 28.4414 22.9896 28.5442C21.7096 28.647 20.3137 28.8009 19.8878 28.8861C19.4616 28.9713 18.6908 29.0411 18.1746 29.0411C17.6584 29.0411 16.8875 29.1119 16.4614 29.1983C16.0355 29.2848 14.784 29.4408 13.6806 29.5451C10.833 29.8142 9.14972 29.9891 7.58164 30.1786C6.83131 30.2694 5.24846 30.4533 4.0643 30.5875C1.70383 30.8548 1.08912 31.1218 1.72342 31.6043C1.90029 31.7388 2.18854 31.8044 2.36541 31.7504C2.54196 31.6964 3.30032 31.5847 4.05066 31.5023C4.80099 31.4197 6.02881 31.2762 6.77914 31.1834C8.09797 31.0202 11.5087 30.6445 14.3226 30.3523C15.0729 30.2743 16.4091 30.1307 17.2918 30.0331C18.1746 29.9354 20.1247 29.7462 21.6253 29.6127C23.126 29.4794 24.751 29.3324 25.2366 29.2863C29.5395 28.8773 32.5507 28.6191 35.9098 28.371C42.7575 27.8652 52.1587 27.2724 55.0894 27.1614C56.0163 27.1263 58.22 27.0435 59.9863 26.9774L63.1979 26.857L63.8066 28.7341C64.3653 30.4568 65.9838 33.8109 66.4903 34.2958C66.5375 34.341 66.7362 34.5911 66.9317 34.8517C70.1687 39.1638 75.4402 42.6373 81.0903 44.1808C92.2033 47.2167 104.967 43.7619 111.339 35.9931C111.845 35.3756 112.397 34.7037 112.564 34.4998C112.732 34.296 112.869 34.0878 112.869 34.0373C112.869 33.9868 113.037 33.7102 113.243 33.4227C114.059 32.2796 115.209 29.6027 115.752 27.58L115.946 26.8576L119.182 26.987C120.963 27.0581 123.223 27.1366 124.207 27.1613C125.19 27.1861 127.321 27.2907 128.941 27.3938C130.562 27.4971 133.008 27.6513 134.376 27.7365C135.744 27.8217 137.839 27.9641 139.031 28.0529C140.222 28.1419 142.245 28.2851 143.525 28.3712C147.726 28.6541 150.49 28.8892 151.488 29.0485C152.028 29.1347 152.88 29.2053 153.383 29.2053C153.885 29.2053 154.78 29.2759 155.37 29.3622C155.961 29.4484 157.348 29.6019 158.451 29.7034C163.661 30.1827 168.842 30.7312 172.414 31.1816C173.165 31.2762 174.356 31.4167 175.063 31.4937C175.769 31.5709 176.567 31.6851 176.837 31.7475C177.196 31.8305 177.386 31.7888 177.546 31.5923C177.968 31.0714 177.436 30.8491 175.129 30.5824C173.945 30.4454 172.398 30.2646 171.692 30.1809C170.385 30.0256 169.384 29.9147 165.112 29.452C159.852 28.8823 151.678 28.1025 149.463 27.9592C148.889 27.922 147.625 27.8176 146.654 27.727C144.211 27.4992 135.598 26.9015 130.123 26.58C128.622 26.4918 125.517 26.3361 123.221 26.234C120.926 26.1318 118.407 26.0011 117.623 25.9437L116.197 25.8391L116.228 24.0424C116.245 23.0544 116.29 22.194 116.328 22.1304C116.422 21.9749 126.527 22.3874 130.685 22.7165C131.17 22.7549 132.362 22.8281 133.333 22.879C135.895 23.0135 139.474 23.2713 141.628 23.4766C143.61 23.6654 143.846 23.6278 143.846 23.123C143.846 22.6505 145.121 22.7795 131.006 21.8238C129.726 21.7371 127.595 21.6194 126.271 21.5622C124.947 21.5051 123.502 21.432 123.061 21.3997C122.619 21.3673 120.937 21.2883 119.321 21.224C116.04 21.0933 116.175 21.1498 115.988 19.8249C114.81 11.5068 106.429 3.64691 96.5785 1.62238C96.0488 1.51351 95.2905 1.35571 94.8932 1.27147C93.0101 0.872281 89.3886 0.741406 86.7078 0.975568ZM92.2341 1.78659C95.2611 2.13652 97.8556 2.64475 98.1755 2.95051C98.2592 3.03064 98.4759 3.09862 98.6569 3.10158C98.955 3.10634 99.4909 3.28319 101.153 3.92492C106.817 6.11251 114.314 13.5159 114.314 16.9225C114.314 17.049 114.371 17.2225 114.441 17.3084C114.596 17.4976 114.852 18.3042 115.14 19.517C115.431 20.7397 115.432 25.5543 115.141 26.6601C113.656 32.3053 110.784 36.3629 105.968 39.6203C104.531 40.5922 101.238 42.342 100.847 42.342C100.748 42.342 100.362 42.4783 99.9873 42.645C99.0996 43.0404 98.3498 43.2851 97.3726 43.4984C96.9358 43.5938 96.2896 43.7409 95.9365 43.8255C79.9628 47.6506 63.2964 36.5778 63.797 22.4728C64.2364 10.0926 77.9283 0.132519 92.2341 1.78659ZM86.8683 3.26973C76.6936 4.23068 68.0103 10.6737 66.0788 18.696C65.9374 19.283 65.7543 19.9903 65.6718 20.2676C64.6361 23.7508 66.429 30.4032 69.3609 33.9551C81.8551 49.0913 109.414 44.3424 113.422 26.3626C113.703 25.1023 113.768 21.0921 113.52 20.2676C113.437 19.9903 113.248 19.2461 113.1 18.6139C112.216 14.8312 108.882 10.3392 105.035 7.74721C103.248 6.5429 100.097 4.90245 99.5718 4.90245C99.468 4.90245 99.2574 4.83381 99.1041 4.75007C97.0494 3.62672 90.9289 2.8863 86.8683 3.26973ZM93.8635 5.20164C94.2092 5.29212 94.9448 5.44976 95.498 5.5519C96.555 5.74698 97.8543 6.11908 98.665 6.45882C98.9298 6.56983 99.5798 6.83519 100.109 7.04833C102.685 8.08531 105.507 10.0102 107.345 11.9833C112.207 17.2027 113.345 23.7961 110.418 29.7801C109.569 31.5151 108.192 33.3757 106.61 34.9226C106.091 35.4298 103.76 37.2516 103.629 37.2516C103.575 37.2516 103.324 37.4012 103.073 37.5839C101.826 38.4928 98.2833 39.961 96.0167 40.5086C95.6195 40.6047 94.8973 40.7794 94.4118 40.8968C93.1732 41.1965 86.3656 41.189 84.9002 40.8862C83.0861 40.5114 83.1445 40.4559 86.6275 39.2492C91.8677 37.4335 92.1648 37.2867 92.1648 36.5126C92.1648 35.9477 91.5568 35.5269 89.7908 34.8694C88.3291 34.3252 87.6632 33.8089 88.5708 33.9237C91.1069 34.2442 92.6368 34.541 94.2513 35.0247C98.0398 36.1604 98.8065 36.3134 100.79 36.331C101.87 36.3405 102.736 36.2832 102.715 36.2038C102.695 36.1241 101.991 36.0417 101.153 36.0207C99.3919 35.9762 97.8875 35.673 95.5267 34.8871C93.6841 34.2736 92.8714 34.0861 90.4912 33.7244C88.5115 33.4235 88.4632 33.3756 89.1371 32.3811C89.6294 31.6547 89.6777 31.475 89.6982 30.2906L89.7207 28.9948L93.3903 29.005C95.4086 29.0107 97.9055 29.0692 98.9388 29.1351C103.054 29.3973 105.486 26.9678 103.534 24.5451C103.045 23.938 103.035 23.8935 103.245 23.3171C103.524 22.5526 103.492 20.9946 103.17 19.7241C103.031 19.1778 102.918 18.2285 102.918 17.6148C102.918 14.9735 102.086 12.0262 101.156 11.3715C99.7002 10.3473 97.8492 11.1976 96.7387 13.4003C96.1777 14.5131 96.0756 14.4929 95.0868 13.0718C94.6311 12.417 94.1585 11.7519 94.0365 11.594C93.7791 11.2606 93.243 11.2309 92.2235 11.4935C91.2921 11.7334 91.1074 11.5545 90.9286 10.2392L90.7947 9.25398L89.8584 9.25891C88.6595 9.26515 88.4733 9.49734 88.4733 10.9867V12.0818L87.6404 12.1828C85.267 12.4703 83.2453 14.5988 81.0561 19.1152C80.2218 20.836 80.2063 20.8553 79.7283 20.7537C78.4867 20.4898 78.1212 20.4767 77.5328 20.6755C75.9237 21.2187 75.0682 23.3649 75.1801 26.578C75.264 28.9869 75.7574 29.9655 77.6056 31.3882C78.1525 31.809 78.2013 31.9133 78.2013 32.6608V33.4748H78.9947H79.7879L79.8373 32.7897C79.9077 31.8112 80.1907 31.8432 80.6894 32.8859C81.1338 33.8152 82.0836 34.819 82.9874 35.3144C83.4649 35.5761 83.4978 35.6518 83.4978 36.4875C83.4978 37.4333 83.6164 37.58 84.3821 37.58C84.936 37.58 85.2633 37.1527 85.2633 36.4297C85.2633 35.8152 85.2968 35.7771 86.3467 35.1991L87.43 34.6027L89.3559 35.2761C92.6787 36.4379 92.6207 36.5281 87.3868 38.339C86.4803 38.6526 85.1442 39.1327 84.4176 39.4058C81.8756 40.3612 81.9506 40.3641 79.2423 39.2106C73.5884 36.8025 69.1273 32.1601 67.8132 27.3169C67.7151 26.9557 67.5386 26.3276 67.4211 25.9212C67.1381 24.9438 67.1365 21.1593 67.4187 20.1739C67.535 19.7674 67.7023 19.1763 67.7904 18.8602C67.9595 18.2531 67.9867 18.1832 68.6375 16.6673C70.8896 11.423 77.2659 6.79512 84.0886 5.45321C86.7531 4.92922 92.2792 4.78685 93.8635 5.20164ZM90.3733 10.0077C90.7482 11.045 89.995 12.2886 89.3159 11.7531C89.0731 11.5616 89.0509 10.4228 89.2814 9.98208C89.5094 9.54627 90.2123 9.5627 90.3733 10.0077ZM100.881 11.8033C101.76 12.5109 102.171 13.8077 102.208 15.9865C102.226 17.0703 102.315 18.2896 102.405 18.696C103.228 22.3997 102.978 23.8727 101.443 24.371C101.284 24.4229 101.153 24.5264 101.153 24.6009C101.153 24.8834 101.695 24.9331 102.065 24.6847C102.57 24.3464 103.004 24.5031 103.312 25.1339C104.075 26.698 102.992 28.3789 101.183 28.4406L100.43 28.4664L100.455 27.8096C100.549 25.2563 100.734 22.8556 100.849 22.7073C101.332 22.0797 100.624 20.6689 98.1434 17.3207C96.6817 15.3474 96.6751 15.3254 97.1587 14.0034C97.8911 12.0007 99.7561 10.8984 100.881 11.8033ZM93.0343 11.8989C93.6489 12.1401 93.0822 12.7845 92.2556 12.7845C91.6653 12.7845 91.746 13.0822 92.353 13.1436C93.0802 13.217 93.1465 13.6055 92.432 13.6055C91.6996 13.6055 91.3623 13.7462 91.3623 14.0518C91.3623 14.2471 91.4849 14.2753 91.9474 14.1866C92.3574 14.108 92.5729 14.1394 92.6673 14.2914C92.9106 14.684 92.8157 14.755 92.0444 14.7574C91.0718 14.7607 90.6742 14.9908 91.0851 15.3126C91.3536 15.523 91.3502 15.5409 91.0281 15.6271C90.402 15.7946 90.7803 16.1545 91.5287 16.1035C92.452 16.0404 92.7475 16.1565 92.4856 16.4793C92.3774 16.6127 92.2238 16.6806 92.1442 16.6304C91.9344 16.4977 90.2388 16.8849 90.2388 17.0656C90.2388 17.1495 90.7039 17.2181 91.2725 17.2181C92.9008 17.2181 92.8904 17.6252 91.2586 17.7641C90.8044 17.8029 90.3452 17.8897 90.2383 17.9574C89.8682 18.1914 90.4211 18.3415 91.3085 18.2479C92.0092 18.1738 92.1648 18.2032 92.1648 18.4091C92.1648 18.7429 91.8243 18.8602 90.8543 18.8602C89.7934 18.8602 89.8828 19.2362 90.9735 19.3614C91.8449 19.4614 91.6858 19.6014 90.5196 19.7612C89.3812 19.917 89.5353 20.277 90.6981 20.1778C90.953 20.1561 91.053 20.2175 91.0032 20.365C90.9583 20.498 90.7411 20.5657 90.4511 20.5366C90.1882 20.5103 89.7621 20.5786 89.5042 20.6883L89.035 20.8877L89.5968 20.9824C90.429 21.1227 90.3375 21.5394 89.4642 21.5854C88.3845 21.6422 88.3953 22.1357 89.4764 22.1419C89.9295 22.1444 90.0608 22.3629 89.7338 22.5697C89.6326 22.6337 89.1684 22.6733 88.7023 22.6577C88.2362 22.6422 87.8091 22.705 87.7533 22.7974C87.6955 22.8932 87.8111 22.9666 88.0224 22.9679C89.1194 22.9754 88.7973 23.6173 87.6692 23.6718C87.0203 23.7034 86.9761 23.6722 86.3195 22.7212C85.066 20.9056 84.2919 20.8218 82.6452 22.3234C81.6098 23.2676 81.5036 23.2546 80.9532 22.1164C80.5952 21.376 80.5772 21.4632 81.5251 19.3528C83.4291 15.1138 85.639 12.9741 88.4911 12.6083C90.1572 12.3945 92.5293 11.9736 92.6262 11.8746C92.7198 11.7789 92.73 11.7793 93.0343 11.8989ZM94.4947 13.0582C94.7607 13.4733 94.7608 13.5068 94.4971 13.704C94.1556 13.9597 94.3079 14.2605 94.7823 14.2673C95.1261 14.2722 95.1268 14.2765 94.813 14.4558C94.6365 14.5566 94.458 14.6693 94.4164 14.706C94.2689 14.8363 94.8201 15.0786 95.2945 15.0919C95.7577 15.1051 95.7622 15.1125 95.4149 15.2837C94.8177 15.5785 94.9701 15.9044 95.7052 15.9044C96.1228 15.9044 96.319 15.9668 96.2517 16.0783C96.1939 16.1741 95.9909 16.2397 95.8007 16.2243C95.1377 16.1709 94.8932 16.2343 94.8932 16.46C94.8932 16.5849 95.0398 16.7263 95.2189 16.7742C95.3979 16.8222 95.5243 16.9601 95.4998 17.0808C95.4696 17.2286 95.6908 17.3294 96.1772 17.3895C96.8594 17.4739 95.5759 17.6646 93.6093 17.7712C93.0804 17.7997 93.0825 17.4953 93.6362 13.8108C93.8307 12.5163 94.0338 12.3383 94.4947 13.0582ZM92.4858 15.4118C92.6663 15.5312 92.5861 15.5709 92.1648 15.5709C91.7434 15.5709 91.6632 15.5312 91.8438 15.4118C91.9762 15.3243 92.1206 15.2527 92.1648 15.2527C92.2089 15.2527 92.3534 15.3243 92.4858 15.4118ZM99.1166 19.7364C100.423 21.7421 100.521 21.9752 100.269 22.4752C100.145 22.7202 99.9925 23.9958 99.8994 25.5668C99.7142 28.6942 99.8352 28.4682 98.3777 28.4074C96.8236 28.3424 96.8192 28.3365 96.8192 26.3041C96.8192 23.9604 96.3832 23.4789 94.6945 23.9587C93.8715 24.1925 93.7698 24.4784 93.7698 26.5562C93.7698 28.6605 93.8771 28.5487 91.9068 28.4973C90.0948 28.45 89.9595 28.245 89.6663 25.1001L89.5668 24.0328L90.3813 22.8528C90.8292 22.2036 91.3305 21.4278 91.4952 21.1286C93.0904 18.2286 93.0008 18.3282 93.9585 18.3986L94.6525 18.4497L94.7018 19.3528C94.7616 20.4489 94.8509 20.5576 95.5006 20.3258C96.0171 20.1417 96.362 19.299 96.0991 18.8636C95.8673 18.48 96.3056 18.2853 97.2763 18.3406L98.2432 18.3956L99.1166 19.7364ZM79.0781 21.3082C79.3739 21.4266 79.3667 21.4519 78.959 21.7251C78.3758 22.1161 78.5562 22.3332 79.3558 22.2023C79.8755 22.1173 79.9944 22.1426 79.9357 22.3252C79.8951 22.4514 79.6326 22.578 79.3526 22.6063C78.7695 22.6652 78.631 23.1296 79.1964 23.1296C79.471 23.1296 79.5067 23.1735 79.3569 23.3267C79.251 23.435 79.1643 23.6198 79.1643 23.7372C79.1643 23.9998 79.835 24.0198 80.0844 23.7646C80.2878 23.5566 80.7693 23.6837 80.7693 23.9456C80.7693 24.0387 80.5615 24.1149 80.3074 24.1149C79.5044 24.1149 79.0897 25.509 79.858 25.6256C80.3138 25.6947 80.3795 26.0491 79.9485 26.1138C79.458 26.1873 79.3913 26.5128 79.8399 26.6425L80.2076 26.7489L79.7489 27.1353C79.4377 27.3976 79.3508 27.5603 79.4789 27.6413C79.5827 27.7069 79.6269 27.8693 79.5771 28.0023C79.5272 28.1352 79.5615 28.3874 79.6534 28.5628C79.7822 28.8093 79.7639 28.9039 79.5725 28.9791C79.2746 29.096 79.2457 29.4728 79.5254 29.5916C79.6647 29.6508 79.6169 29.775 79.369 29.9978C79.0146 30.3162 79.0143 30.3193 79.3415 30.4068C79.7802 30.5243 79.7026 31.2396 79.2446 31.3008C78.7375 31.3686 77.2807 30.4119 76.7504 29.6627C74.5326 26.5304 76.2975 20.1959 79.0781 21.3082ZM92.5788 21.3755C92.3408 21.5535 92.3082 21.7197 92.401 22.2816C92.6026 23.5024 93.4792 23.5114 93.6556 22.2945C93.7847 21.4043 93.2035 20.9082 92.5788 21.3755ZM95.1085 21.2818C94.7514 21.5209 94.7769 23.0414 95.1388 23.0896C95.6775 23.161 95.8792 22.8872 95.9086 22.0449C95.9371 21.2217 95.6323 20.931 95.1085 21.2818ZM97.7421 21.2695C97.0823 21.4526 97.4977 23.2682 98.2042 23.2886C98.4758 23.2964 98.7754 22.4225 98.7167 21.7944C98.6637 21.2269 98.4024 21.086 97.7421 21.2695ZM84.0817 22.3945C83.7708 22.627 83.735 23.0735 84.0194 23.1713C84.1761 23.2253 84.1722 23.2997 84.0013 23.5116C83.6368 23.9633 84.2057 24.0402 84.8843 23.6306C85.2795 23.392 85.5239 23.3306 85.6332 23.4424C85.8605 23.675 85.5661 23.9965 84.8697 24.276C84.1395 24.5691 84.0833 25.0213 84.7953 24.8756C85.0675 24.82 85.4958 24.6247 85.747 24.4416C86.0785 24.2001 86.2359 24.1622 86.3211 24.3032C86.4531 24.5216 85.7621 25.1491 85.0646 25.4446C84.8208 25.5481 84.6213 25.7345 84.6213 25.8589C84.6213 26.2548 85.2371 26.1041 86.0444 25.5106C86.8538 24.9157 87.0288 24.8384 87.0288 25.075C87.0288 25.3849 86.399 25.9269 85.9268 26.0235C85.6501 26.0801 85.4238 26.2281 85.4238 26.3522C85.4238 26.6645 86.4511 26.6481 86.7078 26.3317C86.9347 26.0519 87.2846 26.0089 87.4262 26.2433C87.53 26.4149 86.3934 27.0706 85.992 27.0706C85.856 27.0706 85.7448 27.1815 85.7448 27.3169C85.7448 27.4749 85.903 27.5651 86.1862 27.5685C86.5874 27.5733 86.602 27.5935 86.3467 27.7918C85.6564 28.328 86.1576 28.5061 87.3097 28.1342C87.9409 27.9303 87.7006 28.3226 87.0288 28.5925C86.3118 28.8805 86.1793 29.2053 86.7786 29.2053C86.9941 29.2053 87.215 29.2792 87.2695 29.3695C87.3241 29.4599 87.2922 29.5338 87.1987 29.5338C86.9517 29.5338 86.9906 29.7996 87.2809 30.0968C87.5103 30.3313 87.5031 30.3548 87.2007 30.3548C87.0179 30.3548 86.8683 30.4238 86.8683 30.508C86.8683 30.7075 87.4604 30.8983 87.6693 30.7663C87.7584 30.71 87.8313 30.7341 87.8313 30.8202C87.8313 31.0639 87.3936 31.1767 86.8665 31.0688C86.4577 30.985 86.3868 31.0207 86.3868 31.3098C86.3868 31.4964 86.3096 31.6979 86.2154 31.7575C86.121 31.8171 86.082 31.9673 86.1284 32.0913C86.1749 32.2153 86.1202 32.3741 86.0069 32.4442C85.8936 32.5143 85.7541 32.7017 85.697 32.8605C85.64 33.0194 85.5072 33.1302 85.4023 33.1068C85.2973 33.0835 85.1582 33.249 85.0928 33.4748C85.0277 33.7006 84.9672 33.8207 84.9583 33.7421C84.9495 33.6633 84.8348 33.69 84.7033 33.8017C84.5719 33.9134 84.5008 34.0651 84.5454 34.1388C84.6696 34.3444 84.3929 34.4559 84.146 34.2997C84.0005 34.2076 83.834 34.2789 83.6495 34.5121C83.1526 35.1398 81.654 33.8986 80.8146 32.1639C79.8477 30.166 80.683 25.3371 82.3372 23.3615C82.8897 22.7019 84.2054 21.7711 84.2765 21.9895C84.3139 22.1041 84.2261 22.2862 84.0817 22.3945ZM88.9153 24.7306C89.2636 25.9742 89.4746 27.9181 89.2827 28.1145C89.0557 28.3467 88.8631 28.0688 88.6161 27.1527C88.5187 26.7915 88.3023 26.135 88.1351 25.6941C87.7793 24.755 87.765 24.5768 88.0239 24.3119C88.3935 23.9338 88.7375 24.0953 88.9153 24.7306ZM80.4483 24.7717C80.4483 24.862 80.3761 24.9359 80.2878 24.9359C80.1995 24.9359 80.1273 24.862 80.1273 24.7717C80.1273 24.6814 80.1995 24.6075 80.2878 24.6075C80.3761 24.6075 80.4483 24.6814 80.4483 24.7717ZM88.4733 28.8712C88.4733 29.1037 87.8541 29.4034 87.6457 29.2717C87.5329 29.2002 87.608 29.0786 87.8497 28.9415C88.3123 28.6792 88.4733 28.661 88.4733 28.8712ZM88.4733 29.9251C88.4733 29.9597 88.2927 30.0234 88.072 30.0666C87.8513 30.1098 87.6708 30.0814 87.6708 30.0036C87.6708 29.9259 87.8513 29.8622 88.072 29.8622C88.2927 29.8622 88.4733 29.8906 88.4733 29.9251ZM88.4298 31.7677C88.3765 31.8222 88.238 31.8281 88.1223 31.7806C87.9942 31.7282 88.0322 31.6893 88.2192 31.6814C88.3884 31.6744 88.4831 31.7131 88.4298 31.7677ZM86.7811 33.9561C86.832 34.0401 86.8126 34.1474 86.7383 34.1945C86.5489 34.3142 85.9053 34.1239 85.9053 33.9482C85.9053 33.7547 86.6636 33.7615 86.7811 33.9561ZM151.544 41.3157C151.259 42.0158 150.819 43.0521 150.566 43.6188C150.312 44.1854 150.105 44.6846 150.105 44.728C150.105 44.7713 149.924 45.1897 149.704 45.6577C149.483 46.1257 149.303 46.5637 149.303 46.6307C149.303 46.6978 149.093 47.2197 148.837 47.7905C148.581 48.3613 147.813 50.1584 147.13 51.784C146.448 53.4097 145.603 55.4048 145.252 56.2177C144.902 57.0305 144.444 58.1156 144.233 58.6289C144.023 59.1424 143.634 60.0493 143.367 60.6446C143.1 61.2398 142.883 61.7686 142.883 61.8193C142.883 61.8702 142.666 62.3908 142.401 62.9762C142.136 63.5616 141.92 64.0704 141.92 64.1071C141.92 64.1437 141.703 64.6575 141.438 65.2491C141.173 65.8408 140.957 66.3544 140.957 66.3907C140.957 66.427 140.718 66.9978 140.425 67.6592C140.134 68.3207 139.758 69.1943 139.59 69.6007C137.621 74.3836 135.066 77.8311 132.53 79.1258C130.46 80.1833 130.48 80.1869 138.83 80.2348C147.304 80.2836 147.883 80.187 144.834 79.2327C141.266 78.1164 139.38 75.0846 140.455 72.1947C140.532 71.9873 140.724 71.4111 140.882 70.9143C141.04 70.4176 141.337 69.6279 141.544 69.1596C141.751 68.6913 141.92 68.2666 141.92 68.2161C141.92 68.1655 142.17 67.5689 142.477 66.8901L143.034 65.6561L149.9 65.6989L156.766 65.7418L157.519 67.5481C158.432 69.7355 158.591 70.116 159.342 71.8996C161.676 77.4429 161.085 78.9441 156.324 79.5604C152.668 80.0338 155.466 80.2742 164.63 80.2742C174.37 80.2742 175.258 80.1864 173.016 79.4442C171.502 78.943 170.117 77.8753 169.228 76.525C168.724 75.7597 166.476 71.2411 166.476 70.9941C166.476 70.9547 166.251 70.4219 165.977 69.81C165.703 69.1982 165.349 68.365 165.192 67.9586C165.034 67.5522 164.726 66.8132 164.507 66.3165C163.438 63.8936 162.784 62.3678 162.784 62.2977C162.784 62.2247 162.619 61.8402 161.6 59.5385C161.369 59.0166 161.179 58.5567 161.179 58.5163C161.179 58.4759 160.956 57.942 160.684 57.3302C160.098 56.015 160.245 56.3579 157.809 50.6346C157.002 48.738 156.238 46.9461 156.112 46.6525C155.729 45.7599 155.463 45.1229 154.759 43.4094C153.325 39.9227 153.399 40.0431 152.69 40.0431H152.061L151.544 41.3157ZM10.2575 40.9729C9.94611 41.2913 10.1787 41.6479 10.7595 41.743C13.5923 42.2064 15.1301 44.2076 15.4321 47.8243C15.847 52.7923 15.6109 74.39 15.1286 75.5943C15.0563 75.7749 14.9047 76.1726 14.7921 76.4782C14.3509 77.6738 13.1208 78.6505 11.233 79.3046C8.59471 80.2184 9.07749 80.2742 19.6191 80.2742C29.2091 80.2742 31.3033 80.1095 28.6472 79.564C25.6272 78.9438 23.9177 77.8714 23.0425 76.0482L22.5883 75.1017V67.1375V59.1734L24.2493 59.1265C29.6702 58.9731 31.8597 60.5288 33.0985 65.4133L33.5148 67.0554H34.0703H34.6258L34.6675 59.4802L34.7092 51.9051L34.2876 51.8226C33.8252 51.7321 33.2615 52.1683 33.2615 52.6166C33.2615 53.7356 31.7987 56.0377 30.552 56.8806C29.3073 57.7221 23.8672 58.6499 22.7498 58.2113C22.3301 58.0465 22.4668 46.0676 22.9018 44.893C23.876 42.2624 27.1314 41.2027 31.817 41.9911C36.0086 42.6964 39.0573 45.5068 40.6591 50.1419C41.1504 51.5638 41.1289 51.5377 41.8094 51.5377H42.454L42.3358 50.4293C42.2708 49.8198 42.1622 48.6928 42.0944 47.9251C41.789 44.4652 41.5805 42.3678 41.4743 41.6852L41.3593 40.9463L25.8622 40.9044C17.3389 40.8814 10.3167 40.9121 10.2575 40.9729ZM150.708 51.4666C151.093 52.3637 151.543 53.4394 151.709 53.8572C152.002 54.5946 152.298 55.2864 153.093 57.0842C153.303 57.5609 153.475 58.0105 153.475 58.0834C153.475 58.1563 153.715 58.7269 154.007 59.3516C156.75 65.2132 157.167 64.6739 149.902 64.6621C142.757 64.6506 143.274 64.8306 144.205 62.6771C144.609 61.7436 145.642 59.2802 146.501 57.2029C147.359 55.1257 148.269 52.9624 148.522 52.3957C148.775 51.829 148.982 51.3395 148.982 51.3082C148.982 49.5569 149.927 49.6437 150.708 51.4666ZM48.4287 56.1845C46.2575 56.5617 44.9801 57.0523 43.373 58.1266C36.2049 62.9174 36.2597 75.6974 43.4648 79.5517C44.3199 80.0092 44.8919 80.2283 46.7435 80.8074C49.3121 81.6111 54.3125 80.7414 57.0141 79.0213C59.8991 77.1843 61.1303 75.8238 60.5687 75.0933L60.2699 74.7048L59.3248 75.6069C58.2289 76.6531 56.467 77.8776 55.5123 78.2564C55.1474 78.4014 54.7752 78.577 54.6851 78.6468C54.2903 78.953 52.3701 79.1519 51.3609 78.9911C47.5073 78.3773 44.9582 74.4985 44.5844 68.68C44.453 66.6319 43.6192 66.819 53.0978 66.7695L61.2686 66.727L61.2215 65.906C60.8459 59.3711 55.122 55.0214 48.4287 56.1845ZM77.2996 56.2172C75.9347 56.6579 74.8888 57.6721 73.8667 59.5458C73.2889 60.6052 73.151 60.3623 73.1002 58.197L73.0549 56.2622L72.0569 56.3554C71.5082 56.4068 70.4813 56.519 69.7751 56.6049C69.0689 56.6909 67.5522 56.8476 66.4046 56.9533C63.8957 57.1842 62.2877 57.9419 64.3064 57.9419C66.6351 57.9419 67.0119 59.6048 66.9301 69.5186C66.8584 78.1863 66.7832 78.5412 64.8476 79.3593C62.7205 80.2581 62.8152 80.2742 70.2605 80.2742C76.296 80.2742 76.9422 80.2488 76.8542 80.0145C76.8006 79.8716 76.7568 79.7238 76.7568 79.686C76.7568 79.6483 76.5753 79.6174 76.3533 79.6174C76.1315 79.6174 75.8245 79.5522 75.6712 79.4724C75.5179 79.3926 75.187 79.2284 74.9355 79.1075C73.2108 78.2784 73.065 77.5561 73.0665 69.8362L73.0678 63.6071L74.1096 61.6366C76.951 56.2627 80.5152 55.5385 79.0162 60.6396C78.1252 63.6713 78.8936 65.4955 81.0613 65.4955C82.9441 65.4955 83.8188 64.3535 83.8188 61.8958C83.8188 60.4262 83.7543 60.1373 83.1269 58.7952C82.0849 56.5663 79.61 55.4713 77.2996 56.2172ZM101.233 56.1863C98.7801 56.5924 97.3484 57.385 95.3152 59.4623C93.8714 60.9375 93.819 60.9007 93.8187 58.4082L93.8184 56.3819L92.9515 56.4001C92.4747 56.4101 91.4345 56.4989 90.64 56.5971C88.6538 56.8431 85.7718 57.1413 85.1479 57.1655C84.2253 57.2014 84.3582 57.7762 85.3435 58.0116C87.5923 58.5494 87.671 58.9089 87.6698 68.6458C87.6689 78.3768 87.6721 78.3584 85.7973 79.2745C85.3712 79.4827 84.9185 79.7057 84.7914 79.7701C83.9032 80.2197 84.534 80.2742 90.6267 80.2742C94.0326 80.2742 96.8733 80.2742 96.9396 80.2742C97.3901 80.2742 96.9531 79.7117 96.3377 79.4995C93.986 78.689 93.7272 77.5942 93.802 68.7706L93.85 63.0964L94.9456 61.7526C98.2766 57.6673 101.238 56.7111 103.208 59.0846C104.226 60.3109 104.402 62.0472 104.329 70.1754C104.255 78.4486 104.173 78.7796 102.016 79.4832C99.9193 80.1668 100.663 80.2742 107.494 80.2742C113.758 80.2742 114.392 80.221 113.502 79.7701C113.374 79.7057 112.931 79.4877 112.516 79.2854C110.613 78.3573 110.583 78.2192 110.499 69.8852L110.43 63.0269L111.357 61.8673C115.269 56.9753 119.048 56.4742 120.524 60.6513C120.952 61.864 120.969 76.7367 120.543 77.6587C120.207 78.3862 119.323 79.289 118.947 79.289C118.793 79.289 118.621 79.3629 118.567 79.4532C118.512 79.5435 118.291 79.6174 118.076 79.6174C117.791 79.6174 117.684 79.7071 117.684 79.9458C117.684 80.2687 117.791 80.2742 124.037 80.2742C130.288 80.2742 130.926 80.2207 130.033 79.7706C129.906 79.7064 129.402 79.4599 128.912 79.2228C128.016 78.7883 127.634 78.3353 127.267 77.2702C127.149 76.929 127.05 74.2586 126.986 69.6828C126.864 61.0613 126.713 60.2978 124.712 58.2507C122.841 56.337 118.406 55.3968 116.362 56.4804C116.209 56.5617 116.012 56.6282 115.925 56.6282C115.752 56.6282 114.01 57.4445 113.752 57.6468C112.768 58.4166 110.681 60.5102 110.412 60.9973C110.221 61.342 110.028 61.1498 109.51 60.0991C108.033 57.107 104.827 55.5912 101.233 56.1863ZM50.9402 57.0275C53.6412 57.8663 54.7492 59.6994 55.0771 63.8723C55.2607 66.2096 55.8199 65.9932 49.718 65.9459L44.5873 65.906L44.6295 65.0849C44.8521 60.7413 46.5245 57.7793 49.1639 57.0532C50.2513 56.7541 50.068 56.7568 50.9402 57.0275ZM0.869559 92.7952L0.92092 93.1646L21.1438 93.2035C41.1579 93.242 137.553 93.4622 137.353 92.9277C137.263 92.6886 39.7744 92.4257 21.218 92.4257H0.818359L0.869559 92.7952ZM137.477 92.6886C137.277 93.2231 138.036 93.242 158.05 93.2035L178.273 93.1646L178.324 92.7952L178.375 92.4257H157.976C139.419 92.4257 137.567 92.4495 137.477 92.6886Z" fill="white"/>
</svg>
