<svg width="104" height="104" viewBox="0 0 104 104" fill="none" xmlns="http://www.w3.org/2000/svg">
<path fill-rule="evenodd" clip-rule="evenodd" d="M54.027 0.978493C51.4264 3.57007 53.6857 8.36675 57.5087 8.36675C58.8879 8.36675 61.4409 5.599 61.4409 4.1043C61.4409 0.790945 56.3633 -1.34976 54.027 0.978493ZM40.543 2.85776C40.563 6.2772 41.6086 9.34712 42.5543 8.76458C43.0258 8.47379 43.1665 7.83916 42.8651 7.35418C42.5648 6.86921 42.7463 6.47233 43.2691 6.47233C43.7919 6.47233 44.4839 6.89857 44.807 7.41954C45.1302 7.94051 45.8222 8.36675 46.345 8.36675C46.882 8.36675 46.9609 7.85147 46.5265 7.18274C46.1035 6.532 45.7575 4.93311 45.7575 3.63069C45.7575 1.75142 45.2177 1.20109 43.1436 0.963338C40.9546 0.712326 40.5316 1.02017 40.543 2.85776ZM44.3318 3.68658C44.3318 4.17723 43.904 4.5779 43.3813 4.5779C42.8585 4.5779 42.4308 3.91296 42.4308 3.1012C42.4308 2.28944 42.8585 1.88782 43.3813 2.20987C43.904 2.53192 44.3318 3.19592 44.3318 3.68658ZM59.0647 4.1043C59.0647 6.9251 55.3539 6.64377 54.949 3.79172C54.6876 1.95507 55.0069 1.63681 56.85 1.89729C58.3261 2.10568 59.0647 2.84166 59.0647 4.1043ZM68.1012 5.50807C66.5994 9.12168 67.4615 11.4329 70.1638 11.0379C71.4679 10.8475 72.7102 9.58771 73.4981 7.65634C74.96 4.07209 73.6749 3.43367 72.0695 6.94594C70.4347 10.5217 68.8454 9.91545 69.583 5.99872C70.3472 1.93897 69.6771 1.71732 68.1012 5.50807ZM27.4127 5.71456C25.4071 7.71318 26.0706 11.1572 28.6883 12.346C32.3554 14.0112 35.7762 10.4838 33.8942 6.97909C32.5131 4.4074 29.3441 3.78982 27.4127 5.71456ZM31.0246 8.44727L28.6484 10.3796L31.0246 9.74021C32.901 9.23535 33.1642 9.34902 32.2765 10.2801C30.7271 11.9065 28.1731 10.7338 28.1731 8.39612C28.1731 6.92415 28.7862 6.47706 30.787 6.49317L33.4009 6.51401L31.0246 8.44727ZM79.6261 11.0322C77.3192 14.2613 76.8306 16.8121 78.8372 15.1526C79.5177 14.5899 81.01 14.373 82.1525 14.6705C85.1219 15.4443 86.0154 12.543 83.5602 10.0973L81.6526 8.19626L79.6261 11.0322ZM83.3027 12.1556C83.3027 12.6766 82.8749 13.1028 82.3521 13.1028C81.8294 13.1028 81.4016 12.6766 81.4016 12.1556C81.4016 11.6346 81.8294 11.2084 82.3521 11.2084C82.8749 11.2084 83.3027 11.6346 83.3027 12.1556ZM11.0583 18.7975C10.2037 20.3878 10.4737 21.0888 12.6874 23.0306C15.9192 25.8627 16.4296 25.9196 17.6843 23.5847C19.0074 21.121 18.9285 20.0421 17.5274 21.4383C15.7718 23.1878 14.9915 22.7938 15.5599 20.4437C15.9819 18.6971 15.846 18.5256 14.8052 19.4965C13.176 21.0149 11.2531 21.0604 12.7749 19.5439C14.1493 18.1742 14.2577 16.8917 12.9982 16.8917C12.4945 16.8917 11.621 17.7489 11.0583 18.7975ZM93.2611 23.1698C120.387 63.4756 80.0994 115.476 34.5187 98.9885C23.8074 95.1135 11.312 85.1441 7.95009 77.7908C7.40355 76.5964 6.35989 75.6189 5.6299 75.6189C0.784202 75.6189 18.1186 93.6121 27.273 98.0849C76.8525 122.31 125.047 67.2398 94.3894 21.3928C92.7355 18.9187 90.8544 16.8945 90.209 16.8936C89.5637 16.8926 90.9371 19.7172 93.2611 23.1698ZM4.98735 27.8623C4.13475 30.0759 4.28588 31.2884 5.33334 30.6433C5.83996 30.3307 7.55088 30.7428 9.13537 31.5593C10.8263 32.4307 12.0145 32.6334 12.0145 32.0509C12.0145 31.5053 10.9451 30.5742 9.63819 29.9803C8.33124 29.3873 7.26192 28.3302 7.26192 27.6321C7.26192 25.8788 5.68978 26.037 4.98735 27.8623ZM19.0977 39.388C20.9065 47.4999 27.8509 69.3635 28.7073 69.6439C29.2814 69.8324 31.2927 64.3433 33.3677 56.9313C35.3751 49.7571 37.2381 43.4932 37.5071 43.0111C37.7761 42.5289 39.3796 47.3825 41.0706 53.796C46.4362 74.1488 47.3192 74.4529 51.5034 57.385C52.24 54.3795 56.6884 53.4958 56.6884 56.3545C56.6884 62.5151 65.7772 69.9356 73.3223 69.9356C81.6545 69.9356 89.9562 62.4479 89.9562 54.9336V51.9386H74.2091H58.4611L59.0789 49.8073C62.5987 37.6631 79.3761 34.9304 85.6314 45.4823C86.7996 47.4544 87.6161 48.019 88.3061 47.3313C88.9952 46.6446 88.5447 45.3583 86.829 43.1172C78.4921 32.2252 59.6407 36.1191 56.9869 49.2816C56.5781 51.3058 55.8605 51.894 53.5242 52.1233C50.8209 52.3885 50.435 52.8772 48.8657 58.0301C47.9247 61.1208 47.0246 63.7797 46.8639 63.9388C46.7033 64.0989 44.9363 58.3739 42.9374 51.2168C37.7324 32.586 38.0613 32.6088 32.9257 50.5177C30.8688 57.69 29.0248 63.719 28.829 63.9151C28.6322 64.1102 27.5211 60.9636 26.3595 56.9209C21.32 39.3814 20.435 36.7831 19.5026 36.7831C18.9199 36.7831 18.7545 37.8488 19.0977 39.388ZM1.55887 38.562C1.55887 39.0195 3.26978 39.8275 5.3609 40.356C9.85871 41.4936 10.4832 40.2689 6.16979 38.7704C2.55025 37.5125 1.55887 37.468 1.55887 38.562ZM0.133103 48.1497C0.456277 48.6707 1.37257 49.0969 2.16909 49.0969C2.96657 49.0969 3.43992 49.6302 3.22226 50.2809C3.00459 50.9326 2.363 51.465 1.79649 51.465C1.22999 51.465 0.445821 51.7842 0.0542112 52.1754C-0.338349 52.5666 1.44386 52.8583 4.01403 52.8261C7.77805 52.7778 8.27136 52.5988 6.54904 51.9092C4.16516 50.9544 3.65664 49.0969 5.78008 49.0969C6.53383 49.0969 7.414 48.6707 7.73718 48.1497C8.09647 47.57 6.61938 47.2025 3.93514 47.2025C1.2509 47.2025 -0.226189 47.57 0.133103 48.1497ZM87.5657 56.9114C83.4481 71.1206 63.1965 71.1206 59.0789 56.9114L58.4611 54.7802H73.3223H88.1835L87.5657 56.9114ZM2.98463 60.5241C-0.322191 61.0612 -0.445757 61.1625 2.03412 61.297L4.88565 61.4524L2.50938 63.3051L0.133103 65.1579L2.89433 65.1787C5.50918 65.1986 5.57192 65.2914 4.08247 66.932C1.59214 69.6732 2.23468 70.0332 5.83616 67.9152C9.65815 65.6684 10.1087 64.2656 7.02429 64.222C4.93698 64.1926 4.92937 64.1585 6.73534 62.7974C9.32167 60.849 7.56038 59.7815 2.98463 60.5241Z" fill="black" fill-opacity="0.72"/>
</svg>
