<svg width="1081" height="359" viewBox="0 0 1081 359" fill="none" xmlns="http://www.w3.org/2000/svg">
<path fill-rule="evenodd" clip-rule="evenodd" d="M461.097 117.555V74H497.1C497.1 77.6266 498.22 80.9866 500.46 84.08C501.473 85.52 502.62 86.6933 503.9 87.6H506.3V72H498.7V20.4L503.5 19.2V18H461.5V19.2L467.1 20.8L465.5 54C465.236 59.2828 463.768 63.8593 461.097 67.7292V14.6L474.297 11.3V7.99997H358.797V11.3L374.197 15.7L369.797 107C369.064 121.667 364.957 134.353 357.477 145.06C353.81 150.047 350.217 153.86 346.697 156.5H329.097V194.35H326.98C326.807 194.437 325.94 195.043 324.38 196.17C322.82 197.47 321.304 199.247 319.83 201.5C317.924 199.767 316.017 198.38 314.11 197.34C309.084 194.48 304.1 193.05 299.16 193.05C291.014 193.05 283.82 194.913 277.58 198.64C271.427 202.28 266.617 207.697 263.15 214.89C259.77 221.997 258.08 230.533 258.08 240.5C258.08 255.667 261.98 267.367 269.78 275.6C277.58 283.833 288.414 287.95 302.28 287.95C307.827 287.95 312.854 286.693 317.36 284.18C321.954 281.58 325.55 278.157 328.15 273.91C330.837 269.577 332.18 264.94 332.18 260H328.93C328.93 264.247 327.76 268.277 325.42 272.09C323.167 275.903 320.177 278.98 316.45 281.32C312.81 283.573 308.954 284.7 304.88 284.7C297.427 284.7 291.534 281.32 287.2 274.56C282.954 267.713 280.83 256.36 280.83 240.5C280.83 224.9 282.78 213.633 286.68 206.7C290.667 199.767 295.65 196.3 301.63 196.3C305.617 196.3 309.127 197.383 312.16 199.55C315.28 201.717 317.88 204.447 319.96 207.74C322.214 211.12 323.904 214.89 325.03 219.05H330.23V199.4H335.697C339.07 196.907 342.15 193.68 344.937 189.72C351.244 181.067 354.397 171.827 354.397 162H456.697C456.697 171.973 459.777 181.213 465.937 189.72C467.301 191.659 468.754 193.422 470.294 195.009C467.331 195.909 464.542 197.12 461.926 198.64C455.599 202.28 450.702 207.653 447.236 214.76C443.769 221.867 442.036 230.447 442.036 240.5C442.036 250.553 443.769 259.133 447.236 266.24C450.702 273.347 455.599 278.763 461.926 282.49C468.339 286.13 475.792 287.95 484.286 287.95C492.779 287.95 500.189 286.13 506.516 282.49C512.929 278.763 517.869 273.347 521.336 266.24C524.802 259.133 526.536 250.553 526.536 240.5C526.536 230.447 524.802 221.867 521.336 214.76C517.869 207.653 512.929 202.28 506.516 198.64C500.189 194.913 492.779 193.05 484.286 193.05C483.514 193.05 482.751 193.065 481.997 193.096V167.199C482.05 167.199 482.102 167.2 482.155 167.2C482.203 167.2 482.252 167.2 482.3 167.2C485.713 167.2 488.807 166.427 491.58 164.88C493.038 164.055 494.333 163.095 495.464 162H512.331V163.6L507.531 164.8V166H551.931V151.6H549.531C548.518 152.4 547.638 153.413 546.891 154.64C545.185 157.52 544.331 160.64 544.331 164H525.531V139.2H534.731C535.105 141.227 535.798 143.12 536.811 144.88C537.238 145.68 537.745 146.453 538.331 147.2H540.731V129.2H538.331C537.745 129.947 537.238 130.72 536.811 131.52C535.798 133.28 535.105 135.173 534.731 137.2H525.531V116.9H543.382C543.809 118.446 544.445 119.932 545.291 121.36C546.038 122.587 546.918 123.6 547.931 124.4H550.331V116.9H563.894V162.4L557.494 164.8V166H572.694V164.8L566.294 162.4V120L590.694 166.8H593.094L596.494 158.335C600.725 160.646 605.858 161.864 611.894 161.989V163.6L607.094 164.8V166H629.894V164.8L625.094 163.6V162H639.34V158.7L628.34 155.4L625.094 147.655V112.4L629.894 111.2V110H621.494C618.294 110 615.92 110.56 614.374 111.68C613.225 112.472 612.252 113.618 611.456 115.117L594.224 74H616.713V72.8L611.912 71.6V20.4L616.713 19.2V18H595.513C586.393 18 579.833 19.36 575.833 22.08C574.895 22.7259 574.069 23.435 573.355 24.2073L565.64 5.79998H559.04L553.995 18H519.116V19.2L524.716 20.8L523.116 54C522.849 60.6133 522.076 65.28 520.796 68C519.569 70.6666 518.076 72.2667 516.316 72.8V61.6L515.276 61.44C515.116 61.44 514.822 61.4133 514.396 61.36C513.969 61.2533 513.542 61.2 513.116 61.2C511.302 61.2 509.782 61.84 508.556 63.12C507.329 64.3466 506.716 65.9733 506.716 68C506.716 70.08 507.462 71.8133 508.956 73.2C510.449 74.5333 512.369 75.2 514.716 75.2C517.649 75.2 520.076 73.5733 521.996 70.32C523.916 67.0667 525.089 61.6267 525.516 54L527.116 20H542.316V46.2422L515.95 110H507.531V111.2L512.331 112.4V118.75L499.408 150H498.7C498.7 150.709 498.647 151.408 498.541 152.097L498.54 152.1L481.997 158.304V156.5H471.771C469.99 152.223 469.1 146.056 469.1 138C469.1 128.4 470.3 121.467 472.7 117.2C475.153 112.933 478.22 110.8 481.9 110.8C484.353 110.8 486.513 111.467 488.38 112.8C490.3 114.133 491.9 115.813 493.18 117.84C494.567 119.92 495.607 122.24 496.3 124.8H499.5V109.6H497.5C497.393 109.653 496.86 110.027 495.9 110.72C494.94 111.52 494.007 112.613 493.1 114C491.927 112.933 490.753 112.08 489.58 111.44C486.487 109.68 483.42 108.8 480.38 108.8C475.367 108.8 470.94 109.947 467.1 112.24C464.792 113.605 462.791 115.377 461.097 117.555ZM461.097 70.9693V72H485.5V20H469.5L467.9 54C467.633 59.3867 466.22 64 463.66 67.84C462.844 69.0635 461.99 70.1067 461.097 70.9693ZM474.796 199.94C474.991 199.751 475.187 199.568 475.384 199.391L475.397 199.4H481.997V195.875C482.748 195.725 483.511 195.65 484.286 195.65C487.666 195.65 490.786 197.08 493.646 199.94C496.592 202.8 499.019 207.567 500.926 214.24C502.832 220.913 503.786 229.667 503.786 240.5C503.786 251.333 502.832 260.087 500.926 266.76C499.019 273.433 496.592 278.2 493.646 281.06C490.786 283.92 487.666 285.35 484.286 285.35C480.906 285.35 477.742 283.92 474.796 281.06C471.936 278.2 469.552 273.433 467.646 266.76C465.739 260.087 464.786 251.333 464.786 240.5C464.786 229.667 465.739 220.913 467.646 214.24C469.552 207.567 471.936 202.8 474.796 199.94ZM483.9 165.2C483.246 165.2 482.612 165.158 481.997 165.073V162H492.599C492.099 162.4 491.573 162.773 491.02 163.12C488.78 164.507 486.407 165.2 483.9 165.2ZM512.331 134.666V154.977L505.14 152.1L512.331 134.666ZM559.227 111.4H550.331V110H522.44L537.516 73.625V74H554.397L569.456 110.003C569.336 110.001 569.216 110 569.094 110H558.294V111.2L559.227 111.4ZM542.316 71.6L537.897 72.7046L542.316 62.0434V71.6ZM598.713 71.6L593.671 72.6804L588.335 59.9496L593.112 49.2H598.713V71.6ZM588.312 48.4C586.62 48.494 585.114 48.7331 583.795 49.1171L583.092 47.44C584.745 47.7843 586.486 47.971 588.312 48V48.4ZM598.713 20H595.513C591.779 20 588.846 21.1733 586.713 23.52C584.579 25.8666 583.513 29.2267 583.513 33.6C583.513 37.9733 584.579 41.3333 586.713 43.68C588.846 46.0266 591.779 47.2 595.513 47.2H598.713V20ZM647.141 72.8L651.941 71.6V20.4L647.141 19.2V18H668.741C676.847 18 682.794 19.3066 686.581 21.92C690.421 24.48 692.341 27.84 692.341 32C692.341 34.88 691.514 37.2 689.861 38.96C688.207 40.72 686.101 42.0266 683.541 42.88C680.821 43.84 677.887 44.3466 674.741 44.4V44.8C678.634 44.96 682.021 45.5466 684.901 46.56C687.834 47.52 690.261 49.0133 692.181 51.04C694.154 53.0667 695.141 55.6533 695.141 58.8C695.141 63.5466 693.194 67.28 689.301 70C685.407 72.6666 679.087 74 670.341 74H647.141V72.8ZM668.741 43.6C670.501 43.6 672.127 43.12 673.621 42.16C675.167 41.1466 676.394 39.76 677.301 38C678.261 36.1866 678.741 34.1866 678.741 32C678.741 29.6533 678.261 27.5733 677.301 25.76C676.394 23.9466 675.167 22.5333 673.621 21.52C672.127 20.5067 670.501 20 668.741 20H665.141V43.6H668.741ZM670.341 72C673.647 72 676.341 70.8267 678.421 68.48C680.501 66.1333 681.541 62.9067 681.541 58.8C681.541 54.6933 680.501 51.4666 678.421 49.12C676.341 46.7733 673.647 45.6 670.341 45.6H665.141V72H670.341ZM728.316 75.2C719.782 75.2 713.116 72.6666 708.316 67.6C703.516 62.5333 701.116 55.3333 701.116 46C701.116 39.8666 702.156 34.6133 704.236 30.24C706.369 25.8133 709.329 22.48 713.116 20.24C716.956 17.9466 721.382 16.8 726.396 16.8C729.436 16.8 732.502 17.68 735.596 19.44C736.769 20.08 737.942 20.9333 739.116 22C740.022 20.6133 740.956 19.52 741.916 18.72C742.876 18.0266 743.409 17.6533 743.516 17.6H745.516V32.8H742.316C741.622 30.24 740.582 27.92 739.196 25.84C737.916 23.8133 736.316 22.1333 734.396 20.8C732.529 19.4666 730.369 18.8 727.916 18.8C724.236 18.8 721.169 20.9333 718.716 25.2C716.316 29.4667 715.116 36.4 715.116 46C715.116 55.76 716.422 62.7467 719.036 66.96C721.702 71.12 725.329 73.2 729.916 73.2C732.422 73.2 734.796 72.5067 737.036 71.12C739.329 69.68 741.169 67.7867 742.556 65.44C743.996 63.0933 744.716 60.6133 744.716 58H746.716C746.716 61.04 745.889 63.8933 744.236 66.56C742.636 69.1733 740.422 71.28 737.596 72.88C734.822 74.4267 731.729 75.2 728.316 75.2ZM753.547 72.8L758.347 71.6V20.4L753.547 19.2V18H796.347V32.4H793.947C792.934 31.6 792.054 30.5866 791.307 29.36C789.6 26.48 788.747 23.36 788.747 20H771.547V45.2H780.747C781.12 43.1733 781.814 41.28 782.827 39.52C783.254 38.72 783.76 37.9467 784.347 37.2H786.747V55.2H784.347C783.76 54.4533 783.254 53.68 782.827 52.88C781.814 51.12 781.12 49.2267 780.747 47.2H771.547V72H790.347C790.347 68.64 791.2 65.52 792.907 62.64C793.654 61.4133 794.534 60.4 795.547 59.6H797.947V74H753.547V72.8ZM823.189 10.48C821.269 9.19998 820.309 7.57332 820.309 5.59998C820.309 4.21332 820.763 3.06665 821.669 2.15998C822.576 1.25332 823.723 0.799983 825.109 0.799983C825.216 0.799983 825.829 0.879982 826.949 1.03998L827.909 1.19998V9.99998C827.963 9.99998 828.336 10.1333 829.029 10.4C829.776 10.6666 830.869 10.8 832.309 10.8C833.749 10.8 834.816 10.6666 835.509 10.4C836.256 10.1333 836.656 9.99998 836.709 9.99998V1.19998L837.669 1.03998C838.789 0.879982 839.403 0.799983 839.509 0.799983C840.896 0.799983 842.043 1.25332 842.949 2.15998C843.856 3.06665 844.309 4.21332 844.309 5.59998C844.309 7.57332 843.323 9.19998 841.349 10.48C839.429 11.76 836.416 12.4 832.309 12.4C828.203 12.4 825.163 11.76 823.189 10.48ZM805.109 74V72.8L809.909 71.6V20.4L805.109 19.2V18H827.909V19.2L823.109 20.4V60.8L841.909 26.4V20.4L837.109 19.2V18H859.909V19.2L855.109 20.4V71.6L859.909 72.8V74H837.109V72.8L841.909 71.6V31.2L823.109 65.6V71.6L827.909 72.8V74H805.109ZM637.922 164.8L642.722 163.6V112.4L637.922 111.2V110H660.722V111.2L655.922 112.4V132.4H661.122C669.975 132.4 676.322 133.84 680.162 136.72C684.002 139.547 685.922 143.707 685.922 149.2C685.922 154.693 684.002 158.88 680.162 161.76C676.322 164.587 669.975 166 661.122 166H637.922V164.8ZM661.122 164C664.482 164 667.175 162.747 669.202 160.24C671.282 157.68 672.322 154 672.322 149.2C672.322 144.4 671.282 140.747 669.202 138.24C667.175 135.68 664.482 134.4 661.122 134.4H655.922V164H661.122ZM691.906 166V164.8L696.706 163.6V112.4L691.906 111.2V110H714.706V111.2L709.906 112.4V152.8L728.706 118.4V112.4L723.906 111.2V110H746.706V111.2L741.906 112.4V163.6L746.706 164.8V166H723.906V164.8L728.706 163.6V123.2L709.906 157.6V163.6L714.706 164.8V166H691.906ZM0 284.05L7.8 282.1V198.9L0 196.95V195H35.1C48.2733 195 57.9367 197.123 64.09 201.37C70.33 205.53 73.45 210.99 73.45 217.75C73.45 222.43 72.1067 226.2 69.42 229.06C66.7333 231.92 63.31 234.043 59.15 235.43C54.73 236.99 49.9633 237.813 44.85 237.9V238.55C51.1767 238.81 56.68 239.763 61.36 241.41C66.1267 242.97 70.07 245.397 73.19 248.69C76.3967 251.983 78 256.187 78 261.3C78 269.013 74.8367 275.08 68.51 279.5C62.1833 283.833 51.9133 286 37.7 286H0V284.05ZM35.1 236.6C37.96 236.6 40.6033 235.82 43.03 234.26C45.5433 232.613 47.5367 230.36 49.01 227.5C50.57 224.553 51.35 221.303 51.35 217.75C51.35 213.937 50.57 210.557 49.01 207.61C47.5367 204.663 45.5433 202.367 43.03 200.72C40.6033 199.073 37.96 198.25 35.1 198.25H29.25V236.6H35.1ZM37.7 282.75C43.0733 282.75 47.45 280.843 50.83 277.03C54.21 273.217 55.9 267.973 55.9 261.3C55.9 254.627 54.21 249.383 50.83 245.57C47.45 241.757 43.0733 239.85 37.7 239.85H29.25V282.75H37.7ZM88.3594 284.05L96.1594 282.1V198.9L88.3594 196.95V195H125.409V196.95L117.609 198.9V235.95H124.109C130.609 235.95 134.943 231.833 137.109 223.6L141.659 206.7C142.699 202.713 144.389 199.55 146.729 197.21C149.156 194.87 152.016 193.7 155.309 193.7C159.123 193.7 162.243 194.827 164.669 197.08C167.096 199.247 168.309 202.02 168.309 205.4C168.309 208.693 167.313 211.38 165.319 213.46C163.326 215.453 160.856 216.45 157.909 216.45C156.696 216.45 155.483 216.363 154.269 216.19L152.709 215.8V197.6C151.236 197.947 149.849 198.943 148.549 200.59C147.249 202.15 146.253 204.187 145.559 206.7L141.009 223.6C139.709 228.367 137.976 231.833 135.809 234C134.856 235.04 133.773 235.907 132.559 236.6H135.809C146.383 236.6 152.883 240.283 155.309 247.65L167.009 282.1L173.509 284.05V286H157.909C153.316 286 149.763 285.047 147.249 283.14C144.736 281.233 142.873 278.503 141.659 274.95L129.309 239.2H117.609V282.1L125.409 284.05V286H88.3594V284.05ZM200.865 287.95C197.052 287.95 193.932 286.867 191.505 284.7C189.079 282.447 187.865 279.63 187.865 276.25C187.865 272.957 188.862 270.313 190.855 268.32C192.849 266.24 195.319 265.2 198.265 265.2C198.959 265.2 199.652 265.287 200.345 265.46C201.039 265.547 201.515 265.59 201.775 265.59L203.465 265.85V284.05C207.972 283.357 212.305 277.94 216.465 267.8L176.815 198.9L170.315 196.95V195H187.215C191.462 195 194.929 195.997 197.615 197.99C200.302 199.897 202.685 202.583 204.765 206.05L226.735 244.14L245.715 200.85L235.965 196.95V195H260.015V196.95L249.615 200.85L220.365 267.8C217.332 274.907 214.255 280.063 211.135 283.27C208.015 286.39 204.592 287.95 200.865 287.95ZM343.281 286V284.05L351.081 282.1V198.9L343.281 196.95V195H380.331V196.95L372.531 198.9V239.2H400.481V198.9L392.681 196.95V195H429.731V196.95L421.931 198.9V282.1L429.731 284.05V286H392.681V284.05L400.481 282.1V242.45H372.531V282.1L380.331 284.05V286H343.281ZM534.3 222.6L529.5 223.8V225H552.3V223.8L547.5 222.6V196.2H554.7L562.3 218.2C563.047 220.387 564.193 222.067 565.74 223.24C567.287 224.413 569.473 225 572.3 225H580.697H581.9H595.497V223.8L589.497 221.4L594.777 208.6H613.897L617.977 218.2C618.83 220.227 620.137 221.88 621.897 223.16C623.657 224.387 625.924 225 628.697 225H638.297V223.8L634.297 222.6L611.497 168.2H609.097L587.097 221.4L581.232 223.599L577.9 222.6L570.7 201.4C569.207 196.867 565.207 194.6 558.7 194.6H556.7C557.447 194.173 558.113 193.64 558.7 193C560.033 191.667 561.1 189.533 561.9 186.6L564.7 176.2C565.127 174.653 565.74 173.4 566.54 172.44C567.34 171.427 568.193 170.813 569.1 170.6V181.8L570.06 182.04C570.807 182.147 571.553 182.2 572.3 182.2C574.113 182.2 575.633 181.587 576.86 180.36C578.087 179.08 578.7 177.427 578.7 175.4C578.7 173.32 577.953 171.613 576.46 170.28C574.967 168.893 573.047 168.2 570.7 168.2C568.673 168.2 566.913 168.92 565.42 170.36C563.98 171.8 562.94 173.747 562.3 176.2L559.5 186.6C558.167 191.667 555.5 194.2 551.5 194.2H547.5V171.4L552.3 170.2V169H529.5V170.2L534.3 171.4V222.6ZM613.097 206.6H595.577L604.297 185.56L613.097 206.6ZM645.472 222.6L640.672 223.8V225H663.472V223.8L658.672 222.6V196.2H665.872L673.472 218.2C674.219 220.387 675.365 222.067 676.912 223.24C678.459 224.413 680.645 225 683.472 225H693.072V223.8L689.072 222.6L681.872 201.4C680.379 196.867 676.379 194.6 669.872 194.6H667.872C668.619 194.173 669.285 193.64 669.872 193C671.205 191.667 672.272 189.533 673.072 186.6L675.872 176.2C676.299 174.653 676.912 173.4 677.712 172.44C678.512 171.427 679.365 170.813 680.272 170.6V181.8L681.232 182.04C681.979 182.147 682.725 182.2 683.472 182.2C685.285 182.2 686.805 181.587 688.032 180.36C689.259 179.08 689.872 177.427 689.872 175.4C689.872 173.32 689.125 171.613 687.632 170.28C686.139 168.893 684.219 168.2 681.872 168.2C679.845 168.2 678.085 168.92 676.592 170.36C675.152 171.8 674.112 173.747 673.472 176.2L670.672 186.6C669.339 191.667 666.672 194.2 662.672 194.2H658.672V171.4L663.472 170.2V169H640.672V170.2L645.472 171.4V222.6ZM728.131 224.2C729.624 225.533 731.544 226.2 733.891 226.2C736.184 226.2 738.291 225.24 740.211 223.32C742.131 221.347 744.024 218.173 745.891 213.8L763.891 172.6L770.291 170.2V169H755.491V170.2L761.491 172.6L749.811 199.24L736.291 175.8C735.011 173.667 733.544 172.013 731.891 170.84C730.237 169.613 728.104 169 725.491 169H715.091V170.2L719.091 171.4L743.491 213.8C740.931 220.04 738.264 223.373 735.491 223.8V212.6L734.451 212.44C734.291 212.44 733.997 212.413 733.571 212.36C733.144 212.253 732.717 212.2 732.291 212.2C730.477 212.2 728.957 212.84 727.731 214.12C726.504 215.347 725.891 216.973 725.891 219C725.891 221.08 726.637 222.813 728.131 224.2ZM802.325 221.4V179L826.725 225.8H829.125L847.925 179V222.6L843.125 223.8V225H865.925V223.8L861.125 222.6V171.4L865.925 170.2V169H857.525C854.325 169 851.952 169.56 850.405 170.68C848.858 171.747 847.632 173.453 846.725 175.8L833.365 209.16L815.925 175.8C814.752 173.56 813.338 171.88 811.685 170.76C810.085 169.587 807.898 169 805.125 169H794.325V170.2L799.925 171.4V221.4L793.525 223.8V225H808.725V223.8L802.325 221.4ZM874.753 221.4L868.353 223.8V225H883.153V223.8L877.153 221.4L882.433 208.6H901.553L905.633 218.2C906.486 220.227 907.793 221.88 909.553 223.16C911.313 224.387 913.58 225 916.353 225H925.953V223.8L921.953 222.6L899.153 168.2H896.753L874.753 221.4ZM900.753 206.6H883.233L891.953 185.56L900.753 206.6ZM935.528 221.4V179L959.928 225.8H962.328L981.128 179V222.6L976.328 223.8V225H999.128V223.8L994.328 222.6V171.4L999.128 170.2V169H990.728C987.528 169 985.155 169.56 983.608 170.68C982.061 171.747 980.835 173.453 979.928 175.8L966.568 209.16L949.128 175.8C947.955 173.56 946.541 171.88 944.888 170.76C943.288 169.587 941.101 169 938.328 169H927.528V170.2L933.128 171.4V221.4L926.728 223.8V225H941.928V223.8L935.528 221.4ZM1011.96 222.6L1007.16 223.8V225H1030.36C1039.21 225 1045.56 223.587 1049.4 220.76C1053.24 217.88 1055.16 213.693 1055.16 208.2C1055.16 202.707 1053.24 198.547 1049.4 195.72C1045.56 192.84 1039.21 191.4 1030.36 191.4H1025.16V171.4L1029.96 170.2V169H1007.16V170.2L1011.96 171.4V222.6ZM1057.56 223.8V225H1080.36V223.8L1075.56 222.6V171.4L1080.36 170.2V169H1057.56V170.2L1062.36 171.4V222.6L1057.56 223.8ZM1038.44 219.24C1036.41 221.747 1033.72 223 1030.36 223H1025.16V193.4H1030.36C1033.72 193.4 1036.41 194.68 1038.44 197.24C1040.52 199.747 1041.56 203.4 1041.56 208.2C1041.56 213 1040.52 216.68 1038.44 219.24ZM75 330.25L78 329.5V297.5L75 296.75V296H101.5V305H100C99.3667 304.5 98.8167 303.867 98.35 303.1C97.2833 301.3 96.75 299.35 96.75 297.25H86.25V310.5H89C94.5 310.5 98.45 311.383 100.85 313.15C103.283 314.917 104.5 317.45 104.5 320.75C104.5 324.05 103.283 326.583 100.85 328.35C98.45 330.117 94.5 331 89 331H75V330.25ZM89 329.75C91.1 329.75 92.7833 328.983 94.05 327.45C95.35 325.883 96 323.65 96 320.75C96 317.85 95.35 315.633 94.05 314.1C92.7833 312.533 91.1 311.75 89 311.75H86.25V329.75H89ZM108.496 330.25L111.496 329.5V297.5L108.496 296.75V296H122.746V296.75L119.746 297.5V310H122.996C128.529 310 132.496 310.9 134.896 312.7C137.296 314.467 138.496 317.067 138.496 320.5C138.496 323.933 137.296 326.55 134.896 328.35C132.496 330.117 128.529 331 122.996 331H108.496V330.25ZM139.996 331V330.25L142.996 329.5V297.5L139.996 296.75V296H154.246V296.75L151.246 297.5V329.5L154.246 330.25V331H139.996ZM122.996 329.75C125.096 329.75 126.779 328.967 128.046 327.4C129.346 325.8 129.996 323.5 129.996 320.5C129.996 317.5 129.346 315.217 128.046 313.65C126.779 312.05 125.096 311.25 122.996 311.25H119.746V329.75H122.996ZM175.979 331.75C170.645 331.75 166.479 330.167 163.479 327C160.479 323.833 158.979 319.333 158.979 313.5C158.979 309.667 159.629 306.383 160.929 303.65C162.262 300.883 164.112 298.8 166.479 297.4C168.879 295.967 171.645 295.25 174.779 295.25C176.679 295.25 178.595 295.8 180.529 296.9C181.262 297.3 181.995 297.833 182.729 298.5C183.295 297.633 183.879 296.95 184.479 296.45C185.079 296.017 185.412 295.783 185.479 295.75H186.729V305.25H184.729C184.295 303.65 183.645 302.2 182.779 300.9C181.979 299.633 180.979 298.583 179.779 297.75C178.612 296.917 177.262 296.5 175.729 296.5C173.429 296.5 171.512 297.833 169.979 300.5C168.479 303.167 167.729 307.5 167.729 313.5C167.729 319.6 168.545 323.967 170.179 326.6C171.845 329.2 174.112 330.5 176.979 330.5C178.545 330.5 180.029 330.067 181.429 329.2C182.862 328.3 184.012 327.117 184.879 325.65C185.779 324.183 186.229 322.633 186.229 321H187.479C187.479 322.9 186.962 324.683 185.929 326.35C184.929 327.983 183.545 329.3 181.779 330.3C180.045 331.267 178.112 331.75 175.979 331.75ZM197.998 330.25L200.998 329.5V297.25H195.248C195.248 299.283 194.698 301.233 193.598 303.1C193.131 303.867 192.598 304.5 191.998 305H190.498V296H219.748V305H218.248C217.615 304.5 217.065 303.867 216.598 303.1C215.531 301.3 214.998 299.35 214.998 297.25H209.248V329.5L212.248 330.25V331H197.998V330.25ZM226.486 308H217V309.05L221.2 310.1V354.9L217 355.95V357H236.95V355.95L232.75 354.9V333.55H247.8V354.9L243.6 355.95V357H263.55V355.95L259.35 354.9V324.122C260.653 326.503 262.412 328.346 264.627 329.65C267.093 331.05 269.96 331.75 273.227 331.75C276.185 331.75 278.802 331.176 281.077 330.027L271.225 353.85L265.625 355.95V357H278.575V355.95L273.325 353.85L277.945 342.65H294.675L298.245 351.05C298.992 352.823 300.135 354.27 301.675 355.39C303.215 356.463 305.199 357 307.625 357H316.025V355.95L312.525 354.9L292.575 307.3H290.475L289.295 310.155C289.014 307.694 288.408 305.509 287.477 303.6C286.143 300.867 284.243 298.8 281.777 297.4C279.343 295.967 276.493 295.25 273.227 295.25C269.96 295.25 267.093 295.967 264.627 297.4C262.193 298.8 260.31 300.867 258.977 303.6C258.327 304.932 257.835 306.399 257.502 308H252.933C252.969 307.596 252.986 307.179 252.986 306.75C252.986 303.217 251.786 300.55 249.386 298.75C246.986 296.917 243.02 296 237.486 296H223.486V296.75L226.486 297.5V308ZM234.736 309.603L236.95 309.05V308H234.736V297.25H237.486C239.586 297.25 241.27 298.067 242.536 299.7C243.836 301.3 244.486 303.65 244.486 306.75C244.486 307.181 244.474 307.598 244.449 308H243.6V309.05L244.329 309.232C244.065 311.165 243.467 312.704 242.536 313.85C241.27 315.45 239.586 316.25 237.486 316.25H234.736V309.603ZM232.75 331V331.8H247.8V315.752C245.376 316.917 241.938 317.5 237.486 317.5H234.736V329.5L237.736 330.25V331H232.75ZM283.956 328.087C285.163 327.029 286.185 325.757 287.02 324.271L293.975 340.9H278.645L283.956 328.087ZM273.227 330.75C274.527 330.75 275.727 330.2 276.827 329.1C277.96 328 278.893 326.167 279.627 323.6C280.36 321.033 280.727 317.667 280.727 313.5C280.727 309.333 280.36 305.967 279.627 303.4C278.893 300.833 277.96 299 276.827 297.9C275.727 296.8 274.527 296.25 273.227 296.25C271.927 296.25 270.71 296.8 269.577 297.9C268.477 299 267.56 300.833 266.827 303.4C266.093 305.967 265.727 309.333 265.727 313.5C265.727 317.667 266.093 321.033 266.827 323.6C267.56 326.167 268.477 328 269.577 329.1C270.71 330.2 271.927 330.75 273.227 330.75ZM531 249.5V281.5L528 282.25V283H542.25V282.25L539.25 281.5V265H543.75L548.5 278.75C548.967 280.117 549.683 281.167 550.65 281.9C551.617 282.633 552.983 283 554.75 283H559.998H560.75H569.248V282.25L565.498 280.75L568.798 272.75H580.748L583.298 278.75C583.831 280.017 584.648 281.05 585.748 281.85C586.848 282.617 588.265 283 589.998 283H595.998V282.25L593.498 281.5L579.248 247.5H577.748L563.998 280.75L560.332 282.125L558.25 281.5L553.75 268.25C552.817 265.417 550.317 264 546.25 264H545C545.467 263.733 545.883 263.4 546.25 263C547.083 262.167 547.75 260.833 548.25 259L550 252.5C550.267 251.533 550.65 250.75 551.15 250.15C551.65 249.517 552.183 249.133 552.75 249V256L553.35 256.15C553.817 256.217 554.283 256.25 554.75 256.25C555.883 256.25 556.833 255.867 557.6 255.1C558.367 254.3 558.75 253.267 558.75 252C558.75 250.7 558.283 249.633 557.35 248.8C556.417 247.933 555.217 247.5 553.75 247.5C552.483 247.5 551.383 247.95 550.45 248.85C549.55 249.75 548.9 250.967 548.5 252.5L546.75 259C545.917 262.167 544.25 263.75 541.75 263.75H539.25V249.5L542.25 248.75V248H528V248.75L531 249.5ZM580.248 271.5H569.298L574.748 258.35L580.248 271.5ZM613.967 281.5L610.967 282.25V283H625.217V282.25L622.217 281.5V249.5L625.217 248.75V248H610.967V248.75L613.967 249.5V267C613.6 267.267 613.167 267.517 612.667 267.75C611.667 268.25 610.6 268.5 609.467 268.5C607.5 268.5 606.05 267.933 605.117 266.8C604.183 265.633 603.717 263.7 603.717 261V249.5L606.717 248.75V248H592.467V248.75L595.467 249.5V261C595.467 263.767 596.433 265.917 598.367 267.45C600.333 268.983 603.367 269.75 607.467 269.75C609.2 269.75 610.783 269.5 612.217 269C612.783 268.833 613.367 268.583 613.967 268.25V281.5ZM633.197 281.5L630.197 282.25V283H657.947V274H656.447C655.814 274.5 655.264 275.133 654.797 275.9C653.731 277.7 653.197 279.65 653.197 281.75H641.447V266.25H647.197C647.431 267.517 647.864 268.7 648.497 269.8C648.764 270.3 649.081 270.783 649.447 271.25H650.947V260H649.447C649.081 260.467 648.764 260.95 648.497 261.45C647.864 262.55 647.431 263.733 647.197 265H641.447V249.25H652.197C652.197 251.35 652.731 253.3 653.797 255.1C654.264 255.867 654.814 256.5 655.447 257H656.947V248H630.197V248.75L633.197 249.5V281.5ZM666.186 279C669.186 282.167 673.352 283.75 678.686 283.75C680.819 283.75 682.752 283.267 684.486 282.3C686.252 281.3 687.636 279.983 688.636 278.35C689.669 276.683 690.186 274.9 690.186 273H688.936C688.936 274.633 688.486 276.183 687.586 277.65C686.719 279.117 685.569 280.3 684.136 281.2C682.736 282.067 681.252 282.5 679.686 282.5C676.819 282.5 674.552 281.2 672.886 278.6C671.252 275.967 670.436 271.6 670.436 265.5C670.436 259.5 671.186 255.167 672.686 252.5C674.219 249.833 676.136 248.5 678.436 248.5C679.969 248.5 681.319 248.917 682.486 249.75C683.686 250.583 684.686 251.633 685.486 252.9C686.352 254.2 687.002 255.65 687.436 257.25H689.436V247.75H688.186C688.119 247.783 687.786 248.017 687.186 248.45C686.586 248.95 686.002 249.633 685.436 250.5C684.702 249.833 683.969 249.3 683.236 248.9C681.302 247.8 679.386 247.25 677.486 247.25C674.352 247.25 671.586 247.967 669.186 249.4C666.819 250.8 664.969 252.883 663.636 255.65C662.336 258.383 661.686 261.667 661.686 265.5C661.686 271.333 663.186 275.833 666.186 279ZM703.705 281.5L700.705 282.25V283H714.955V282.25L711.955 281.5V249.25H717.705C717.705 251.35 718.238 253.3 719.305 255.1C719.772 255.867 720.322 256.5 720.955 257H722.455V248H693.205V257H694.705C695.305 256.5 695.838 255.867 696.305 255.1C697.405 253.233 697.955 251.283 697.955 249.25H703.705V281.5ZM729.193 281.5L726.193 282.25V283H740.693C746.16 283 750.11 282.167 752.543 280.5C754.977 278.8 756.193 276.467 756.193 273.5C756.193 271.533 755.577 269.917 754.343 268.65C753.143 267.383 751.627 266.45 749.793 265.85C747.993 265.217 745.877 264.85 743.443 264.75V264.5C745.41 264.467 747.243 264.15 748.943 263.55C750.543 263.017 751.86 262.2 752.893 261.1C753.927 260 754.443 258.55 754.443 256.75C754.443 254.15 753.243 252.05 750.843 250.45C748.477 248.817 744.76 248 739.693 248H726.193V248.75L729.193 249.5V281.5ZM742.743 263.1C741.81 263.7 740.793 264 739.693 264H737.443V249.25H739.693C740.793 249.25 741.81 249.567 742.743 250.2C743.71 250.833 744.477 251.717 745.043 252.85C745.643 253.983 745.943 255.283 745.943 256.75C745.943 258.117 745.643 259.367 745.043 260.5C744.477 261.6 743.71 262.467 742.743 263.1ZM745.743 279.55C744.443 281.017 742.76 281.75 740.693 281.75H737.443V265.25H740.693C742.76 265.25 744.443 265.983 745.743 267.45C747.043 268.917 747.693 270.933 747.693 273.5C747.693 276.067 747.043 278.083 745.743 279.55ZM763.178 281.5L760.178 282.25V283H787.928V274H786.428C785.794 274.5 785.244 275.133 784.778 275.9C783.711 277.7 783.178 279.65 783.178 281.75H771.428V266.25H777.178C777.411 267.517 777.844 268.7 778.478 269.8C778.744 270.3 779.061 270.783 779.428 271.25H780.928V260H779.428C779.061 260.467 778.744 260.95 778.478 261.45C777.844 262.55 777.411 263.733 777.178 265H771.428V249.25H782.178C782.178 251.35 782.711 253.3 783.778 255.1C784.244 255.867 784.794 256.5 785.428 257H786.928V248H760.178V248.75L763.178 249.5V281.5ZM792.404 282.25V283H806.654V282.25L803.654 281.5V266.25H814.404V281.5L811.404 282.25V283H825.654V282.25L822.654 281.5V249.5L825.654 248.75V248H811.404V248.75L814.404 249.5V265H803.654V249.5L806.654 248.75V248H792.404V248.75L795.404 249.5V281.5L792.404 282.25ZM830.637 282.25V283H844.887V282.25L841.887 281.5V266.25H852.637V281.5L849.637 282.25V283H863.887V282.25L860.887 281.5V249.5L863.887 248.75V248H849.637V248.75L852.637 249.5V265H841.887V249.5L844.887 248.75V248H830.637V248.75L833.637 249.5V281.5L830.637 282.25ZM876.269 281.65C878.736 283.05 881.602 283.75 884.869 283.75C888.136 283.75 890.986 283.05 893.419 281.65C895.886 280.217 897.786 278.133 899.119 275.4C900.452 272.667 901.119 269.367 901.119 265.5C901.119 261.633 900.452 258.333 899.119 255.6C897.786 252.867 895.886 250.8 893.419 249.4C890.986 247.967 888.136 247.25 884.869 247.25C881.602 247.25 878.736 247.967 876.269 249.4C873.836 250.8 871.952 252.867 870.619 255.6C869.286 258.333 868.619 261.633 868.619 265.5C868.619 269.367 869.286 272.667 870.619 275.4C871.952 278.133 873.836 280.217 876.269 281.65ZM888.469 281.1C887.369 282.2 886.169 282.75 884.869 282.75C883.569 282.75 882.352 282.2 881.219 281.1C880.119 280 879.202 278.167 878.469 275.6C877.736 273.033 877.369 269.667 877.369 265.5C877.369 261.333 877.736 257.967 878.469 255.4C879.202 252.833 880.119 251 881.219 249.9C882.352 248.8 883.569 248.25 884.869 248.25C886.169 248.25 887.369 248.8 888.469 249.9C889.602 251 890.536 252.833 891.269 255.4C892.003 257.967 892.369 261.333 892.369 265.5C892.369 269.667 892.003 273.033 891.269 275.6C890.536 278.167 889.602 280 888.469 281.1ZM200.5 158.7L213.7 155.4V14.6L200.5 11.3V7.99997H318.2V47.6H311.6C308.813 45.4 306.393 42.6133 304.34 39.24C299.647 31.32 297.3 22.74 297.3 13.5H250V82.8H275.3C276.327 77.2266 278.233 72.02 281.02 67.18C282.193 64.98 283.587 62.8533 285.2 60.8H291.8V110.3H285.2C283.587 108.247 282.193 106.12 281.02 103.92C278.233 99.08 276.327 93.8733 275.3 88.3H250V156.5H301.7C301.7 147.26 304.047 138.68 308.74 130.76C310.793 127.387 313.213 124.6 316 122.4H322.6V162H200.5V158.7ZM424.797 156.5V13.5H380.797L376.397 107C375.664 121.813 371.777 134.5 364.737 145.06C361.51 149.9 358.064 153.713 354.397 156.5H424.797ZM326.884 354.9L322.684 355.95V357H342.634V355.95L338.434 354.9V309.75H346.484C346.484 312.69 347.23 315.42 348.724 317.94C349.377 319.013 350.147 319.9 351.034 320.6H353.134V308H312.184V320.6H314.284C315.124 319.9 315.87 319.013 316.524 317.94C318.064 315.327 318.834 312.597 318.834 309.75H326.884V354.9ZM365.577 356.3C366.884 357.467 368.564 358.05 370.617 358.05C372.624 358.05 374.467 357.21 376.147 355.53C377.827 353.803 379.484 351.027 381.117 347.2L396.867 311.15L402.467 309.05V308H389.517V309.05L394.767 311.15L384.547 334.46L372.717 313.95C371.597 312.083 370.314 310.637 368.867 309.61C367.421 308.537 365.554 308 363.267 308H354.167V309.05L357.667 310.1L379.017 347.2C376.777 352.66 374.444 355.577 372.017 355.95V346.15L371.107 346.01C370.967 346.01 370.711 345.987 370.337 345.94C369.964 345.847 369.591 345.8 369.217 345.8C367.631 345.8 366.301 346.36 365.227 347.48C364.154 348.553 363.617 349.977 363.617 351.75C363.617 353.57 364.271 355.087 365.577 356.3ZM408.778 354.9L404.578 355.95V357H424.528V355.95L420.328 354.9V338.1H424.178C431.925 338.1 437.478 336.84 440.838 334.32C444.198 331.753 445.878 327.997 445.878 323.05C445.878 318.103 444.198 314.37 440.838 311.85C437.478 309.283 431.925 308 424.178 308H404.578V309.05L408.778 310.1V354.9ZM431.248 332.99C429.475 335.23 427.118 336.35 424.178 336.35H420.328V309.75H424.178C427.118 309.75 429.475 310.893 431.248 313.18C433.068 315.42 433.978 318.71 433.978 323.05C433.978 327.437 433.068 330.75 431.248 332.99ZM447.593 353.85L441.993 355.95V357H454.943V355.95L449.693 353.85L454.313 342.65H471.043L474.613 351.05C475.359 352.823 476.503 354.27 478.043 355.39C479.583 356.463 481.566 357 483.993 357H492.393V356.44C493.675 357.513 495.301 358.05 497.271 358.05C499.837 358.05 501.961 356.627 503.641 353.78C505.321 350.933 506.347 346.173 506.721 339.5L508.121 309.75H521.421V354.9L517.221 355.95V357H537.171V355.95L532.971 354.9V310.1L537.171 309.05V308H501.121V309.05L506.021 310.45L504.621 339.5C504.387 345.287 503.711 349.37 502.591 351.75C501.517 354.083 500.211 355.483 498.671 355.95V346.15L497.761 346.01C497.621 346.01 497.364 345.987 496.991 345.94C496.617 345.847 496.244 345.8 495.871 345.8C494.284 345.8 492.954 346.36 491.881 347.48C490.807 348.553 490.271 349.977 490.271 351.75C490.271 353.3 490.745 354.63 491.692 355.74L488.893 354.9L468.943 307.3H466.843L447.593 353.85ZM470.343 340.9H455.013L462.643 322.49L470.343 340.9ZM548.368 354.9L544.168 355.95V357H564.468C572.215 357 577.768 355.763 581.128 353.29C584.488 350.77 586.168 347.107 586.168 342.3C586.168 337.493 584.488 333.853 581.128 331.38C577.768 328.86 572.215 327.6 564.468 327.6H559.918V310.1L564.118 309.05V308H544.168V309.05L548.368 310.1V354.9ZM571.538 351.96C569.765 354.153 567.408 355.25 564.468 355.25H559.918V329.35H564.468C567.408 329.35 569.765 330.47 571.538 332.71C573.358 334.903 574.268 338.1 574.268 342.3C574.268 346.5 573.358 349.72 571.538 351.96ZM591.404 355.95V357H611.354V355.95L607.154 354.9V333.55H622.204V354.9L618.004 355.95V357H637.954V355.95L633.754 354.9V310.1L637.954 309.05V308H618.004V309.05L622.204 310.1V331.8H607.154V310.1L611.354 309.05V308H591.404V309.05L595.604 310.1V354.9L591.404 355.95ZM655.29 355.11C658.743 357.07 662.756 358.05 667.33 358.05C671.903 358.05 675.893 357.07 679.3 355.11C682.753 353.103 685.413 350.187 687.28 346.36C689.146 342.533 690.08 337.913 690.08 332.5C690.08 327.087 689.146 322.467 687.28 318.64C685.413 314.813 682.753 311.92 679.3 309.96C675.893 307.953 671.903 306.95 667.33 306.95C662.756 306.95 658.743 307.953 655.29 309.96C651.883 311.92 649.246 314.813 647.38 318.64C645.513 322.467 644.58 327.087 644.58 332.5C644.58 337.913 645.513 342.533 647.38 346.36C649.246 350.187 651.883 353.103 655.29 355.11ZM672.37 354.34C670.83 355.88 669.15 356.65 667.33 356.65C665.51 356.65 663.806 355.88 662.22 354.34C660.68 352.8 659.396 350.233 658.37 346.64C657.343 343.047 656.83 338.333 656.83 332.5C656.83 326.667 657.343 321.953 658.37 318.36C659.396 314.767 660.68 312.2 662.22 310.66C663.806 309.12 665.51 308.35 667.33 308.35C669.15 308.35 670.83 309.12 672.37 310.66C673.956 312.2 675.263 314.767 676.29 318.36C677.316 321.953 677.83 326.667 677.83 332.5C677.83 338.333 677.316 343.047 676.29 346.64C675.263 350.233 673.956 352.8 672.37 354.34Z" fill="black" fill-opacity="0.05"/>
</svg>
